<svg xmlns="http://www.w3.org/2000/svg"><metadata>This is a custom SVG webfont generated by Font Squirrel. Copyright : Copyright 2009 ParaType Ltd All rights reserved Designer : AKorolkova OUmpeleva VYefimov Foundry : ParaType Ltd Foundry URL : httpwwwparatypecom</metadata><defs><font id="webfontKxHOQUev" horiz-adv-x="1216"><font-face ascent="1536" descent="-512" units-per-em="2048"/><glyph d="M49 915v160h189v68q0 166 107.5 241.5t316.5 75.5q135 0 245.5 -25.5t179.5 -64.5l-57 -147q-66 35 -155 56t-185 21q-86 0 -138 -12t-80 -39.5t-37 -69.5t-9 -104h670v-1075h-189v915h-481v-915h-188v915h-189z" horiz-adv-x="1316" unicode="ﬁ"/><glyph d="M49 915v160h184v68q0 168 97.5 242.5t322.5 74.5q39 0 96.5 -3t118 -8t117.5 -12t100 -14v-1132q0 -86 31 -123t84 -37q29 0 63.5 3t75.5 16l23 -140q-43 -18 -107.5 -28.5t-115.5 -10.5q-111 0 -176.5 56.5t-65.5 187.5v1065q-55 10 -122.5 15t-121.5 5q-78 0 -124 -14 t-69.5 -43t-30.5 -71t-7 -97h235v-160h-235v-915h-189v915h-184z" horiz-adv-x="1378" unicode="ﬂ"/><glyph horiz-adv-x="595"/><glyph horiz-adv-x="595"/><glyph horiz-adv-x="595"/><glyph d="M236 104q0 59 37.5 94t99.5 35q61 0 99 -34.5t38 -94.5q0 -55 -38 -92t-99 -37t-99 37t-38 92zM274 731v703h201v-703l-41 -354h-119z" horiz-adv-x="677" unicode="!"/><glyph d="M201 1028v406h188l-72 -406h-116zM467 1028v406h188l-71 -406h-117z" horiz-adv-x="768" unicode="&quot;"/><glyph d="M53 453l35 147h178l66 254h-166l35 147h170l82 316h165l-81 -316h231l82 316h166l-82 -316h170l-39 -147h-170l-66 -254h162l-39 -147h-161l-89 -336h-163l86 336h-232l-86 -336h-166l86 336h-174zM432 600h232l65 254h-231z" unicode="#"/><glyph d="M164 45l63 172q47 -25 124 -46t188 -26v512q-68 29 -134.5 63t-119 82t-84 114.5t-31.5 160.5q0 160 92 257.5t277 119.5v184h161v-180q113 -4 187 -20.5t133 -42.5l-59 -168q-41 20 -104.5 36.5t-156.5 22.5v-469q70 -31 139.5 -66.5t125 -85t89 -115t33.5 -157.5 q0 -170 -99 -275.5t-288 -133.5v-189h-161v178q-125 4 -221.5 23.5t-153.5 48.5zM371 1092q0 -82 61.5 -132.5t151.5 -91.5v418q-119 -10 -166 -64t-47 -130zM655 150q104 12 168 66t64 157q0 45 -18.5 79.5t-50.5 62.5t-74 50.5t-89 42.5v-458z" unicode="$"/><glyph d="M152 1110q0 90 26.5 155.5t73.5 108.5t111.5 63.5t140.5 20.5t140.5 -19.5t112.5 -60.5t74.5 -107.5t26.5 -160.5t-26.5 -160.5t-74.5 -107.5t-112.5 -60.5t-140.5 -19.5t-140.5 19.5t-111.5 60.5t-73.5 107.5t-26.5 160.5zM272 74l1170 1386l119 -98l-1172 -1389z M332 1110q0 -111 44 -163t128 -52q82 0 128 47t46 168q0 123 -45 169t-129 46q-82 0 -127 -46t-45 -169zM969 348q0 90 26.5 155.5t73.5 108.5t111.5 63.5t140.5 20.5t140.5 -19.5t112.5 -60.5t74.5 -107.5t26.5 -160.5t-26.5 -160.5t-74.5 -107.5t-112.5 -60.5 t-140.5 -19.5t-140.5 19.5t-111.5 60.5t-73.5 107.5t-26.5 160.5zM1149 348q0 -111 44 -163t128 -52q82 0 128 47t46 168q0 123 -45 169t-129 46q-82 0 -127 -46t-45 -169z" horiz-adv-x="1748" unicode="%"/><glyph d="M256 387q0 82 30.5 154.5t83 137t121 118t144.5 94.5q-53 72 -91 144.5t-38 156.5q0 49 18.5 97t58.5 86t103.5 61.5t153.5 23.5q94 0 158.5 -22.5t103.5 -58.5t55.5 -81t16.5 -90q0 -84 -71 -176t-229 -172q78 -119 182.5 -237.5t213.5 -221.5q25 25 50.5 62t48 80 t43 87t34.5 85l147 -76q-12 -35 -36.5 -82t-54 -95t-60.5 -92t-58 -75q45 -39 81 -66.5t68 -48t60.5 -37t59.5 -30.5l-115 -140q-57 29 -126 76t-140 113q-41 -37 -89 -71t-108.5 -59.5t-134.5 -42t-162 -16.5q-106 0 -200.5 28t-166 81t-113.5 130t-42 175zM451 395 q0 -59 28.5 -107t76.5 -82t112.5 -51.5t136.5 -17.5q53 0 105.5 12.5t98.5 32t82.5 45t61.5 52.5q-61 57 -123.5 124.5t-118.5 134.5l-103 128l-83 108q-121 -82 -197.5 -171t-76.5 -208zM700 1188q0 -57 26 -113.5t69 -116.5q115 66 160.5 119t45.5 94q0 66 -33.5 104 t-119.5 38q-78 0 -113 -34t-35 -91z" horiz-adv-x="1824" unicode="&amp;"/><glyph d="M201 1028v406h188l-72 -406h-116z" horiz-adv-x="499" unicode="'"/><glyph d="M135 498q0 113 19.5 237.5t64.5 250.5t118 247t179 225l119 -88q-88 -102 -147.5 -211.5t-94.5 -221.5t-50 -223.5t-15 -215.5q0 -98 17 -211t55 -226.5t96.5 -222t140.5 -196.5l-127 -93q-104 98 -175 216t-116 242t-64.5 250t-19.5 241z" horiz-adv-x="643" unicode="("/><glyph d="M6 -360q90 104 149.5 213.5t94.5 220t49 221.5t14 215q0 98 -17 211t-54 225.5t-94.5 220t-139.5 197.5l125 94q102 -98 174 -216t116 -241.5t63.5 -249.5t19.5 -241q0 -113 -19.5 -238t-64.5 -250.5t-118 -246.5t-179 -226z" horiz-adv-x="641" unicode=")"/><glyph d="M92 1124v129h113l139 -28l-102 96l-60 98l113 64l57 -90l39 -121l43 119l55 92l111 -62l-59 -96l-103 -100l152 28h108v-129h-104l-141 29l102 -102l51 -84l-108 -64l-58 92l-51 129l-39 -123l-55 -92l-117 64l62 92l94 88l-129 -29h-113z" horiz-adv-x="792" unicode="*"/><glyph d="M88 604v172h391v389h176v-389h392v-172h-392v-391h-176v391h-391z" horiz-adv-x="1134" unicode="+"/><glyph d="M94 -213q78 27 118 85t38 118q-55 -16 -98 12.5t-43 93.5q0 53 38.5 87t94.5 34q72 0 116.5 -48t44.5 -134q0 -80 -23.5 -138.5t-60 -100.5t-80.5 -66.5t-87 -36.5z" horiz-adv-x="448" unicode=","/><glyph d="M131 504v176h545v-176h-545z" horiz-adv-x="806" unicode="-"/><glyph d="M106 104q0 59 38 94t100 35q61 0 99 -34.5t38 -94.5q0 -55 -38 -92t-99 -37t-99.5 37t-38.5 92z" horiz-adv-x="487" unicode="."/><glyph d="M-78 -213l815 1671l152 -69l-817 -1676z" horiz-adv-x="811" unicode="/"/><glyph d="M90 717q0 358 131 550.5t387 192.5q270 0 395 -190.5t125 -552.5q0 -356 -133 -550t-389 -194q-135 0 -232.5 53.5t-159.5 150.5t-93 234.5t-31 305.5zM291 717q0 -125 18.5 -230.5t56 -183.5t98 -122t144.5 -44q166 0 243 143.5t77 436.5q0 125 -16.5 230.5t-54.5 183 t-99.5 121.5t-149.5 44q-166 0 -241.5 -145t-75.5 -434z" unicode="0"/><glyph d="M147 1104l494 354h90v-1286h307v-172h-807v172h312v952l24 125l-90 -102l-244 -164z" unicode="1"/><glyph d="M133 0v74l118 115q69 69 143.5 152t147 175t130 187.5t93.5 187.5t36 174q0 96 -59.5 159.5t-182.5 63.5q-86 0 -166 -32.5t-137 -79.5l-84 137q84 68 190.5 107.5t235.5 39.5q190 0 296.5 -99t106.5 -263q0 -104 -43 -214t-111.5 -218.5t-153.5 -214.5l-171 -205 l-110 -88v-8l147 22h477v-172h-903z" unicode="2"/><glyph d="M188 31l52 168q53 -25 123.5 -41.5t158.5 -16.5q76 0 139.5 20.5t108.5 57.5t70.5 88t25.5 113q0 135 -90 200.5t-256 65.5h-166v78l314 426l106 90l-151 -18h-430v172h808v-80l-346 -465l-82 -60v-6l78 15q88 -2 163 -31t130 -81t86 -125t31 -163q0 -115 -43 -200.5 t-117 -145t-172 -89.5t-211 -30q-100 0 -184.5 15.5t-145.5 42.5z" unicode="3"/><glyph d="M39 432v86l741 936h138v-862h262v-160h-262v-432h-189v432h-690zM254 575l154 17h321v416l19 163h-7l-75 -133l-304 -366z" unicode="4"/><glyph d="M164 20l53 164q51 -18 109.5 -28.5t148.5 -10.5q154 0 252 75t98 220q0 141 -99 212t-275 71l-187 -8v719h711v-181h-531v-370l97 4q111 0 198.5 -31t150 -86t96.5 -136t34 -183q0 -117 -43 -206t-118 -149.5t-175 -91.5t-215 -31q-98 0 -171 12t-134 35z" unicode="5"/><glyph d="M127 489q0 197 57.5 366t158.5 298t239.5 209t302.5 98l39 -155q-123 -16 -224.5 -72.5t-178.5 -137.5t-126 -180.5t-65 -201.5q18 27 48 53.5t70.5 47t92 32.5t110.5 12q104 0 189.5 -29.5t143.5 -85t90 -133.5t32 -176q0 -90 -33 -173t-94 -147.5t-151.5 -102.5 t-204.5 -38q-111 0 -202 35t-156.5 100.5t-101.5 161.5t-36 219zM315 463q0 -59 18.5 -117.5t57.5 -104.5t97.5 -75t136.5 -29q63 0 115.5 22.5t90 61.5t59 90t21.5 109q0 135 -74.5 204.5t-224.5 69.5q-109 0 -185.5 -47t-107.5 -106q-4 -27 -4 -42v-36z" unicode="6"/><glyph d="M127 1253v181h950v-60l-645 -1374h-196l552 1174l99 100l-133 -21h-627z" unicode="7"/><glyph d="M145 348q0 129 74 221.5t225 167.5q-55 31 -103 65t-84 77t-56.5 96t-20.5 121q0 78 31 144.5t88 115.5t139 76.5t185 27.5q94 0 170.5 -24.5t131 -69.5t84 -105.5t29.5 -132.5q0 -117 -57 -204.5t-190 -169.5q59 -33 111 -69t90 -81t59.5 -100t21.5 -125 q0 -88 -31.5 -162t-93 -128t-150.5 -85t-202 -31q-109 0 -191.5 30t-141 80t-88.5 118.5t-30 146.5zM330 375q0 -47 18.5 -90t53 -76t86 -52.5t118.5 -19.5q55 0 106.5 15.5t89.5 44t60.5 72.5t22.5 102q0 55 -27 99t-71 80t-100 65l-116 59q-131 -66 -186 -146.5 t-55 -152.5zM371 1100q0 -55 24.5 -98.5t64.5 -77t93 -61t111 -54.5q94 68 141 135.5t47 145.5q0 49 -19.5 86.5t-51 64.5t-74.5 41t-91 14q-59 0 -104 -17t-77 -45t-48 -62.5t-16 -71.5z" unicode="8"/><glyph d="M109 997q0 96 31.5 181.5t93 148t153.5 98t213 35.5q115 0 206 -37t154.5 -104.5t97.5 -163.5t34 -217q0 -231 -58.5 -405.5t-162 -294t-241.5 -185t-298 -80.5l-41 154q129 14 231.5 62.5t176 123t120.5 170t66 205.5q-31 -33 -62.5 -55.5t-69.5 -35.5t-84 -18.5 t-106 -5.5q-90 0 -173 29t-145.5 82t-99 132t-36.5 181zM305 1012q0 -137 84 -208t217 -71q109 0 183.5 35t109.5 84q4 25 4 43v41q0 68 -18.5 133.5t-56 116.5t-97 82.5t-141.5 31.5q-135 0 -210 -76.5t-75 -211.5z" unicode="9"/><glyph d="M203 104q0 59 38 94t99 35t99 -34.5t38 -94.5q0 -55 -38 -92t-99 -37t-99 37t-38 92zM203 911q0 59 38 94t99 35t99 -34.5t38 -94.5q0 -55 -38 -92t-99 -37t-99 37t-38 92z" horiz-adv-x="559" unicode=":"/><glyph d="M176 -213q78 27 118 85t38 118q-55 -16 -98.5 12.5t-43.5 93.5q0 53 39 87t95 34q72 0 116.5 -48t44.5 -134q0 -80 -23.5 -138.5t-60 -100.5t-81 -66.5t-87.5 -36.5zM201 911q0 59 37.5 94t99.5 35q61 0 99 -34.5t38 -94.5q0 -55 -38 -92t-99 -37t-99 37t-38 92z" horiz-adv-x="567" unicode=";"/><glyph d="M90 614v78l858 484l86 -148l-524 -295l-205 -76l203 -65l536 -293l-83 -143z" horiz-adv-x="1134" unicode="&lt;"/><glyph d="M88 428v172h959v-172h-959zM88 780v172h959v-172h-959z" horiz-adv-x="1134" unicode="="/><glyph d="M90 1030l82 146l872 -463v-78l-860 -481l-84 147l525 295l204 76l-202 65z" horiz-adv-x="1134" unicode="&gt;"/><glyph d="M76 1348q86 53 182 82.5t238 29.5q100 0 176 -26.5t127 -72.5t76.5 -108.5t25.5 -134.5q0 -96 -30.5 -164.5t-75.5 -122t-98.5 -98.5t-98.5 -95t-75.5 -111.5t-30.5 -149.5h-164q-8 102 15.5 176t64.5 131t91 102t94 90.5t73.5 96.5t29.5 119q0 90 -54 147t-189 57 q-82 0 -167 -30.5t-145 -65.5zM283 104q0 59 37.5 94t99.5 35q61 0 99 -34.5t38 -94.5q0 -55 -38 -92t-99 -37t-99 37t-38 92z" horiz-adv-x="980" unicode="?"/><glyph d="M190 483q0 229 84 415.5t228.5 319t335 205t405.5 72.5q201 0 374 -58.5t301 -166t200.5 -260t72.5 -342.5q0 -127 -49 -245t-134 -209t-197.5 -145.5t-239.5 -54.5q-57 0 -101.5 13.5t-72 45t-35.5 85t6 133.5h-8q-33 -49 -76 -98.5t-94 -89.5t-111.5 -64.5 t-128.5 -24.5q-53 0 -100 22.5t-83 64.5t-56.5 99.5t-20.5 127.5q0 123 46 245.5t126 221t185.5 160t222.5 61.5q82 0 133 -23.5t98 -56.5l76 68h86l-115 -578q-25 -129 -16.5 -190.5t82.5 -61.5t146.5 35t129 99.5t92 155.5t35.5 204q0 162 -59.5 285.5t-163.5 207.5 t-248.5 127t-312.5 43q-182 0 -340 -63.5t-274.5 -175t-184 -264t-67.5 -332.5q0 -178 59 -322.5t171 -246t270.5 -156t355.5 -54.5q66 0 146.5 15.5t148.5 44.5l47 -154q-98 -41 -184.5 -55t-188.5 -14q-213 0 -395.5 62t-317.5 181t-212 292t-77 394zM879 360 q0 -74 33.5 -130t125.5 -56q43 0 90.5 28.5t93.5 76t88 106.5t74 121l62 278q-37 39 -74 55.5t-94 16.5q-86 0 -158.5 -47t-126 -120t-84 -160t-30.5 -169z" horiz-adv-x="2381" unicode="@"/><glyph d="M16 0l590 1454h107l592 -1454h-213l-156 375h-567l-152 -375h-201zM430 547h447l-166 407l-56 220h-4l-55 -224z" horiz-adv-x="1320" unicode="A"/><glyph d="M182 10v1411q84 14 197 22.5t242 8.5q88 0 181 -15.5t169 -54.5t125 -106.5t49 -173.5q0 -53 -17.5 -105.5t-53.5 -98.5t-91 -81t-131 -51v-8q66 -8 127 -33t108.5 -68t76 -104t28.5 -145q0 -111 -51 -192t-135 -133t-189.5 -76.5t-212.5 -24.5q-37 0 -90 1t-111.5 4 t-117 8t-103.5 15zM383 168q14 -4 43 -6t62.5 -4t67.5 -3t62 -1q70 0 134.5 14t113.5 45t79 78t30 112q0 82 -36 130.5t-93.5 74t-129 32.5t-141.5 7h-192v-479zM383 807h113q39 0 90 3t86 7q51 14 97 35.5t81 51.5t55.5 70t20.5 91q0 70 -28 112t-73 64.5t-102 30.5t-117 8 q-72 0 -132 -3t-91 -7v-463z" horiz-adv-x="1312" unicode="B"/><glyph d="M119 717q0 201 61.5 342t159.5 230t221 130t244 41q135 0 221 -14t145 -37l-45 -176q-100 47 -305 47q-92 0 -179 -29.5t-155.5 -96.5t-109.5 -174.5t-41 -262.5q0 -139 39 -244.5t107.5 -176.5t161.5 -106.5t204 -35.5q100 0 174 18t125 47l49 -158q-68 -49 -172 -68.5 t-221 -19.5q-137 0 -261 44t-218.5 135.5t-149.5 231.5t-55 333z" horiz-adv-x="1277" unicode="C"/><glyph d="M182 -2v1436q41 6 95.5 9t113 5t114.5 3t103 1q188 0 326.5 -54.5t229.5 -150.5t136.5 -229t45.5 -291q0 -143 -42 -277.5t-134.5 -239t-237 -167.5t-348.5 -63q-35 0 -94 2l-119 4q-61 2 -113.5 5t-75.5 7zM387 168q10 -2 40 -3l62.5 -2t61.5 -2t41 -1q154 0 257 48 t165.5 128t88 181t25.5 210q0 92 -24.5 188.5t-83.5 175t-157.5 130t-248.5 51.5h-61q-33 0 -65.5 -2t-59.5 -4t-41 -4v-1094z" horiz-adv-x="1464" unicode="D"/><glyph d="M182 0v1434h867v-177h-662v-436h604v-176h-604v-469h672v-176h-877z" horiz-adv-x="1198" unicode="E"/><glyph d="M182 0v1434h867v-177h-662v-456h614v-176h-614v-625h-205z" horiz-adv-x="1157" unicode="F"/><glyph d="M119 717q0 199 64.5 340t167 231t228.5 131t250 41q135 0 224.5 -15t148.5 -38l-49 -174q-106 47 -307 47q-92 0 -183.5 -28.5t-164 -95t-117.5 -174.5t-45 -265q0 -145 38 -252t105.5 -176.5t159.5 -102t201 -32.5q68 0 130 13t109 38v362l-366 37v119h536v-633 q-37 -29 -88 -50.5t-109.5 -35.5t-120 -22.5t-120.5 -8.5q-147 0 -273 44t-219.5 136.5t-146.5 233t-53 330.5z" horiz-adv-x="1368" unicode="G"/><glyph d="M182 0v1434h205v-613h727v613h205v-1434h-205v641h-727v-641h-205z" horiz-adv-x="1501" unicode="H"/><glyph d="M141 0v135h164v1163h-164v136h533v-136h-164v-1163h164v-135h-533z" horiz-adv-x="815" unicode="I"/><glyph d="M-72 14l39 170q57 -25 137 -24q92 0 122 59.5t30 163.5v1051h205v-1106q0 -160 -83 -254t-245 -94q-20 0 -48 2t-56.5 7t-55.5 11t-45 14z" horiz-adv-x="665" unicode="J"/><glyph d="M182 0v1434h205v-660l94 29l516 631h234l-516 -615l-97 -69l113 -82l569 -668h-258l-555 651h-100v-651h-205z" horiz-adv-x="1370" unicode="K"/><glyph d="M182 0v1434h205v-1254h733v-180h-938z" horiz-adv-x="1159" unicode="L"/><glyph d="M182 0v1434h154l485 -732l76 -155h4l72 160l461 727h161v-1434h-204v924l22 229h-8l-88 -199l-399 -635h-62l-420 637l-84 195h-10l33 -225v-926h-193z" horiz-adv-x="1777" unicode="M"/><glyph d="M182 0v1454h115l731 -930l117 -190h10l-25 190v910h193v-1454h-115l-727 931l-123 201h-8l25 -201v-911h-193z" horiz-adv-x="1505" unicode="N"/><glyph d="M119 717q0 176 44 314t127 233.5t202.5 145.5t271.5 50q162 0 283.5 -54t202.5 -151.5t121 -234.5t40 -303q0 -176 -44 -314.5t-128 -233.5t-204 -145.5t-271 -50.5q-164 0 -285 54.5t-200.5 151.5t-119.5 234.5t-40 303.5zM336 717q0 -117 25.5 -219.5t78 -180 t133 -122.5t191.5 -45q199 0 314.5 137t115.5 430q0 115 -25.5 217t-78 180t-133 124t-193.5 46q-197 0 -312.5 -139t-115.5 -428z" horiz-adv-x="1529" unicode="O"/><glyph d="M182 0v1419q86 18 187.5 25.5t199.5 7.5q104 0 212 -18.5t196 -67.5t144.5 -136t56.5 -224q0 -129 -51.5 -220.5t-136.5 -148.5t-194.5 -84t-226.5 -27q-12 0 -38 1l-53 2q-28 1 -53.5 3.5t-37.5 4.5v-537h-205zM387 713q10 -4 33.5 -5t49.5 -3.5t49 -2.5h36 q74 0 145.5 11.5t130 44.5t94.5 92t36 154q0 82 -35 135t-90.5 83.5t-124 42t-136.5 11.5q-55 0 -107 -2t-81 -10v-551z" horiz-adv-x="1257" unicode="P"/><glyph d="M119 717q0 176 44 314t127 233.5t202.5 145.5t271.5 50q162 0 283.5 -54t202.5 -151.5t121 -234.5t40 -303q0 -176 -44 -314.5t-128 -233.5t-204 -145.5t-271 -50.5q-164 0 -285 54.5t-200.5 151.5t-119.5 234.5t-40 303.5zM336 717q0 -117 25.5 -219.5t78 -180 t133 -122.5t191.5 -45q199 0 314.5 137t115.5 430q0 115 -25.5 217t-78 180t-133 124t-193.5 46q-197 0 -312.5 -139t-115.5 -428zM473 -94q61 12 123 12q92 0 185 -21.5t188.5 -46t197 -46t211.5 -21.5q47 0 97.5 5t103.5 17v-176q-53 -14 -106.5 -19t-106.5 -5 q-113 0 -220.5 21.5t-206.5 47t-191.5 47t-174.5 21.5q-51 0 -100 -12v176z" horiz-adv-x="1529" unicode="Q"/><glyph d="M182 0v1419q43 8 95.5 14.5t105.5 10.5t106.5 6t100.5 2q102 0 197.5 -20.5t168 -67.5t116.5 -123t44 -186q0 -86 -26.5 -156t-73.5 -123t-111.5 -89t-140.5 -54l106 -72l385 -561h-235l-426 604l-207 29v-633h-205zM387 768h168q74 0 136.5 15.5t108.5 47t72.5 83 t26.5 124.5q0 111 -78 174.5t-225 63.5h-58q-30 0 -58.5 -2t-53.5 -4t-39 -6v-496z" horiz-adv-x="1337" unicode="R"/><glyph d="M98 53l68 178q51 -27 154.5 -54t228.5 -27q72 0 133 13t107.5 40.5t72 70.5t25.5 103q0 84 -55.5 133t-139.5 85t-180 67.5t-180 81t-139.5 127t-55.5 202.5q0 174 128 280.5t366 106.5q137 0 251.5 -20.5t180.5 -53.5l-64 -172q-51 27 -153.5 48.5t-224.5 21.5 q-139 0 -209 -59.5t-70 -137.5q0 -80 55.5 -129t139.5 -86.5t180 -72.5t180 -86t139.5 -126t55.5 -192q0 -96 -37 -174t-106.5 -133t-168 -85t-223.5 -30q-168 0 -284 25.5t-175 54.5z" horiz-adv-x="1189" unicode="S"/><glyph d="M39 1253v181h1171v-181h-483v-1253h-205v1253h-483z" horiz-adv-x="1249" unicode="T"/><glyph d="M182 457v977h205v-899q0 -209 91 -291t270 -82q172 0 251.5 90t79.5 289v893h193v-936q0 -133 -38 -229.5t-107.5 -161t-165 -95t-211.5 -30.5q-276 0 -422 119.5t-146 355.5z" horiz-adv-x="1454" unicode="U"/><glyph d="M-6 1434h225l387 -955l53 -223h5l55 227l368 951h205l-594 -1454h-102z" horiz-adv-x="1286" unicode="V"/><glyph d="M16 1434h215l275 -930l33 -240h4l37 244l317 926h102l320 -930l37 -240h4l39 244l254 926h200l-436 -1454h-117l-313 931l-43 217h-10l-41 -219l-313 -929h-119z" horiz-adv-x="1869" unicode="W"/><glyph d="M55 0l518 729l-473 705h244l309 -471l56 -119l53 119l323 471h226l-488 -691l510 -743h-239l-342 500l-64 125l-57 -125l-350 -500h-226z" horiz-adv-x="1388" unicode="X"/><glyph d="M14 1434h240l358 -609l35 -131h4l39 135l342 605h217l-510 -871v-563h-204v561z" horiz-adv-x="1263" unicode="Y"/><glyph d="M80 0v180l772 991l100 82h-872v181h1061v-181l-779 -997l-96 -76h875v-180h-1061z" horiz-adv-x="1220" unicode="Z"/><glyph d="M182 -471v1905h422v-164h-233v-1577h233v-164h-422z" horiz-adv-x="688" unicode="["/><glyph d="M-74 1384l156 74l823 -1669l-155 -76z" horiz-adv-x="862" unicode="\"/><glyph d="M84 -307h233v1577h-233v164h422v-1905h-422v164z" horiz-adv-x="688" unicode="]"/><glyph d="M125 881l420 573h78l385 -573h-201l-174 270l-53 141l-66 -143l-205 -268h-184z" horiz-adv-x="1134" unicode="^"/><glyph d="M0 -268h926v-160h-926v160z" horiz-adv-x="925" unicode="_"/><glyph d="M123 1427v48h225l146 -308h-111z" horiz-adv-x="616" unicode="`"/><glyph d="M92 287q0 92 40 159.5t103.5 110.5t144.5 63.5t161 20.5q63 0 107 -2t74 -5t50.5 -6t36.5 -5q4 31 6 53t2 57q0 57 -12 96t-40 62.5t-75 34t-115 10.5q-39 0 -86 -6t-94 -17.5t-93 -28t-83 -34.5l-51 158q184 88 457 88q123 0 197.5 -32t115.5 -81t54.5 -109.5 t13.5 -119.5q0 -113 -8.5 -226.5t-8.5 -246.5q0 -78 7.5 -151t23.5 -134h-137l-52 164h-20q-23 -31 -55.5 -62.5t-77.5 -56.5t-103.5 -41t-134.5 -16t-139 21.5t-109.5 60t-73 95t-26.5 126.5zM293 307q0 -82 58.5 -123t150.5 -41q68 0 120 17.5t90 43t61.5 57.5t35.5 63 v163q-16 2 -34.5 6.5t-46.5 6.5t-65.5 4t-93.5 2q-127 0 -201.5 -45t-74.5 -154z" horiz-adv-x="1191" unicode="a"/><glyph d="M180 57v1377h189v-492h20q47 82 135 122t187 40q223 0 338.5 -136.5t115.5 -410.5q0 -281 -151.5 -428t-425.5 -147q-135 0 -245 22t-163 53zM369 180q100 -39 243 -39q162 0 257.5 99.5t95.5 318.5q0 82 -16.5 152.5t-51.5 122t-87 81t-126 29.5q-66 0 -116 -20.5 t-89 -56.5t-66.5 -82t-43.5 -95v-510z" horiz-adv-x="1288" unicode="b"/><glyph d="M123 537q0 272 132 420.5t380 148.5q109 0 188.5 -19.5t143.5 -48.5l-49 -153q-55 29 -120 45t-141 16q-334 0 -333 -409q0 -78 18 -151t59 -129t107.5 -91t163.5 -35q86 0 150.5 23.5t107.5 56.5l61 -137q-72 -51 -168 -77t-202 -26q-135 0 -230.5 41t-155 115 t-86 178.5t-26.5 231.5z" horiz-adv-x="1083" unicode="c"/><glyph d="M123 530q0 274 140 421t394 147q43 0 77 -3t63.5 -7.5t57.5 -12.5l58 -16v375h189v-1063q0 -104 3 -195.5t19 -179.5h-125l-47 164h-20q-47 -82 -138.5 -135.5t-211.5 -53.5q-231 0 -345 137t-114 422zM319 528q0 -86 16.5 -158.5t51.5 -126t92.5 -83t141.5 -29.5 q125 0 194.5 62.5t97.5 185.5v498q-47 35 -101 48t-144 13q-166 0 -257.5 -96.5t-91.5 -313.5z" horiz-adv-x="1288" unicode="d"/><glyph d="M123 537q0 276 136 422.5t388 146.5q80 0 160 -17.5t143.5 -65.5t103.5 -132t40 -219q0 -33 -2 -76t-9 -84h-768q4 -188 90.5 -284.5t292.5 -96.5q86 0 164 29.5t121 70.5l72 -143q-72 -53 -178.5 -85t-231.5 -32q-135 0 -234.5 40t-163 114t-94 178.5t-30.5 233.5z M324 647h589q0 9 1 18q0 150 -67 214q-71 68 -198 67q-143 0 -227 -67.5t-98 -231.5z" horiz-adv-x="1224" unicode="e"/><glyph d="M49 915v160h182v29q0 100 18.5 168.5t58.5 110.5t104.5 60.5t156.5 18.5q78 0 136.5 -9t121.5 -32l-41 -153q-53 23 -99 29t-89 6q-57 0 -92 -10.5t-54.5 -36t-25.5 -69.5t-6 -112h315v-160h-315v-915h-189v915h-182z" horiz-adv-x="745" unicode="f"/><glyph d="M123 528q0 276 143.5 426t425.5 150q135 0 232.5 -16.5t175.5 -43.5v-1050q0 -211 -124 -314.5t-364 -103.5q-139 0 -225 16.5t-147 45.5l45 169q27 -12 61.5 -25t73.5 -23.5t79 -16.5t76 -6q100 0 166 17.5t105 54t53 94t14 137.5v76h-22q-33 -53 -115 -86t-198 -33 q-233 0 -344 125.5t-111 406.5zM324 532q0 -180 66.5 -278t227.5 -98q125 0 196 63.5t97 165.5v528q-47 14 -108.5 22.5t-138.5 8.5q-160 0 -250 -101.5t-90 -310.5z" horiz-adv-x="1284" unicode="g"/><glyph d="M180 0v1434h189v-492h22q61 74 147.5 119t213.5 45q98 0 169.5 -21.5t118.5 -76t70 -145.5t23 -228v-635h-189v594q0 88 -11 152.5t-41 107.5t-80 63.5t-126 20.5q-53 0 -104.5 -18.5t-94.5 -51t-73.5 -79t-44.5 -103.5v-686h-189z" horiz-adv-x="1312" unicode="h"/><glyph d="M233 0v1075h189v-1075h-189zM195 1331q0 47 37 85t96 38t98 -38t39 -85t-39 -83t-98 -36t-96 36t-37 83z" horiz-adv-x="649" unicode="i"/><glyph d="M25 -270q68 -2 107.5 16t61 56t28.5 94.5t7 134.5v1044h189v-1112q0 -199 -75 -296t-241 -97h-35q-19 0 -42 4v156zM186 1331q0 47 37 85t96 38t98 -38t39 -85t-39 -83t-98 -36t-96 36t-37 83z" horiz-adv-x="638" unicode="j"/><glyph d="M180 0v1434h189v-848l106 35l356 454h222l-342 -416h2l-113 -81l129 -93l379 -485h-238l-385 483h-116v-483h-189z" horiz-adv-x="1140" unicode="k"/><glyph d="M205 215v1219h188v-1149q0 -84 32 -119t85 -35q33 0 63.5 4t73.5 17l25 -140q-20 -8 -49 -15t-60 -13.5t-61.5 -9.5t-55.5 -3q-111 0 -176 56.5t-65 187.5z" horiz-adv-x="688" unicode="l"/><glyph d="M180 0v1075h129l37 -143h21q66 74 150.5 124t215.5 50q111 0 185.5 -47t113.5 -158q61 94 155.5 149.5t211.5 55.5q98 0 166.5 -22.5t111.5 -78t63.5 -149.5t20.5 -238v-618h-188v618q0 82 -9.5 141.5t-34 99.5t-68.5 59.5t-115 19.5q-117 0 -184.5 -61.5t-96.5 -184.5 v-692h-188v590q0 86 -8.5 151.5t-33 109.5t-68.5 65.5t-114 21.5q-109 0 -181.5 -60.5t-102.5 -154.5v-723h-189z" horiz-adv-x="1941" unicode="m"/><glyph d="M180 0v1075h131l37 -143h19q59 74 154 124t229 50q94 0 165.5 -21.5t119.5 -76t73 -145.5t25 -230v-633h-189v594q0 172 -55 258t-197 86q-125 0 -208 -64.5t-115 -164.5v-709h-189z" horiz-adv-x="1312" unicode="n"/><glyph d="M123 537q0 133 35 238.5t102.5 179t164.5 112.5t222 39q131 0 229.5 -43t164 -120t97 -180.5t31.5 -225.5q0 -131 -35.5 -235.5t-102 -178.5t-164 -113t-220.5 -39q-135 0 -233.5 43t-163 119t-96 179.5t-31.5 224.5zM324 537q0 -76 17 -149t56 -130t100.5 -92t151.5 -35 q319 0 320 406q0 80 -17.5 153.5t-55.5 130t-99.5 91t-147.5 34.5q-160 0 -242.5 -101t-82.5 -308z" horiz-adv-x="1292" unicode="o"/><glyph d="M180 -410v1485h127l37 -137h18q55 80 143.5 124t199.5 44q233 0 347.5 -130t114.5 -415q0 -135 -37.5 -244.5t-108.5 -186.5t-172 -118t-226 -41q-41 0 -75 3t-62.5 10.5t-57.5 16.5t-59 22v-433h-189zM369 201q47 -33 102 -51.5t141 -18.5q166 0 260.5 108.5t94.5 323.5 q0 174 -70 278.5t-235 104.5q-123 0 -193 -61.5t-100 -188.5v-495z" horiz-adv-x="1290" unicode="p"/><glyph d="M123 528q0 281 146.5 425.5t430.5 144.5q61 0 121 -6.5t113 -15.5t95 -20.5t71 -23.5v-1442h-187l-2 527h-22q-47 -70 -120 -108t-189 -38q-457 0 -457 557zM324 532q0 -90 15 -163.5t51 -126t92.5 -82t138.5 -29.5q123 0 191.5 61.5t98.5 184.5v520q-94 41 -245 41 q-166 0 -254 -100.5t-88 -305.5z" horiz-adv-x="1280" unicode="q"/><glyph d="M180 0v1075h131l37 -143h19q47 80 109.5 124t156.5 44q29 0 67.5 -5t77.5 -18l-37 -180l-67.5 18.5t-61.5 8.5q-109 0 -169 -55.5t-74 -139.5v-729h-189z" horiz-adv-x="778" unicode="r"/><glyph d="M111 59l53 164q57 -31 147 -61.5t183 -30.5q100 0 164.5 36t64.5 134q0 41 -19.5 68.5t-52.5 47t-76 34.5l-90 28q-59 16 -119.5 36t-108.5 53.5t-79 87t-31 135.5q0 160 95.5 237.5t267.5 77.5q129 0 217 -24.5t154 -53.5l-45 -160q-55 27 -132 52.5t-169 25.5 q-100 0 -149.5 -32.5t-49.5 -118.5q0 -35 18.5 -58.5t49 -41t71.5 -31t86 -25.5q61 -16 122.5 -37.5t113 -57.5t83 -91.5t31.5 -139.5q0 -152 -102 -247t-307 -95q-131 0 -228 26.5t-163 61.5z" horiz-adv-x="1021" unicode="s"/><glyph d="M49 915v160h182v217l189 49v-266h323v-160h-323v-548q0 -129 32.5 -182.5t112.5 -53.5q51 0 93 11.5t96 29.5l43 -133q-66 -29 -140.5 -48.5t-160.5 -19.5q-143 0 -204 78t-61 254v612h-182z" horiz-adv-x="829" unicode="t"/><glyph d="M180 440v635h189v-592q0 -86 10 -151.5t36.5 -109.5t73 -67.5t117.5 -23.5q123 0 201 69.5t119 172.5v702h188v-770q0 -78 6 -158.5t19 -146.5h-127l-49 178h-21q-53 -92 -147.5 -149.5t-235.5 -57.5q-94 0 -164.5 22.5t-119 77t-72 144.5t-23.5 225z" horiz-adv-x="1318" unicode="u"/><glyph d="M0 1075h221l275 -618l71 -221l68 225l256 614h205l-502 -1098h-82z" horiz-adv-x="1095" unicode="v"/><glyph d="M16 1075h207l228 -608l38 -215h19l57 219l248 604h145l177 -407l88 -207l55 -207h14l47 213l201 608h180l-391 -1098h-102l-301 695v-2l-54 198l-61 -200v2l-289 -693h-98z" horiz-adv-x="1720" unicode="w"/><glyph d="M61 0l416 551l-387 524h240l209 -274l71 -146l84 146l217 274h213l-391 -516l209 -278l209 -281h-233l-236 305l-82 154l-84 -154l-237 -305h-218z" horiz-adv-x="1212" unicode="x"/><glyph d="M16 1075h224l274 -680l64 -207h26l51 209l224 678h192l-352 -973l-79 -194q-40 -94 -88 -167t-106.5 -117t-134.5 -44q-82 0 -139 19l31 159q31 -10 61 -10q41 0 75 10.5t62.5 37t52 74.5t44.5 124z" horiz-adv-x="1087" unicode="y"/><glyph d="M98 0v162l531 647l143 106h-674v160h846v-162l-536 -653l-144 -100h680v-160h-846z" horiz-adv-x="1054" unicode="z"/><glyph d="M121 403v156q86 0 132 42t46 132v477q0 98 53.5 162t161.5 64h205v-164h-115q-117 0 -117 -127v-459q0 -90 -48 -136t-109 -56v-17q59 -8 108 -61.5t49 -139.5v-456q0 -63 28 -95t91 -32h113v-164h-205q-100 0 -157.5 57.5t-57.5 165.5v469q0 104 -46 143t-132 39z" horiz-adv-x="784" unicode="{"/><glyph d="M182 -266v1700h164v-1700h-164z" horiz-adv-x="528" unicode="|"/><glyph d="M121 -307h112q117 0 117 127v459q0 90 48 136t108 56v16q-59 8 -107.5 61.5t-48.5 139.5v457q0 127 -119 127h-110v164h201q100 0 158.5 -57.5t58.5 -166.5v-469q0 -104 47 -143t133 -39v-155q-86 0 -133 -42t-47 -133v-477q0 -98 -54.5 -161.5t-165.5 -63.5h-198v164z" horiz-adv-x="784" unicode="}"/><glyph d="M70 748q98 70 176 96t143 26q63 0 116.5 -17t103.5 -37.5t97.5 -38t98.5 -17.5q41 0 86 15.5t98 55.5l76 -145q-84 -53 -149.5 -74.5t-120.5 -21.5q-59 0 -109.5 17.5t-98.5 39t-95.5 40t-102.5 18.5q-51 0 -110.5 -23t-135.5 -78z" horiz-adv-x="1134" unicode="~"/><glyph d="M156 948q0 59 37.5 94t99.5 35q61 0 99 -34.5t38 -94.5q0 -55 -38 -92t-99 -37t-99 37t-38 92zM195 293l41 354h122l41 -354v-703h-204v703z" horiz-adv-x="673" unicode="¡"/><glyph d="M180 535q0 250 113 394t328 169v192h161v-190q78 -4 140.5 -19.5t115.5 -38.5l-55 -155q-49 25 -105.5 37t-111.5 16v-811q70 4 131 26.5t109 49.5l53 -135q-55 -33 -127 -56.5t-150 -33.5v-199h-161v194q-119 8 -203 53.5t-136.5 118t-77 171t-24.5 217.5zM365 535 q0 -68 14 -133.5t48 -119t86 -93t130 -54.5v801q-278 -36 -278 -401z" unicode="¢"/><glyph d="M90 0v172h4q70 2 121 24.5t84 58.5t48 82t15 95q0 57 -12 104.5t-28 88.5h-232v163h148q-27 53 -45.5 114t-18.5 145q0 100 34 176.5t95.5 129t148.5 80t195 27.5q137 0 240.5 -22.5t169.5 -51.5l-62 -174q-47 25 -134 48.5t-212 23.5q-129 0 -199.5 -64.5t-70.5 -166.5 q0 -80 24.5 -142.5t55.5 -122.5h350v-163h-272q12 -39 20 -82t8 -92q0 -61 -21.5 -125t-62.5 -107l-82 -65v-11l131 29h568v-172h-1008z" unicode="£"/><glyph d="M82 297l158 160l69 41q-61 90 -61 209q0 59 16.5 111t44.5 100l-69 40l-158 160l111 115l159 -158l43 -71q43 33 97.5 48t115.5 15q125 0 211 -63l45 71l160 158l111 -115l-158 -160l-72 -43q63 -88 64 -208q0 -61 -15.5 -114.5t-48.5 -94.5l72 -41l158 -160l-111 -115 l-160 158l-43 70q-41 -29 -97 -46.5t-116 -17.5q-125 0 -213 64l-43 -70l-159 -158zM408 707q0 -90 55 -149.5t145 -59.5q88 0 144.5 59t56.5 150q0 88 -56.5 148t-144.5 60q-90 0 -145 -60t-55 -148z" unicode="¤"/><glyph d="M-8 1434h239l359 -609l35 -131h4l39 135l342 605h217l-443 -756h211v-135h-278v-150h278v-135h-278v-258h-205v258h-279v135h279v150h-279v135h209z" unicode="¥"/><glyph d="M182 -266v692h164v-692h-164zM182 741v693h164v-693h-164z" horiz-adv-x="528" unicode="¦"/><glyph d="M131 723q0 63 34 122.5t89 106.5l90 29q-57 31 -93 82t-36 133q0 117 92 190.5t260 73.5q127 0 215 -20.5t150 -48.5l-49 -158q-49 23 -126 43t-161 20q-98 0 -143 -30.5t-45 -83.5q0 -49 44 -76t110.5 -47.5t143 -41t143 -56t111 -95t44.5 -155.5q0 -63 -33 -121 t-88 -105l-103 -28q61 -33 100.5 -84t39.5 -135q0 -66 -27 -115t-75 -83t-112.5 -50.5t-138.5 -16.5q-135 0 -220 25t-146 53l49 154q53 -23 124.5 -45.5t164.5 -22.5q88 0 138 25.5t50 89.5q0 51 -44 78.5t-110.5 48t-143.5 41t-143.5 56.5t-110.5 93.5t-44 153.5zM326 727 q0 -49 26.5 -81t71.5 -52.5t103 -36.5l120 -35q29 12 57.5 30.5t52 43.5t38 52.5t14.5 58.5q0 49 -28.5 80.5t-75 53t-105.5 38t-123 36.5q-61 -27 -106 -73.5t-45 -114.5z" horiz-adv-x="1134" unicode="§"/><glyph d="M123 1337q0 49 32.5 82t86.5 33q51 0 82.5 -33t31.5 -82q0 -47 -31.5 -79.5t-82.5 -32.5q-53 0 -86 32.5t-33 79.5zM563 1337q0 49 32 82t85 33t85 -33t32 -82q0 -47 -32 -79.5t-85 -32.5t-85 32.5t-32 79.5z" horiz-adv-x="919" unicode="¨"/><glyph d="M109 590q0 182 61 327.5t166.5 246t248 153.5t304.5 53t303 -53t247.5 -153.5t168 -246t61.5 -327.5t-61.5 -327.5t-168 -246t-247.5 -153.5t-303 -53q-178 0 -321.5 53t-246 153.5t-157.5 246t-55 327.5zM276 590q0 -150 47.5 -265.5t130.5 -194.5t194.5 -120t240.5 -41 t240.5 41t194.5 120t130 194.5t47 265.5t-47 265.5t-130 194t-194.5 119.5t-240.5 41t-240.5 -41t-194.5 -119.5t-130.5 -194t-47.5 -265.5zM518 590q0 201 99.5 309.5t265.5 108.5q41 0 72.5 -4.5t60 -12.5t56.5 -19l61 -26l-60 -141q-47 23 -88 33t-74 10 q-86 0 -142 -55.5t-56 -202.5q0 -121 54 -189.5t161 -68.5q53 0 94 10t76 29l49 -138q-49 -29 -114.5 -45t-149.5 -16q-178 0 -271.5 112.5t-93.5 305.5z" horiz-adv-x="1777" unicode="©"/><glyph d="M115 967q0 63 32.5 106t91 69.5t135.5 39t167 12.5q16 0 30.5 -1t30.5 -1q8 74 -15.5 103.5t-111.5 29.5q-92 0 -167 -17.5t-115 -37.5l-33 112q55 29 150.5 48.5t209.5 19.5q143 0 196.5 -54.5t53.5 -158.5q0 -78 -3 -148.5t-3 -136.5q0 -47 3 -91t13 -83h-141l-29 99 h-8q-14 -16 -34.5 -36t-48 -35t-64.5 -25.5t-86 -10.5q-115 0 -184.5 53.5t-69.5 143.5zM287 981q0 -39 30.5 -60.5t83.5 -21.5q47 0 82 10.5t58.5 26.5t38 35.5t22.5 38.5v69q-25 2 -49.5 3t-48.5 1q-43 0 -83 -4t-69.5 -16t-47 -31.5t-17.5 -50.5z" horiz-adv-x="894" unicode="ª"/><glyph d="M82 530l360 471l123 -106l-209 -279l-108 -84l108 -73l224 -273l-125 -108zM496 532l356 461l119 -104l-207 -275l-107 -82l107 -73l219 -271l-119 -102z" horiz-adv-x="1073" unicode="«"/><glyph d="M92 643v172h957v-412h-177v240h-780z" horiz-adv-x="1134" unicode="¬"/><glyph d="M131 680h545v-176h-545v176z" horiz-adv-x="806" unicode="­"/><glyph d="M176 885q0 143 47 253.5t128 185.5t188.5 114t228.5 39q125 0 232.5 -39t187.5 -114t126 -185.5t46 -253.5t-47 -253t-128 -184.5t-188.5 -113.5t-228.5 -39q-123 0 -231.5 39t-188.5 113.5t-126 184.5t-46 253zM328 885q0 -113 35.5 -197t95 -139t139.5 -83t170 -28 q94 0 175 27t139.5 82t92 139t33.5 199q0 113 -34.5 196.5t-95 140t-140.5 84t-170 27.5q-96 0 -177 -28.5t-139.5 -85t-91 -140t-32.5 -194.5zM543 602v569q35 10 99.5 16.5t119.5 6.5q45 0 86 -9t71.5 -29.5t49 -53.5t18.5 -80q0 -70 -46 -107.5t-112 -42.5l64 -30 l158 -240h-136l-153 229l-107 33v-262h-112zM655 930h76q66 0 100.5 20.5t34.5 67.5q0 37 -33.5 57.5t-95.5 20.5q-23 0 -45 -1t-37 -10v-155z" horiz-adv-x="1538" unicode="®"/><glyph d="M123 1223v141h672v-141h-672z" horiz-adv-x="917" unicode="¯"/><glyph d="M184 1159q0 66 27 121t71 95t102 62.5t124 22.5t125 -20.5t103 -59.5t71 -95t27 -126t-27 -125t-71 -94t-103.5 -59.5t-124.5 -20.5q-66 0 -124 20.5t-102 59.5t-71 94t-27 125zM338 1159q0 -74 52 -113.5t118 -39.5q33 0 63.5 10t55 29.5t39 48t14.5 65.5t-14.5 65.5 t-39 49t-55 31t-63.5 10.5q-66 0 -118 -41t-52 -115z" horiz-adv-x="956" unicode="°"/><glyph d="M88 344v172h959v-172h-959zM88 877v172h391v383h176v-383h392v-172h-392v-256h-176v256h-391z" horiz-adv-x="1134" unicode="±"/><glyph d="M113 864q51 37 126.5 98.5t145.5 133t120 145.5t50 137q0 61 -42 91t-107 30q-61 0 -118 -21.5t-98 -45.5l-55 135q61 41 140 63.5t161 22.5q141 0 216 -66.5t75 -183.5q0 -61 -21.5 -116.5t-59.5 -109t-89 -105.5l-108 -105l-103 -62v-4l129 27h295v-150h-657v86z" horiz-adv-x="892" unicode="²"/><glyph d="M147 807l37 139q39 -16 87 -28.5t108 -12.5q219 0 219 141q0 61 -50 99.5t-167 38.5h-117v53l207 219l78 53l-113 -12h-284v141h583v-82l-225 -235l-59 -37v-6l53 6q125 -2 194.5 -66.5t69.5 -175.5q0 -131 -102.5 -204.5t-268.5 -73.5q-82 0 -142.5 13.5t-107.5 29.5z" horiz-adv-x="892" unicode="³"/><glyph d="M123 1167l131 308h213v-48l-229 -260h-115z" horiz-adv-x="589" unicode="´"/><glyph d="M162 -412v1487h188v-586q0 -180 58.5 -271t205.5 -91q135 0 227.5 79t127.5 206v663h188v-729q0 -86 5 -175t26 -171h-123l-68 176h-24q-25 -39 -62 -76t-84 -64.5t-106 -45t-127 -17.5q-109 0 -168 32t-102 83h-29l55 -246v-254h-188z" horiz-adv-x="1302" unicode="µ"/><glyph d="M162 -412v1487h188v-586q0 -180 58.5 -271t205.5 -91q135 0 227.5 79t127.5 206v663h188v-729q0 -86 5 -175t26 -171h-123l-68 176h-24q-25 -39 -62 -76t-84 -64.5t-106 -45t-127 -17.5q-109 0 -168 32t-102 83h-29l55 -246v-254h-188z" horiz-adv-x="1302" unicode="μ"/><glyph d="M82 1032q0 74 26.5 146.5t77 129t122 91.5t161.5 35h109v-1700h-164v895q-72 0 -132.5 34.5t-105.5 92t-69.5 130t-24.5 146.5zM770 -266v1700h164v-1700h-164z" horiz-adv-x="1118" unicode="¶"/><glyph d="M160 616q0 59 38 94t99 35t99 -34.5t38 -94.5q0 -55 -38 -92t-99 -37t-99 37t-38 92z" horiz-adv-x="593" unicode="·"/><glyph d="M137 -434l21 108q109 -29 155.5 -11t46.5 52q0 35 -52 54.5t-150 29.5l110 185h125l-55 -93q100 -16 148.5 -53t48.5 -104q0 -86 -73 -138.5t-186 -52.5q-47 0 -78.5 8.5t-60.5 14.5z" horiz-adv-x="665" unicode="¸"/><glyph d="M119 1442l344 211h108v-727h209v-148h-616v148h235v475l17 78l-62 -60l-170 -98z" horiz-adv-x="892" unicode="¹"/><glyph d="M102 1110q0 90 27 155.5t74 108.5t111.5 63.5t140.5 20.5t140 -19.5t112.5 -60.5t75 -107.5t26.5 -160.5t-26.5 -160.5t-75 -107.5t-113 -60.5t-139.5 -19.5q-76 0 -140.5 19.5t-111.5 60.5t-74 107.5t-27 160.5zM283 1110q0 -111 44 -163t128 -52q82 0 128 47t46 168 q0 123 -45 169t-129 46q-82 0 -127 -46t-45 -169z" horiz-adv-x="911" unicode="º"/><glyph d="M90 889l117 104l368 -446l-354 -461l-119 104l205 275l107 82l-107 74zM494 893l122 108l373 -452l-358 -471l-125 108l211 277l106 84l-106 74z" horiz-adv-x="1071" unicode="»"/><glyph d="M330 66l1073 1396l123 -88l-1073 -1401zM960 189v92l506 612h113v-567h184v-137h-184v-189h-160v189h-459zM1138 314l115 12h166v246l14 98h-6l-49 -92l-164 -199zM80 1235l346 213h106v-875h-170v621l17 80l-62 -57l-170 -101z" horiz-adv-x="1888" unicode="¼"/><glyph d="M330 66l1073 1396l123 -88l-1073 -1401zM1133 86q51 37 126.5 98.5t145.5 133t120 145.5t50 137q0 61 -42 91t-107 30q-61 0 -118 -21.5t-98 -45.5l-55 135q61 41 140 63.5t161 22.5q141 0 216 -66.5t75 -183.5q0 -61 -21.5 -116.5t-59.5 -109t-89 -105.5l-108 -105 l-103 -62v-4l129 27h295v-150h-657v86zM80 1235l346 213h106v-875h-170v621l17 80l-62 -57l-170 -101z" horiz-adv-x="1914" unicode="½"/><glyph d="M412 66l1073 1396l123 -88l-1073 -1401zM1042 189v92l506 612h113v-567h184v-137h-184v-189h-160v189h-459zM1220 314l115 12h166v246l14 98h-6l-49 -92l-164 -199zM124 602l37 139q39 -16 87 -28.5t108 -12.5q219 0 219 141q0 61 -50 99.5t-167 38.5h-117v53l207 219 l78 53l-113 -12h-284v141h583v-82l-225 -235l-59 -37v-6l53 6q125 -2 194.5 -66.5t69.5 -175.5q0 -131 -102.5 -204.5t-268.5 -73.5q-82 0 -142.5 13.5t-107.5 29.5z" horiz-adv-x="1970" unicode="¾"/><glyph d="M78 -92q0 96 30.5 165.5t75.5 123t99.5 98.5t99.5 95t75.5 111.5t30.5 147.5h162q8 -100 -15.5 -171.5t-64.5 -128t-91 -102.5t-94 -92t-73.5 -97.5t-29.5 -120.5q0 -92 54 -147.5t189 -55.5q39 0 82 8t83 22.5t77 31t68 34.5l69 -145q-86 -53 -183 -84t-241 -31 q-98 0 -174 25.5t-127 70.5t-76.5 106.5t-25.5 135.5zM422 948q0 59 38 94t99 35t99 -34.5t38 -94.5q0 -55 -37.5 -92t-99.5 -37q-61 0 -99 37t-38 92z" horiz-adv-x="978" unicode="¿"/><glyph d="M16 0l590 1454h107l592 -1454h-213l-156 375h-567l-152 -375h-201zM430 547h447l-166 407l-56 220h-4l-55 -224zM246 1735v47h270l260 -242h-176z" horiz-adv-x="1320" unicode="À"/><glyph d="M16 0l590 1454h107l592 -1454h-213l-156 375h-567l-152 -375h-201zM430 547h447l-166 407l-56 220h-4l-55 -224zM543 1540l260 242h270v-47l-364 -195h-166z" horiz-adv-x="1320" unicode="Á"/><glyph d="M16 0l590 1454h107l592 -1454h-213l-156 375h-567l-152 -375h-201zM430 547h447l-166 407l-56 220h-4l-55 -224zM293 1526v53l299 203h149l285 -205v-51h-188l-133 96l-41 72l-43 -70l-144 -98h-184z" horiz-adv-x="1320" unicode="Â"/><glyph d="M16 0l590 1454h107l592 -1454h-213l-156 375h-567l-152 -375h-201zM430 547h447l-166 407l-56 220h-4l-55 -224zM301 1620q66 66 125 89.5t112 23.5q43 0 85 -11.5t81 -25t76 -24.5t74 -11q29 0 58.5 10t58.5 35l51 -104q-59 -49 -111.5 -67.5t-101.5 -18.5q-43 0 -84 10 t-80 23.5t-76 23.5t-74 10q-35 0 -71.5 -13.5t-73.5 -49.5z" horiz-adv-x="1320" unicode="Ã"/><glyph d="M16 0l590 1454h107l592 -1454h-213l-156 375h-567l-152 -375h-201zM430 547h447l-166 407l-56 220h-4l-55 -224zM311 1628q0 47 33.5 74t93.5 27q57 0 92 -27t35 -74q0 -45 -35 -72.5t-92 -27.5q-59 0 -93 27.5t-34 72.5zM749 1628q0 47 34 74t91 27q59 0 94 -27t35 -74 q0 -45 -35 -72.5t-94 -27.5q-57 0 -91 27.5t-34 72.5z" horiz-adv-x="1320" unicode="Ä"/><glyph d="M16 0l572 1407q-45 8 -88 27q-20 10 -50 42.5t-30 98.5q0 76 55 126t187 50q119 0 181 -45t62 -131q0 -63 -30.5 -96t-59.5 -45q-35 -18 -84 -27l574 -1407h-213l-156 375h-567l-152 -375h-201zM430 547h447l-166 407l-56 220h-4l-55 -224zM563 1575q0 -31 22.5 -53.5 t76.5 -22.5q100 0 100 76q0 37 -24.5 58.5t-75.5 21.5t-75 -21.5t-24 -58.5z" horiz-adv-x="1320" unicode="Å"/><glyph d="M-51 0l934 1434h870v-177h-661v-436h604v-176h-604v-469h671v-176h-876v387h-471l-246 -387h-221zM522 559h365v651h-8l-78 -217z" horiz-adv-x="1902" unicode="Æ"/><glyph d="M119 717q0 201 61.5 342t159.5 230t221 130t244 41q135 0 221 -14t145 -37l-45 -176q-100 47 -305 47q-92 0 -179 -29.5t-155.5 -96.5t-109.5 -174.5t-41 -262.5q0 -139 39 -243.5t107.5 -175.5t161.5 -106.5t204 -35.5q100 0 174 17t125 46l49 -158q-57 -41 -138 -60 t-175 -26l-49 -84q100 -16 148 -53t48 -104q0 -86 -75.5 -138.5t-211.5 -52.5q-27 0 -54 2t-56 9l18 73q72 -4 113 2t61.5 20.5t25.5 32t5 33.5q0 35 -52 54.5t-151 29.5l105 176q-131 6 -247 53.5t-203 139.5t-138 228.5t-51 320.5z" horiz-adv-x="1277" unicode="Ç"/><glyph d="M182 0v1434h867v-177h-662v-436h604v-176h-604v-469h672v-176h-877zM209 1735v47h270l260 -242h-176z" horiz-adv-x="1198" unicode="È"/><glyph d="M182 0v1434h867v-177h-662v-436h604v-176h-604v-469h672v-176h-877zM469 1540l260 242h270v-47l-364 -195h-166z" horiz-adv-x="1198" unicode="É"/><glyph d="M182 0v1434h867v-177h-662v-436h604v-176h-604v-469h672v-176h-877zM236 1526v53l299 203h149l285 -205v-51h-188l-133 96l-41 72l-43 -70l-144 -98h-184z" horiz-adv-x="1198" unicode="Ê"/><glyph d="M182 0v1434h867v-177h-662v-436h604v-176h-604v-469h672v-176h-877zM256 1628q0 47 33.5 74t93.5 27q57 0 92 -27t35 -74q0 -45 -35 -72.5t-92 -27.5q-59 0 -93 27.5t-34 72.5zM694 1628q0 47 34 74t91 27q59 0 94 -27t35 -74q0 -45 -35 -72.5t-94 -27.5q-57 0 -91 27.5 t-34 72.5z" horiz-adv-x="1198" unicode="Ë"/><glyph d="M141 0v135h164v1163h-164v136h533v-136h-164v-1163h164v-135h-533zM55 1735v47h270l260 -242h-176z" horiz-adv-x="815" unicode="Ì"/><glyph d="M141 0v135h164v1163h-164v136h533v-136h-164v-1163h164v-135h-533zM258 1540l260 242h270v-47l-364 -195h-166z" horiz-adv-x="815" unicode="Í"/><glyph d="M141 0v135h164v1163h-164v136h533v-136h-164v-1163h164v-135h-533zM41 1526v53l299 203h149l285 -205v-51h-188l-133 96l-41 72l-43 -70l-144 -98h-184z" horiz-adv-x="815" unicode="Î"/><glyph d="M141 0v135h164v1163h-164v136h533v-136h-164v-1163h164v-135h-533zM64 1628q0 47 33.5 74t93.5 27q57 0 92 -27t35 -74q0 -45 -35 -72.5t-92 -27.5q-59 0 -93 27.5t-34 72.5zM502 1628q0 47 34 74t91 27q59 0 94 -27t35 -74q0 -45 -35 -72.5t-94 -27.5q-57 0 -91 27.5 t-34 72.5z" horiz-adv-x="815" unicode="Ï"/><glyph d="M0 672v135h199v627q41 6 95 9t112.5 5t115 3t103.5 1q188 0 326.5 -54.5t229.5 -150.5t136 -229t45 -291q0 -143 -42 -277.5t-134 -239t-236.5 -167.5t-349.5 -63q-35 0 -93 2l-120 4q-61 2 -113.5 5t-74.5 7v674h-199zM403 168q10 -2 40 -3t63 -2t61.5 -2t40.5 -1 q154 0 257.5 48t166 128t88 181t25.5 210q0 92 -24.5 188.5t-84 175t-158 130t-247.5 51.5h-62q-33 0 -65.5 -2t-59 -4t-41.5 -4v-455h328v-135h-328v-504z" horiz-adv-x="1480" unicode="Ð"/><glyph d="M182 0v1454h115l731 -930l117 -190h10l-25 190v910h193v-1454h-115l-727 931l-123 201h-8l25 -201v-911h-193zM389 1620q66 66 125 89.5t112 23.5q43 0 85 -11.5t81 -25t76 -24.5t74 -11q29 0 58.5 10t58.5 35l51 -104q-59 -49 -111.5 -67.5t-101.5 -18.5q-43 0 -84 10 t-80 23.5t-76 23.5t-74 10q-35 0 -71.5 -13.5t-73.5 -49.5z" horiz-adv-x="1505" unicode="Ñ"/><glyph d="M119 717q0 176 44 314t127 233.5t202.5 145.5t271.5 50q162 0 283.5 -54t202.5 -151.5t121 -234.5t40 -303q0 -176 -44 -314.5t-128 -233.5t-204 -145.5t-271 -50.5q-164 0 -285 54.5t-200.5 151.5t-119.5 234.5t-40 303.5zM336 717q0 -117 25.5 -219.5t78 -180 t133 -122.5t191.5 -45q199 0 314.5 137t115.5 430q0 115 -25.5 217t-78 180t-133 124t-193.5 46q-197 0 -312.5 -139t-115.5 -428zM389 1735v47h270l260 -242h-176z" horiz-adv-x="1529" unicode="Ò"/><glyph d="M119 717q0 176 44 314t127 233.5t202.5 145.5t271.5 50q162 0 283.5 -54t202.5 -151.5t121 -234.5t40 -303q0 -176 -44 -314.5t-128 -233.5t-204 -145.5t-271 -50.5q-164 0 -285 54.5t-200.5 151.5t-119.5 234.5t-40 303.5zM336 717q0 -117 25.5 -219.5t78 -180 t133 -122.5t191.5 -45q199 0 314.5 137t115.5 430q0 115 -25.5 217t-78 180t-133 124t-193.5 46q-197 0 -312.5 -139t-115.5 -428zM649 1540l260 242h270v-47l-364 -195h-166z" horiz-adv-x="1529" unicode="Ó"/><glyph d="M119 717q0 176 44 314t127 233.5t202.5 145.5t271.5 50q162 0 283.5 -54t202.5 -151.5t121 -234.5t40 -303q0 -176 -44 -314.5t-128 -233.5t-204 -145.5t-271 -50.5q-164 0 -285 54.5t-200.5 151.5t-119.5 234.5t-40 303.5zM336 717q0 -117 25.5 -219.5t78 -180 t133 -122.5t191.5 -45q199 0 314.5 137t115.5 430q0 115 -25.5 217t-78 180t-133 124t-193.5 46q-197 0 -312.5 -139t-115.5 -428zM393 1526v53l299 203h149l285 -205v-51h-188l-133 96l-41 72l-43 -70l-144 -98h-184z" horiz-adv-x="1529" unicode="Ô"/><glyph d="M119 717q0 176 44 314t127 233.5t202.5 145.5t271.5 50q162 0 283.5 -54t202.5 -151.5t121 -234.5t40 -303q0 -176 -44 -314.5t-128 -233.5t-204 -145.5t-271 -50.5q-164 0 -285 54.5t-200.5 151.5t-119.5 234.5t-40 303.5zM336 717q0 -117 25.5 -219.5t78 -180 t133 -122.5t191.5 -45q199 0 314.5 137t115.5 430q0 115 -25.5 217t-78 180t-133 124t-193.5 46q-197 0 -312.5 -139t-115.5 -428zM399 1620q66 66 125 89.5t112 23.5q43 0 85 -11.5t81 -25t76 -24.5t74 -11q29 0 58.5 10t58.5 35l51 -104q-59 -49 -111.5 -67.5 t-101.5 -18.5q-43 0 -84 10t-80 23.5t-76 23.5t-74 10q-35 0 -71.5 -13.5t-73.5 -49.5z" horiz-adv-x="1529" unicode="Õ"/><glyph d="M119 717q0 176 44 314t127 233.5t202.5 145.5t271.5 50q162 0 283.5 -54t202.5 -151.5t121 -234.5t40 -303q0 -176 -44 -314.5t-128 -233.5t-204 -145.5t-271 -50.5q-164 0 -285 54.5t-200.5 151.5t-119.5 234.5t-40 303.5zM336 717q0 -117 25.5 -219.5t78 -180 t133 -122.5t191.5 -45q199 0 314.5 137t115.5 430q0 115 -25.5 217t-78 180t-133 124t-193.5 46q-197 0 -312.5 -139t-115.5 -428zM416 1628q0 47 33.5 74t93.5 27q57 0 92 -27t35 -74q0 -45 -35 -72.5t-92 -27.5q-59 0 -93 27.5t-34 72.5zM854 1628q0 47 34 74t91 27 q59 0 94 -27t35 -74q0 -45 -35 -72.5t-94 -27.5q-57 0 -91 27.5t-34 72.5z" horiz-adv-x="1529" unicode="Ö"/><glyph d="M164 432l280 262l-276 254l119 129l282 -266l285 266l119 -129l-279 -254l279 -258l-119 -127l-285 266l-284 -268z" horiz-adv-x="1134" unicode="×"/><glyph d="M119 717q0 176 44 314t127 233.5t202.5 145.5t271.5 50q121 0 217 -29.5t172 -84.5l90 116l125 -88l-104 -137q74 -98 110.5 -229t36.5 -291q0 -176 -44 -314.5t-128 -233.5t-204 -145.5t-271 -50.5q-231 0 -381 107l-82 -107l-125 93l94 122q-78 98 -114.5 232.5 t-36.5 296.5zM336 717q0 -98 17.5 -186.5t54.5 -159.5l622 813q-49 47 -115.5 73.5t-150.5 26.5q-197 0 -312.5 -139t-115.5 -428zM506 242q49 -43 113.5 -67.5t144.5 -24.5q199 0 314.5 137t115.5 430q0 94 -17.5 180t-52.5 158z" horiz-adv-x="1529" unicode="Ø"/><glyph d="M182 457v977h205v-899q0 -209 91 -291t270 -82q172 0 251.5 90t79.5 289v893h193v-936q0 -133 -38 -229.5t-107.5 -161t-165 -95t-211.5 -30.5q-276 0 -422 119.5t-146 355.5zM383 1735v47h270l260 -242h-176z" horiz-adv-x="1454" unicode="Ù"/><glyph d="M182 457v977h205v-899q0 -209 91 -291t270 -82q172 0 251.5 90t79.5 289v893h193v-936q0 -133 -38 -229.5t-107.5 -161t-165 -95t-211.5 -30.5q-276 0 -422 119.5t-146 355.5zM608 1540l260 242h270v-47l-364 -195h-166z" horiz-adv-x="1454" unicode="Ú"/><glyph d="M182 457v977h205v-899q0 -209 91 -291t270 -82q172 0 251.5 90t79.5 289v893h193v-936q0 -133 -38 -229.5t-107.5 -161t-165 -95t-211.5 -30.5q-276 0 -422 119.5t-146 355.5zM369 1526v53l299 203h149l285 -205v-51h-188l-133 96l-41 72l-43 -70l-144 -98h-184z" horiz-adv-x="1454" unicode="Û"/><glyph d="M182 457v977h205v-899q0 -209 91 -291t270 -82q172 0 251.5 90t79.5 289v893h193v-936q0 -133 -38 -229.5t-107.5 -161t-165 -95t-211.5 -30.5q-276 0 -422 119.5t-146 355.5zM387 1628q0 47 33.5 74t93.5 27q57 0 92 -27t35 -74q0 -45 -35 -72.5t-92 -27.5 q-59 0 -93 27.5t-34 72.5zM825 1628q0 47 34 74t91 27q59 0 94 -27t35 -74q0 -45 -35 -72.5t-94 -27.5q-57 0 -91 27.5t-34 72.5z" horiz-adv-x="1454" unicode="Ü"/><glyph d="M14 1434h240l358 -609l35 -131h4l39 135l342 605h217l-510 -871v-563h-204v561zM526 1540l260 242h270v-47l-364 -195h-166z" horiz-adv-x="1263" unicode="Ý"/><glyph d="M182 0v1434h205v-152q88 6 182 6q104 0 212 -18.5t196 -67.5t144.5 -136t56.5 -224q0 -129 -51.5 -220.5t-136.5 -148.5t-194.5 -84t-226.5 -27q-12 0 -38 2l-53 2q-28 1 -53.5 3t-37.5 4v-373h-205zM387 549q10 -4 33.5 -5t49.5 -3t49 -2h36q74 0 145.5 11t130 44 t94.5 92t36 154q0 82 -35 135t-90.5 84t-124 42t-136.5 11q-55 0 -107 -2t-81 -10v-551z" horiz-adv-x="1257" unicode="Þ"/><glyph d="M49 911v164h184v49q0 158 113 246t309 88q117 0 200 -24.5t135 -65.5t76 -95t24 -114q0 -63 -20.5 -109t-51.5 -80t-67 -59.5t-66.5 -50t-51 -51.5t-20.5 -61q0 -45 35 -71t88 -44.5t114.5 -36.5t115 -51t88 -87.5t34.5 -142.5q0 -63 -27.5 -124.5t-81 -110.5t-132 -79 t-181.5 -30q-53 0 -95 4.5t-75.5 13.5t-64.5 21.5t-62 30.5l54 149q27 -14 53 -25t55 -18.5t63.5 -11.5t79.5 -4q39 0 79 11.5t72 33t51.5 51t19.5 66.5q0 61 -35 96t-88 56.5t-114.5 38t-115 45t-88 74.5t-34.5 128q0 61 20.5 103.5t51 75t67.5 58t67.5 51t51 56.5t20.5 74 q0 29 -11 55.5t-39 47t-74 32.5t-113 12q-131 0 -184.5 -50t-53.5 -179v-1067h-191v911h-184z" horiz-adv-x="1386" unicode="ß"/><glyph d="M92 287q0 92 40 159.5t103.5 110.5t144.5 63.5t161 20.5q63 0 107 -2t74 -5t50.5 -6t36.5 -5q4 31 6 53t2 57q0 57 -12 96t-40 62.5t-75 34t-115 10.5q-39 0 -86 -6t-94 -17.5t-93 -28t-83 -34.5l-51 158q184 88 457 88q123 0 197.5 -32t115.5 -81t54.5 -109.5 t13.5 -119.5q0 -113 -8.5 -226.5t-8.5 -246.5q0 -78 7.5 -151t23.5 -134h-137l-52 164h-20q-23 -31 -55.5 -62.5t-77.5 -56.5t-103.5 -41t-134.5 -16t-139 21.5t-109.5 60t-73 95t-26.5 126.5zM293 307q0 -82 58.5 -123t150.5 -41q68 0 120 17.5t90 43t61.5 57.5t35.5 63 v163q-16 2 -34.5 6.5t-46.5 6.5t-65.5 4t-93.5 2q-127 0 -201.5 -45t-74.5 -154zM330 1427v48h225l146 -308h-111z" horiz-adv-x="1191" unicode="à"/><glyph d="M92 287q0 92 40 159.5t103.5 110.5t144.5 63.5t161 20.5q63 0 107 -2t74 -5t50.5 -6t36.5 -5q4 31 6 53t2 57q0 57 -12 96t-40 62.5t-75 34t-115 10.5q-39 0 -86 -6t-94 -17.5t-93 -28t-83 -34.5l-51 158q184 88 457 88q123 0 197.5 -32t115.5 -81t54.5 -109.5 t13.5 -119.5q0 -113 -8.5 -226.5t-8.5 -246.5q0 -78 7.5 -151t23.5 -134h-137l-52 164h-20q-23 -31 -55.5 -62.5t-77.5 -56.5t-103.5 -41t-134.5 -16t-139 21.5t-109.5 60t-73 95t-26.5 126.5zM293 307q0 -82 58.5 -123t150.5 -41q68 0 120 17.5t90 43t61.5 57.5t35.5 63 v163q-16 2 -34.5 6.5t-46.5 6.5t-65.5 4t-93.5 2q-127 0 -201.5 -45t-74.5 -154zM416 1167l131 308h213v-48l-229 -260h-115z" horiz-adv-x="1191" unicode="á"/><glyph d="M92 287q0 92 40 159.5t103.5 110.5t144.5 63.5t161 20.5q63 0 107 -2t74 -5t50.5 -6t36.5 -5q4 31 6 53t2 57q0 57 -12 96t-40 62.5t-75 34t-115 10.5q-39 0 -86 -6t-94 -17.5t-93 -28t-83 -34.5l-51 158q184 88 457 88q123 0 197.5 -32t115.5 -81t54.5 -109.5 t13.5 -119.5q0 -113 -8.5 -226.5t-8.5 -246.5q0 -78 7.5 -151t23.5 -134h-137l-52 164h-20q-23 -31 -55.5 -62.5t-77.5 -56.5t-103.5 -41t-134.5 -16t-139 21.5t-109.5 60t-73 95t-26.5 126.5zM293 307q0 -82 58.5 -123t150.5 -41q68 0 120 17.5t90 43t61.5 57.5t35.5 63 v163q-16 2 -34.5 6.5t-46.5 6.5t-65.5 4t-93.5 2q-127 0 -201.5 -45t-74.5 -154zM276 1200l287 383h84l129 -192l127 -191h-164l-92 141l-53 146l-64 -146l-98 -141h-156z" horiz-adv-x="1191" unicode="â"/><glyph d="M92 287q0 92 40 159.5t103.5 110.5t144.5 63.5t161 20.5q63 0 107 -2t74 -5t50.5 -6t36.5 -5q4 31 6 53t2 57q0 57 -12 96t-40 62.5t-75 34t-115 10.5q-39 0 -86 -6t-94 -17.5t-93 -28t-83 -34.5l-51 158q184 88 457 88q123 0 197.5 -32t115.5 -81t54.5 -109.5 t13.5 -119.5q0 -113 -8.5 -226.5t-8.5 -246.5q0 -78 7.5 -151t23.5 -134h-137l-52 164h-20q-23 -31 -55.5 -62.5t-77.5 -56.5t-103.5 -41t-134.5 -16t-139 21.5t-109.5 60t-73 95t-26.5 126.5zM293 307q0 -82 58.5 -123t150.5 -41q68 0 120 17.5t90 43t61.5 57.5t35.5 63 v163q-16 2 -34.5 6.5t-46.5 6.5t-65.5 4t-93.5 2q-127 0 -201.5 -45t-74.5 -154zM264 1425q66 72 119 97.5t100 25.5q37 0 71 -13t67.5 -30.5t67.5 -31t73 -13.5q51 0 110 49l46 -98q-55 -57 -103.5 -80.5t-89.5 -23.5q-39 0 -74 14t-68.5 30.5t-68.5 31t-74 14.5 q-33 0 -64.5 -12.5t-70.5 -49.5z" horiz-adv-x="1191" unicode="ã"/><glyph d="M92 287q0 92 40 159.5t103.5 110.5t144.5 63.5t161 20.5q63 0 107 -2t74 -5t50.5 -6t36.5 -5q4 31 6 53t2 57q0 57 -12 96t-40 62.5t-75 34t-115 10.5q-39 0 -86 -6t-94 -17.5t-93 -28t-83 -34.5l-51 158q184 88 457 88q123 0 197.5 -32t115.5 -81t54.5 -109.5 t13.5 -119.5q0 -113 -8.5 -226.5t-8.5 -246.5q0 -78 7.5 -151t23.5 -134h-137l-52 164h-20q-23 -31 -55.5 -62.5t-77.5 -56.5t-103.5 -41t-134.5 -16t-139 21.5t-109.5 60t-73 95t-26.5 126.5zM293 307q0 -82 58.5 -123t150.5 -41q68 0 120 17.5t90 43t61.5 57.5t35.5 63 v163q-16 2 -34.5 6.5t-46.5 6.5t-65.5 4t-93.5 2q-127 0 -201.5 -45t-74.5 -154zM227 1337q0 49 32.5 82t86.5 33q51 0 82.5 -33t31.5 -82q0 -47 -31.5 -79.5t-82.5 -32.5q-53 0 -86 32.5t-33 79.5zM667 1337q0 49 32 82t85 33t85 -33t32 -82q0 -47 -32 -79.5t-85 -32.5 t-85 32.5t-32 79.5z" horiz-adv-x="1191" unicode="ä"/><glyph d="M92 287q0 92 40 159.5t103.5 110.5t144.5 63.5t161 20.5q63 0 107 -2t74 -5t50.5 -6t36.5 -5q4 31 6 53t2 57q0 57 -12 96t-40 62.5t-75 34t-115 10.5q-39 0 -86 -6t-94 -17.5t-93 -28t-83 -34.5l-51 158q184 88 457 88q123 0 197.5 -32t115.5 -81t54.5 -109.5 t13.5 -119.5q0 -113 -8.5 -226.5t-8.5 -246.5q0 -78 7.5 -151t23.5 -134h-137l-52 164h-20q-23 -31 -55.5 -62.5t-77.5 -56.5t-103.5 -41t-134.5 -16t-139 21.5t-109.5 60t-73 95t-26.5 126.5zM293 307q0 -82 58.5 -123t150.5 -41q68 0 120 17.5t90 43t61.5 57.5t35.5 63 v163q-16 2 -34.5 6.5t-46.5 6.5t-65.5 4t-93.5 2q-127 0 -201.5 -45t-74.5 -154zM366 1399q0 86 59.5 140t163.5 54q98 0 165 -48t67 -146q0 -41 -17.5 -76t-48 -60.5t-73.5 -41t-93 -15.5q-98 0 -160.5 50.5t-62.5 142.5zM483 1399q0 -41 34 -66.5t72 -25.5q47 0 81 22.5 t34 69.5t-34.5 70.5t-80.5 23.5q-41 0 -73.5 -22.5t-32.5 -71.5z" horiz-adv-x="1191" unicode="å"/><glyph d="M92 285q0 92 42 155.5t119 101.5t184.5 55t236.5 17q31 0 68.5 -1t72.5 3v7q6 49 6 108q0 115 -55 160t-191 45q-37 0 -83 -5t-94 -14.5t-94 -22.5t-83 -28l-51 135q86 43 205 69t252 26q117 0 198.5 -39t126.5 -105q33 39 77 68t93 48t102.5 28.5t102.5 9.5 q82 0 162 -17.5t143.5 -64.5t102.5 -133t39 -221q0 -29 -1 -65t-8 -89h-770q2 -92 23.5 -164.5t68 -123t119 -77t174.5 -26.5q78 0 156 24.5t129 63.5l68 -125q-70 -51 -180.5 -84t-225.5 -33q-143 0 -263 57.5t-179 159.5h-23q-31 -37 -71.5 -73.5t-92 -65.5t-116 -47 t-142.5 -18q-76 0 -139 20.5t-109.5 59t-73 95t-26.5 126.5zM293 305q0 -74 58.5 -120t150.5 -46q68 0 119 16.5t89 41t63.5 54.5t39.5 58v174q-35 4 -73 3t-72 -1q-74 0 -141.5 -8t-120 -28.5t-83 -55.5t-30.5 -88zM1004 651h587q2 82 -15 138.5t-52 91t-84 50t-111 15.5 q-141 0 -223 -67.5t-102 -227.5z" horiz-adv-x="1904" unicode="æ"/><glyph d="M123 537q0 272 132 420.5t380 148.5q109 0 188.5 -19.5t143.5 -48.5l-49 -153q-55 29 -120 45t-141 16q-334 0 -333 -409q0 -78 18 -150t59 -129t107.5 -91t163.5 -34q86 0 150.5 23.5t107.5 56.5l61 -139q-66 -47 -151.5 -72t-182.5 -29l-47 -82q100 -16 148.5 -53 t48.5 -104q0 -86 -76 -138.5t-211 -52.5q-27 0 -54.5 2t-55.5 9l18 73q72 -4 113 2t61.5 20.5t25.5 32t5 33.5q0 35 -52.5 54.5t-150.5 29.5l107 178q-113 12 -192 57.5t-128 118t-71.5 170t-22.5 214.5z" horiz-adv-x="1083" unicode="ç"/><glyph d="M123 537q0 276 136 422.5t388 146.5q80 0 160 -17.5t143.5 -65.5t103.5 -132t40 -219q0 -33 -2 -76t-9 -84h-768q4 -188 90.5 -284.5t292.5 -96.5q86 0 164 29.5t121 70.5l72 -143q-72 -53 -178.5 -85t-231.5 -32q-135 0 -234.5 40t-163 114t-94 178.5t-30.5 233.5z M324 647h589q0 9 1 18q0 150 -67 214q-71 68 -198 67q-143 0 -227 -67.5t-98 -231.5zM393 1427v48h225l146 -308h-111z" horiz-adv-x="1224" unicode="è"/><glyph d="M123 537q0 276 136 422.5t388 146.5q80 0 160 -17.5t143.5 -65.5t103.5 -132t40 -219q0 -33 -2 -76t-9 -84h-768q4 -188 90.5 -284.5t292.5 -96.5q86 0 164 29.5t121 70.5l72 -143q-72 -53 -178.5 -85t-231.5 -32q-135 0 -234.5 40t-163 114t-94 178.5t-30.5 233.5z M324 647h589q0 9 1 18q0 150 -67 214q-71 68 -198 67q-143 0 -227 -67.5t-98 -231.5zM543 1167l131 308h213v-48l-229 -260h-115z" horiz-adv-x="1224" unicode="é"/><glyph d="M123 537q0 276 136 422.5t388 146.5q80 0 160 -17.5t143.5 -65.5t103.5 -132t40 -219q0 -33 -2 -76t-9 -84h-768q4 -188 90.5 -284.5t292.5 -96.5q86 0 164 29.5t121 70.5l72 -143q-72 -53 -178.5 -85t-231.5 -32q-135 0 -234.5 40t-163 114t-94 178.5t-30.5 233.5z M324 647h589q0 9 1 18q0 150 -67 214q-71 68 -198 67q-143 0 -227 -67.5t-98 -231.5zM295 1200l287 383h84l129 -192l127 -191h-164l-92 141l-53 146l-64 -146l-98 -141h-156z" horiz-adv-x="1224" unicode="ê"/><glyph d="M123 537q0 276 136 422.5t388 146.5q80 0 160 -17.5t143.5 -65.5t103.5 -132t40 -219q0 -33 -2 -76t-9 -84h-768q4 -188 90.5 -284.5t292.5 -96.5q86 0 164 29.5t121 70.5l72 -143q-72 -53 -178.5 -85t-231.5 -32q-135 0 -234.5 40t-163 114t-94 178.5t-30.5 233.5z M324 647h589q0 9 1 18q0 150 -67 214q-71 68 -198 67q-143 0 -227 -67.5t-98 -231.5zM324 1337q0 49 32.5 82t86.5 33q51 0 82.5 -33t31.5 -82q0 -47 -31.5 -79.5t-82.5 -32.5q-53 0 -86 32.5t-33 79.5zM764 1337q0 49 32 82t85 33t85 -33t32 -82q0 -47 -32 -79.5t-85 -32.5 t-85 32.5t-32 79.5z" horiz-adv-x="1224" unicode="ë"/><glyph d="M233 0v1075h189v-1075h-189zM21 1427v48h225l146 -308h-111z" horiz-adv-x="649" unicode="ì"/><glyph d="M233 0v1075h189v-1075h-189zM227 1167l131 308h213v-48l-229 -260h-115z" horiz-adv-x="649" unicode="í"/><glyph d="M233 0v1075h189v-1075h-189zM-2 1200l287 383h84l129 -192l127 -191h-164l-92 141l-53 146l-64 -146l-98 -141h-156z" horiz-adv-x="649" unicode="î"/><glyph d="M233 0v1075h189v-1075h-189zM-8 1337q0 49 32.5 82t86.5 33q51 0 82.5 -33t31.5 -82q0 -47 -31.5 -79.5t-82.5 -32.5q-53 0 -86 32.5t-33 79.5zM432 1337q0 49 32 82t85 33t85 -33t32 -82q0 -47 -32 -79.5t-85 -32.5t-85 32.5t-32 79.5z" horiz-adv-x="649" unicode="ï"/><glyph d="M123 535q0 106 36 205.5t103.5 177t166.5 125t226 47.5q102 0 171 -26t110 -65l14 7q-41 82 -89 147.5t-107 118.5l-136 -101l-77 82l123 90q-59 41 -121 69t-127 48l168 78q111 -35 211 -96l131 98l71 -90l-108 -80q141 -123 225 -305t84 -416q0 -176 -42 -303 t-114.5 -211t-171 -124t-208.5 -40q-141 0 -243 47.5t-168.5 125t-97 179t-30.5 212.5zM324 530q0 -195 97 -297t253 -102q72 0 133 28.5t106 88t71 152t26 218.5q0 41 -2 91.5t-13 78.5q-20 37 -55 64t-78 44t-91 25.5t-91 8.5q-94 0 -161.5 -32t-110.5 -87t-63.5 -128 t-20.5 -153z" horiz-adv-x="1320" unicode="ð"/><glyph d="M180 0v1075h131l37 -143h19q59 74 154 124t229 50q94 0 165.5 -21.5t119.5 -76t73 -145.5t25 -230v-633h-189v594q0 172 -55 258t-197 86q-125 0 -208 -64.5t-115 -164.5v-709h-189zM317 1425q66 72 119 97.5t100 25.5q37 0 71 -13t67.5 -30.5t67.5 -31t73 -13.5 q51 0 110 49l46 -98q-55 -57 -103.5 -80.5t-89.5 -23.5q-39 0 -74 14t-68.5 30.5t-68.5 31t-74 14.5q-33 0 -64.5 -12.5t-70.5 -49.5z" horiz-adv-x="1312" unicode="ñ"/><glyph d="M123 537q0 133 35 238.5t102.5 179t164.5 112.5t222 39q131 0 229.5 -43t164 -120t97 -180.5t31.5 -225.5q0 -131 -35.5 -235.5t-102 -178.5t-164 -113t-220.5 -39q-135 0 -233.5 43t-163 119t-96 179.5t-31.5 224.5zM324 537q0 -76 17 -149t56 -130t100.5 -92t151.5 -35 q319 0 320 406q0 80 -17.5 153.5t-55.5 130t-99.5 91t-147.5 34.5q-160 0 -242.5 -101t-82.5 -308zM367 1427v48h225l146 -308h-111z" horiz-adv-x="1292" unicode="ò"/><glyph d="M123 537q0 133 35 238.5t102.5 179t164.5 112.5t222 39q131 0 229.5 -43t164 -120t97 -180.5t31.5 -225.5q0 -131 -35.5 -235.5t-102 -178.5t-164 -113t-220.5 -39q-135 0 -233.5 43t-163 119t-96 179.5t-31.5 224.5zM324 537q0 -76 17 -149t56 -130t100.5 -92t151.5 -35 q319 0 320 406q0 80 -17.5 153.5t-55.5 130t-99.5 91t-147.5 34.5q-160 0 -242.5 -101t-82.5 -308zM535 1167l131 308h213v-48l-229 -260h-115z" horiz-adv-x="1292" unicode="ó"/><glyph d="M123 537q0 133 35 238.5t102.5 179t164.5 112.5t222 39q131 0 229.5 -43t164 -120t97 -180.5t31.5 -225.5q0 -131 -35.5 -235.5t-102 -178.5t-164 -113t-220.5 -39q-135 0 -233.5 43t-163 119t-96 179.5t-31.5 224.5zM324 537q0 -76 17 -149t56 -130t100.5 -92t151.5 -35 q319 0 320 406q0 80 -17.5 153.5t-55.5 130t-99.5 91t-147.5 34.5q-160 0 -242.5 -101t-82.5 -308zM325 1200l287 383h84l129 -192l127 -191h-164l-92 141l-53 146l-64 -146l-98 -141h-156z" horiz-adv-x="1292" unicode="ô"/><glyph d="M123 537q0 133 35 238.5t102.5 179t164.5 112.5t222 39q131 0 229.5 -43t164 -120t97 -180.5t31.5 -225.5q0 -131 -35.5 -235.5t-102 -178.5t-164 -113t-220.5 -39q-135 0 -233.5 43t-163 119t-96 179.5t-31.5 224.5zM324 537q0 -76 17 -149t56 -130t100.5 -92t151.5 -35 q319 0 320 406q0 80 -17.5 153.5t-55.5 130t-99.5 91t-147.5 34.5q-160 0 -242.5 -101t-82.5 -308zM317 1425q66 72 119 97.5t100 25.5q37 0 71 -13t67.5 -30.5t67.5 -31t73 -13.5q51 0 110 49l46 -98q-55 -57 -103.5 -80.5t-89.5 -23.5q-39 0 -74 14t-68.5 30.5t-68.5 31 t-74 14.5q-33 0 -64.5 -12.5t-70.5 -49.5z" horiz-adv-x="1292" unicode="õ"/><glyph d="M123 537q0 133 35 238.5t102.5 179t164.5 112.5t222 39q131 0 229.5 -43t164 -120t97 -180.5t31.5 -225.5q0 -131 -35.5 -235.5t-102 -178.5t-164 -113t-220.5 -39q-135 0 -233.5 43t-163 119t-96 179.5t-31.5 224.5zM324 537q0 -76 17 -149t56 -130t100.5 -92t151.5 -35 q319 0 320 406q0 80 -17.5 153.5t-55.5 130t-99.5 91t-147.5 34.5q-160 0 -242.5 -101t-82.5 -308zM281 1337q0 49 32.5 82t86.5 33q51 0 82.5 -33t31.5 -82q0 -47 -31.5 -79.5t-82.5 -32.5q-53 0 -86 32.5t-33 79.5zM721 1337q0 49 32 82t85 33t85 -33t32 -82 q0 -47 -32 -79.5t-85 -32.5t-85 32.5t-32 79.5z" horiz-adv-x="1292" unicode="ö"/><glyph d="M88 604v172h959v-172h-959zM430 305q0 59 38 94t99 35t99.5 -34.5t38.5 -94.5q0 -55 -38 -92t-100 -37q-61 0 -99 37t-38 92zM430 1075q0 59 38 94t99 35t99.5 -34.5t38.5 -94.5q0 -55 -38 -92t-100 -37q-61 0 -99 37t-38 92z" horiz-adv-x="1134" unicode="÷"/><glyph d="M109 535q0 268 136 418.5t388 150.5q88 0 159.5 -18.5t129.5 -53.5l61 76l111 -90l-64 -80q61 -76 92 -178.5t31 -224.5q0 -268 -136 -416t-384 -148q-94 0 -170 20.5t-135 59.5l-64 -84l-117 90l74 93q-57 74 -84.5 171t-27.5 214zM309 535q0 -61 11.5 -121t35.5 -111 l461 582q-35 29 -81 44t-103 15q-324 1 -324 -409zM436 195q76 -63 197 -64q319 0 319 404q0 68 -12 132t-41 117z" horiz-adv-x="1255" unicode="ø"/><glyph d="M180 440v635h189v-592q0 -86 10 -151.5t36.5 -109.5t73 -67.5t117.5 -23.5q123 0 201 69.5t119 172.5v702h188v-770q0 -78 6 -158.5t19 -146.5h-127l-49 178h-21q-53 -92 -147.5 -149.5t-235.5 -57.5q-94 0 -164.5 22.5t-119 77t-72 144.5t-23.5 225zM352 1427v48h225 l146 -308h-111z" horiz-adv-x="1318" unicode="ù"/><glyph d="M180 440v635h189v-592q0 -86 10 -151.5t36.5 -109.5t73 -67.5t117.5 -23.5q123 0 201 69.5t119 172.5v702h188v-770q0 -78 6 -158.5t19 -146.5h-127l-49 178h-21q-53 -92 -147.5 -149.5t-235.5 -57.5q-94 0 -164.5 22.5t-119 77t-72 144.5t-23.5 225zM537 1167l131 308 h213v-48l-229 -260h-115z" horiz-adv-x="1318" unicode="ú"/><glyph d="M180 440v635h189v-592q0 -86 10 -151.5t36.5 -109.5t73 -67.5t117.5 -23.5q123 0 201 69.5t119 172.5v702h188v-770q0 -78 6 -158.5t19 -146.5h-127l-49 178h-21q-53 -92 -147.5 -149.5t-235.5 -57.5q-94 0 -164.5 22.5t-119 77t-72 144.5t-23.5 225zM344 1200l287 383 h84l129 -192l127 -191h-164l-92 141l-53 146l-64 -146l-98 -141h-156z" horiz-adv-x="1318" unicode="û"/><glyph d="M180 440v635h189v-592q0 -86 10 -151.5t36.5 -109.5t73 -67.5t117.5 -23.5q123 0 201 69.5t119 172.5v702h188v-770q0 -78 6 -158.5t19 -146.5h-127l-49 178h-21q-53 -92 -147.5 -149.5t-235.5 -57.5q-94 0 -164.5 22.5t-119 77t-72 144.5t-23.5 225zM295 1337 q0 49 32.5 82t86.5 33q51 0 82.5 -33t31.5 -82q0 -47 -31.5 -79.5t-82.5 -32.5q-53 0 -86 32.5t-33 79.5zM735 1337q0 49 32 82t85 33t85 -33t32 -82q0 -47 -32 -79.5t-85 -32.5t-85 32.5t-32 79.5z" horiz-adv-x="1318" unicode="ü"/><glyph d="M16 1075h224l274 -680l64 -207h26l51 209l224 678h192l-352 -973l-79 -194q-40 -94 -88 -167t-106.5 -117t-134.5 -44q-82 0 -139 19l31 159q31 -10 61 -10q41 0 75 10.5t62.5 37t52 74.5t44.5 124zM490 1167l131 308h213v-48l-229 -260h-115z" horiz-adv-x="1087" unicode="ý"/><glyph d="M180 -410v1846h189v-482h16q53 70 130 110t187 40q233 0 349 -129t116 -414q0 -135 -38.5 -244.5t-109.5 -186.5t-171 -118t-225 -41q-41 0 -72 3t-60.5 9.5t-58.5 16.5l-63 23v-433h-189zM369 205q43 -33 102 -53.5t139 -20.5q166 0 261.5 108.5t95.5 323.5 q0 86 -16.5 157t-53.5 120t-95.5 76.5t-142.5 27.5q-227 0 -290 -254v-485z" horiz-adv-x="1290" unicode="þ"/><glyph d="M16 1075h224l274 -680l64 -207h26l51 209l224 678h192l-352 -973l-79 -194q-40 -94 -88 -167t-106.5 -117t-134.5 -44q-82 0 -139 19l31 159q31 -10 61 -10q41 0 75 10.5t62.5 37t52 74.5t44.5 124zM182 1337q0 49 32.5 82t86.5 33q51 0 82.5 -33t31.5 -82 q0 -47 -31.5 -79.5t-82.5 -32.5q-53 0 -86 32.5t-33 79.5zM622 1337q0 49 32 82t85 33t85 -33t32 -82q0 -47 -32 -79.5t-85 -32.5t-85 32.5t-32 79.5z" horiz-adv-x="1087" unicode="ÿ"/><glyph d="M16 0l590 1454h107l592 -1454h-213l-156 375h-567l-152 -375h-201zM430 547h447l-166 407l-56 220h-4l-55 -224zM297 1552v140h717v-140h-717z" horiz-adv-x="1320" unicode="Ā"/><glyph d="M92 287q0 92 40 159.5t103.5 110.5t144.5 63.5t161 20.5q63 0 107 -2t74 -5t50.5 -6t36.5 -5q4 31 6 53t2 57q0 57 -12 96t-40 62.5t-75 34t-115 10.5q-39 0 -86 -6t-94 -17.5t-93 -28t-83 -34.5l-51 158q184 88 457 88q123 0 197.5 -32t115.5 -81t54.5 -109.5 t13.5 -119.5q0 -113 -8.5 -226.5t-8.5 -246.5q0 -78 7.5 -151t23.5 -134h-137l-52 164h-20q-23 -31 -55.5 -62.5t-77.5 -56.5t-103.5 -41t-134.5 -16t-139 21.5t-109.5 60t-73 95t-26.5 126.5zM293 307q0 -82 58.5 -123t150.5 -41q68 0 120 17.5t90 43t61.5 57.5t35.5 63 v163q-16 2 -34.5 6.5t-46.5 6.5t-65.5 4t-93.5 2q-127 0 -201.5 -45t-74.5 -154zM234 1223v141h672v-141h-672z" horiz-adv-x="1191" unicode="ā"/><glyph d="M16 0l590 1454h107l592 -1454h-213l-156 375h-567l-152 -375h-201zM430 547h447l-166 407l-56 220h-4l-55 -224zM270 1726l98 60q39 -66 119 -100.5t184 -34.5q109 0 183.5 40t109.5 95l90 -47q-20 -57 -58 -102.5t-89 -77t-112.5 -48t-125.5 -16.5q-59 0 -118.5 13.5 t-112.5 42t-97 71.5t-71 104z" horiz-adv-x="1320" unicode="Ă"/><glyph d="M92 287q0 92 40 159.5t103.5 110.5t144.5 63.5t161 20.5q63 0 107 -2t74 -5t50.5 -6t36.5 -5q4 31 6 53t2 57q0 57 -12 96t-40 62.5t-75 34t-115 10.5q-39 0 -86 -6t-94 -17.5t-93 -28t-83 -34.5l-51 158q184 88 457 88q123 0 197.5 -32t115.5 -81t54.5 -109.5 t13.5 -119.5q0 -113 -8.5 -226.5t-8.5 -246.5q0 -78 7.5 -151t23.5 -134h-137l-52 164h-20q-23 -31 -55.5 -62.5t-77.5 -56.5t-103.5 -41t-134.5 -16t-139 21.5t-109.5 60t-73 95t-26.5 126.5zM293 307q0 -82 58.5 -123t150.5 -41q68 0 120 17.5t90 43t61.5 57.5t35.5 63 v163q-16 2 -34.5 6.5t-46.5 6.5t-65.5 4t-93.5 2q-127 0 -201.5 -45t-74.5 -154zM229 1505l103 49q43 -76 115.5 -114.5t154.5 -38.5q80 0 148.5 38t109.5 115l92 -38q-8 -49 -37.5 -97.5t-77 -85.5t-109 -60.5t-128.5 -23.5q-133 0 -234.5 69.5t-136.5 186.5z" horiz-adv-x="1191" unicode="ă"/><glyph d="M16 0l590 1454h107l592 -1454h-15q-70 -35 -110.5 -81t-38.5 -107q2 -47 32.5 -80t90.5 -33q20 0 44.5 5t51.5 15l24 -94q-35 -25 -96 -38t-117 -13q-104 0 -164.5 50t-60.5 138q0 82 64.5 142.5t173.5 95.5h-92l-156 375h-567l-152 -375h-201zM430 547h447l-166 407 l-56 220h-4l-55 -224z" horiz-adv-x="1320" unicode="Ą"/><glyph d="M92 287q0 92 40 159.5t103.5 110.5t144.5 63.5t161 20.5q63 0 107 -2t74 -5t50.5 -6t36.5 -5q4 31 6 53t2 57q0 57 -12 96t-40 62.5t-75 34t-115 10.5q-39 0 -86 -6t-94 -17.5t-93 -28t-83 -34.5l-51 158q184 88 457 88q123 0 197.5 -32t115.5 -81t54.5 -109.5 t13.5 -119.5q0 -113 -8.5 -226.5t-8.5 -246.5q0 -78 7.5 -151t23.5 -134h-23q-63 -33 -100 -78t-35 -104q2 -47 33 -80t90 -33q20 0 45 5t51 15l25 -94q-35 -25 -96.5 -38t-116.5 -13q-104 0 -164.5 50t-60.5 138q0 78 59 137.5t160 94.5h-4l-52 164h-20 q-23 -31 -55.5 -62.5t-77.5 -56.5t-103.5 -41t-134.5 -16t-139 21.5t-109.5 60t-73 95t-26.5 126.5zM293 307q0 -82 58.5 -123t150.5 -41q68 0 120 17.5t90 43t61.5 57.5t35.5 63v163q-16 2 -34.5 6.5t-46.5 6.5t-65.5 4t-93.5 2q-127 0 -201.5 -45t-74.5 -154z" horiz-adv-x="1191" unicode="ą"/><glyph d="M119 717q0 201 61.5 342t159.5 230t221 130t244 41q135 0 221 -14t145 -37l-45 -176q-100 47 -305 47q-92 0 -179 -29.5t-155.5 -96.5t-109.5 -174.5t-41 -262.5q0 -139 39 -244.5t107.5 -176.5t161.5 -106.5t204 -35.5q100 0 174 18t125 47l49 -158q-68 -49 -172 -68.5 t-221 -19.5q-137 0 -261 44t-218.5 135.5t-149.5 231.5t-55 333zM660 1540l260 242h270v-47l-364 -195h-166z" horiz-adv-x="1277" unicode="Ć"/><glyph d="M123 537q0 272 132 420.5t380 148.5q109 0 188.5 -19.5t143.5 -48.5l-49 -153q-55 29 -120 45t-141 16q-334 0 -333 -409q0 -78 18 -151t59 -129t107.5 -91t163.5 -35q86 0 150.5 23.5t107.5 56.5l61 -137q-72 -51 -168 -77t-202 -26q-135 0 -230.5 41t-155 115 t-86 178.5t-26.5 231.5zM526 1167l131 308h213v-48l-229 -260h-115z" horiz-adv-x="1083" unicode="ć"/><glyph d="M119 717q0 201 61.5 342t159.5 230t221 130t244 41q135 0 221 -14t145 -37l-45 -176q-100 47 -305 47q-92 0 -179 -29.5t-155.5 -96.5t-109.5 -174.5t-41 -262.5q0 -139 39 -244.5t107.5 -176.5t161.5 -106.5t204 -35.5q100 0 174 18t125 47l49 -158q-68 -49 -172 -68.5 t-221 -19.5q-137 0 -261 44t-218.5 135.5t-149.5 231.5t-55 333zM408 1526v53l299 203h149l285 -205v-51h-188l-133 96l-41 72l-43 -70l-144 -98h-184z" horiz-adv-x="1277" unicode="Ĉ"/><glyph d="M123 537q0 272 132 420.5t380 148.5q109 0 188.5 -19.5t143.5 -48.5l-49 -153q-55 29 -120 45t-141 16q-334 0 -333 -409q0 -78 18 -151t59 -129t107.5 -91t163.5 -35q86 0 150.5 23.5t107.5 56.5l61 -137q-72 -51 -168 -77t-202 -26q-135 0 -230.5 41t-155 115 t-86 178.5t-26.5 231.5zM276 1200l287 383h84l129 -192l127 -191h-164l-92 141l-53 146l-64 -146l-98 -141h-156z" horiz-adv-x="1083" unicode="ĉ"/><glyph d="M119 717q0 201 61.5 342t159.5 230t221 130t244 41q135 0 221 -14t145 -37l-45 -176q-100 47 -305 47q-92 0 -179 -29.5t-155.5 -96.5t-109.5 -174.5t-41 -262.5q0 -139 39 -244.5t107.5 -176.5t161.5 -106.5t204 -35.5q100 0 174 18t125 47l49 -158q-68 -49 -172 -68.5 t-221 -19.5q-137 0 -261 44t-218.5 135.5t-149.5 231.5t-55 333zM432 1731v51h190l131 -101l39 -67l43 65l140 103h182v-53l-299 -205h-141z" horiz-adv-x="1277" unicode="Č"/><glyph d="M123 537q0 272 132 420.5t380 148.5q109 0 188.5 -19.5t143.5 -48.5l-49 -153q-55 29 -120 45t-141 16q-334 0 -333 -409q0 -78 18 -151t59 -129t107.5 -91t163.5 -35q86 0 150.5 23.5t107.5 56.5l61 -137q-72 -51 -168 -77t-202 -26q-135 0 -230.5 41t-155 115 t-86 178.5t-26.5 231.5zM280 1583h178l91 -139l57 -146l59 144l101 141h159l-280 -383h-100z" horiz-adv-x="1083" unicode="č"/><glyph d="M182 -2v1436q41 6 95.5 9t113 5t114.5 3t103 1q188 0 326.5 -54.5t229.5 -150.5t136.5 -229t45.5 -291q0 -143 -42 -277.5t-134.5 -239t-237 -167.5t-348.5 -63q-35 0 -94 2l-119 4q-61 2 -113.5 5t-75.5 7zM387 168q10 -2 40 -3l62.5 -2t61.5 -2t41 -1q154 0 257 48 t165.5 128t88 181t25.5 210q0 92 -24.5 188.5t-83.5 175t-157.5 130t-248.5 51.5h-61q-33 0 -65.5 -2t-59.5 -4t-41 -4v-1094zM273 1731v51h190l131 -101l39 -67l43 65l140 103h182v-53l-299 -205h-141z" horiz-adv-x="1464" unicode="Ď"/><glyph d="M123 530q0 274 140 421t394 147q43 0 77 -3t63.5 -7.5t57.5 -12.5l58 -16v375h189v-1063q0 -104 3 -195.5t19 -179.5h-125l-47 164h-20q-47 -82 -138.5 -135.5t-211.5 -53.5q-231 0 -345 137t-114 422zM319 528q0 -86 16.5 -158.5t51.5 -126t92.5 -83t141.5 -29.5 q125 0 194.5 62.5t97.5 185.5v498q-47 35 -101 48t-144 13q-166 0 -257.5 -96.5t-91.5 -313.5zM1159 1081q39 74 58.5 166t19.5 187h188q-4 -59 -25.5 -122t-50 -118t-58.5 -98t-50 -62z" horiz-adv-x="1327" unicode="ď"/><glyph d="M0 672v135h199v627q41 6 95 9t112.5 5t115 3t103.5 1q188 0 326.5 -54.5t229.5 -150.5t136 -229t45 -291q0 -143 -42 -277.5t-134 -239t-236.5 -167.5t-349.5 -63q-35 0 -93 2l-120 4q-61 2 -113.5 5t-74.5 7v674h-199zM403 168q10 -2 40 -3t63 -2t61.5 -2t40.5 -1 q154 0 257.5 48t166 128t88 181t25.5 210q0 92 -24.5 188.5t-84 175t-158 130t-247.5 51.5h-62q-33 0 -65.5 -2t-59 -4t-41.5 -4v-455h328v-135h-328v-504z" horiz-adv-x="1480" unicode="Đ"/><glyph d="M123 532q0 274 140 421t394 147q43 0 77 -3t63.5 -7.5t57.5 -12.5l58 -16v143h-378v125h378v107h189v-107h188v-125h-188v-831q0 -104 3 -195.5t19 -179.5h-125l-47 164h-20q-47 -82 -138.5 -135.5t-211.5 -53.5q-231 0 -345 137t-114 422zM319 530q0 -86 16.5 -158.5 t51.5 -125.5t92.5 -83t141.5 -30q125 0 194.5 62.5t97.5 185.5v498q-47 35 -101 48t-144 13q-166 0 -257.5 -96.5t-91.5 -313.5z" horiz-adv-x="1290" unicode="đ"/><glyph d="M182 0v1434h867v-177h-662v-436h604v-176h-604v-469h672v-176h-877zM242 1552v140h717v-140h-717z" horiz-adv-x="1198" unicode="Ē"/><glyph d="M123 537q0 276 136 422.5t388 146.5q80 0 160 -17.5t143.5 -65.5t103.5 -132t40 -219q0 -33 -2 -76t-9 -84h-768q4 -188 90.5 -284.5t292.5 -96.5q86 0 164 29.5t121 70.5l72 -143q-72 -53 -178.5 -85t-231.5 -32q-135 0 -234.5 40t-163 114t-94 178.5t-30.5 233.5z M324 647h589q0 9 1 18q0 150 -67 214q-71 68 -198 67q-143 0 -227 -67.5t-98 -231.5zM289 1223v141h672v-141h-672z" horiz-adv-x="1224" unicode="ē"/><glyph d="M182 0v1434h867v-177h-662v-436h604v-176h-604v-469h672v-176h-877zM469 1634q0 45 39 78t108 33q70 0 110 -33t40 -78q0 -49 -40 -80.5t-110 -31.5t-108.5 31.5t-38.5 80.5z" horiz-adv-x="1198" unicode="Ė"/><glyph d="M123 537q0 276 136 422.5t388 146.5q80 0 160 -17.5t143.5 -65.5t103.5 -132t40 -219q0 -33 -2 -76t-9 -84h-768q4 -188 90.5 -284.5t292.5 -96.5q86 0 164 29.5t121 70.5l72 -143q-72 -53 -178.5 -85t-231.5 -32q-135 0 -234.5 40t-163 114t-94 178.5t-30.5 233.5z M324 647h589q0 9 1 18q0 150 -67 214q-71 68 -198 67q-143 0 -227 -67.5t-98 -231.5zM500 1331q0 47 37 85t96 38t98 -38t39 -85t-39 -83t-98 -36t-96 36t-37 83z" horiz-adv-x="1224" unicode="ė"/><glyph d="M182 0v1434h867v-177h-662v-436h604v-176h-604v-469h672v-176h-43q-70 -35 -111 -81t-39 -107q2 -47 33 -80t90 -33q20 0 45 5t51 15l25 -94q-35 -25 -96.5 -38t-116.5 -13q-104 0 -164.5 50t-60.5 138q0 82 64.5 142.5t172.5 95.5h-727z" horiz-adv-x="1198" unicode="Ę"/><glyph d="M123 537q0 276 136 422.5t388 146.5q80 0 160 -17.5t143.5 -65.5t103.5 -132t40 -219q0 -33 -2 -76t-9 -84h-768q4 -188 90.5 -284.5t292.5 -96.5q86 0 164 29.5t121 70.5l72 -143q-68 -51 -156 -78h2q-68 -35 -105.5 -87t-35.5 -116q2 -47 34.5 -81.5t92.5 -34.5 q41 0 90 18l24 -84q-37 -25 -95 -38t-109 -13q-106 0 -169 49t-63 135q0 66 42 122.5t114 94.5q-18 -2 -37.5 -3t-38.5 -1q-135 0 -234.5 40t-163 114t-94 178.5t-30.5 233.5zM324 647h589q4 164 -66.5 231.5t-197.5 67.5q-143 0 -227 -67.5t-98 -231.5z" horiz-adv-x="1224" unicode="ę"/><glyph d="M182 0v1434h867v-177h-662v-436h604v-176h-604v-469h672v-176h-877zM236 1731v51h190l131 -101l39 -67l43 65l140 103h182v-53l-299 -205h-141z" horiz-adv-x="1198" unicode="Ě"/><glyph d="M123 537q0 276 136 422.5t388 146.5q80 0 160 -17.5t143.5 -65.5t103.5 -132t40 -219q0 -33 -2 -76t-9 -84h-768q4 -188 90.5 -284.5t292.5 -96.5q86 0 164 29.5t121 70.5l72 -143q-72 -53 -178.5 -85t-231.5 -32q-135 0 -234.5 40t-163 114t-94 178.5t-30.5 233.5z M324 647h589q0 9 1 18q0 150 -67 214q-71 68 -198 67q-143 0 -227 -67.5t-98 -231.5zM307 1583h178l91 -139l57 -146l59 144l101 141h159l-280 -383h-100z" horiz-adv-x="1224" unicode="ě"/><glyph d="M119 717q0 199 64.5 340t167 231t228.5 131t250 41q135 0 224.5 -15t148.5 -38l-49 -174q-106 47 -307 47q-92 0 -183.5 -28.5t-164 -95t-117.5 -174.5t-45 -265q0 -145 38 -252t105.5 -176.5t159.5 -102t201 -32.5q68 0 130 13t109 38v362l-366 37v119h536v-633 q-37 -29 -88 -50.5t-109.5 -35.5t-120 -22.5t-120.5 -8.5q-147 0 -273 44t-219.5 136.5t-146.5 233t-53 330.5zM430 1526v53l299 203h149l285 -205v-51h-188l-133 96l-41 72l-43 -70l-144 -98h-184z" horiz-adv-x="1368" unicode="Ĝ"/><glyph d="M123 528q0 276 143.5 426t425.5 150q135 0 232.5 -16.5t175.5 -43.5v-1050q0 -211 -124 -314.5t-364 -103.5q-139 0 -225 16.5t-147 45.5l45 169q27 -12 61.5 -25t73.5 -23.5t79 -16.5t76 -6q100 0 166 17.5t105 54t53 94t14 137.5v76h-22q-33 -53 -115 -86t-198 -33 q-233 0 -344 125.5t-111 406.5zM324 532q0 -180 66.5 -278t227.5 -98q125 0 196 63.5t97 165.5v528q-47 14 -108.5 22.5t-138.5 8.5q-160 0 -250 -101.5t-90 -310.5zM331 1200l287 383h84l129 -192l127 -191h-164l-92 141l-53 146l-64 -146l-98 -141h-156z" horiz-adv-x="1284" unicode="ĝ"/><glyph d="M119 717q0 199 64.5 340t167 231t228.5 131t250 41q135 0 224.5 -15t148.5 -38l-49 -174q-106 47 -307 47q-92 0 -183.5 -28.5t-164 -95t-117.5 -174.5t-45 -265q0 -145 38 -252t105.5 -176.5t159.5 -102t201 -32.5q68 0 130 13t109 38v362l-366 37v119h536v-633 q-37 -29 -88 -50.5t-109.5 -35.5t-120 -22.5t-120.5 -8.5q-147 0 -273 44t-219.5 136.5t-146.5 233t-53 330.5zM391 1726l98 60q39 -66 119 -100.5t184 -34.5q109 0 183.5 40t109.5 95l90 -47q-20 -57 -58 -102.5t-89 -77t-112.5 -48t-125.5 -16.5q-59 0 -118.5 13.5 t-112.5 42t-97 71.5t-71 104z" horiz-adv-x="1368" unicode="Ğ"/><glyph d="M123 528q0 276 143.5 426t425.5 150q135 0 232.5 -16.5t175.5 -43.5v-1050q0 -211 -124 -314.5t-364 -103.5q-139 0 -225 16.5t-147 45.5l45 169q27 -12 61.5 -25t73.5 -23.5t79 -16.5t76 -6q100 0 166 17.5t105 54t53 94t14 137.5v76h-22q-33 -53 -115 -86t-198 -33 q-233 0 -344 125.5t-111 406.5zM324 532q0 -180 66.5 -278t227.5 -98q125 0 196 63.5t97 165.5v528q-47 14 -108.5 22.5t-138.5 8.5q-160 0 -250 -101.5t-90 -310.5zM276 1505l103 49q43 -76 115.5 -114.5t154.5 -38.5q80 0 148.5 38t109.5 115l92 -38q-8 -49 -37.5 -97.5 t-77 -85.5t-109 -60.5t-128.5 -23.5q-133 0 -234.5 69.5t-136.5 186.5z" horiz-adv-x="1284" unicode="ğ"/><glyph d="M119 717q0 199 64.5 340t167 231t228.5 131t250 41q135 0 224.5 -15t148.5 -38l-49 -174q-106 47 -307 47q-92 0 -183.5 -28.5t-164 -95t-117.5 -174.5t-45 -265q0 -145 38 -252t105.5 -176.5t159.5 -102t201 -32.5q68 0 130 13t109 38v362l-366 37v119h536v-633 q-37 -29 -88 -50.5t-109.5 -35.5t-120 -22.5t-120.5 -8.5q-147 0 -273 44t-219.5 136.5t-146.5 233t-53 330.5zM649 -209q0 45 36 74t83 29q59 0 103 -39t44 -121q0 -55 -20.5 -98.5t-49 -74t-60.5 -49t-56 -26.5l-60 82q39 16 67 48t28 79q-47 -10 -81 18.5t-34 77.5z" horiz-adv-x="1368" unicode="Ģ"/><glyph d="M123 528q0 276 143.5 426t425.5 150q135 0 232.5 -16.5t175.5 -43.5v-1050q0 -211 -124 -314.5t-364 -103.5q-139 0 -225 16.5t-147 45.5l45 169q27 -12 61.5 -25t73.5 -23.5t79 -16.5t76 -6q100 0 166 17.5t105 54t53 94t14 137.5v76h-22q-33 -53 -115 -86t-198 -33 q-233 0 -344 125.5t-111 406.5zM324 532q0 -180 66.5 -278t227.5 -98q125 0 196 63.5t97 165.5v528q-47 14 -108.5 22.5t-138.5 8.5q-160 0 -250 -101.5t-90 -310.5zM794.008 1326.99q0 -44.9971 -35.998 -73.9951q-35.998 -28.999 -82.9951 -28.999 q-58.9961 0 -102.994 38.998q-43.9971 38.9971 -43.9971 120.992q0 54.9971 20.499 98.4941t48.9971 73.9961q28.498 30.498 60.4961 48.9971q31.998 18.498 55.9971 26.498l59.9961 -81.9951q-38.998 -15.999 -66.9961 -47.9971t-27.998 -78.9951 q46.9971 9.99902 80.9951 -18.499t33.998 -77.4951z" horiz-adv-x="1284" unicode="ģ"/><glyph d="M182 0v1434h205v-613h727v613h205v-1434h-205v641h-727v-641h-205zM379 1526v53l299 203h149l285 -205v-51h-188l-133 96l-41 72l-43 -70l-144 -98h-184z" horiz-adv-x="1501" unicode="Ĥ"/><glyph d="M180 0v1434h189v-492h22q61 74 147.5 119t213.5 45q98 0 169.5 -21.5t118.5 -76t70 -145.5t23 -228v-635h-189v594q0 88 -11 152.5t-41 107.5t-80 63.5t-126 20.5q-53 0 -104.5 -18.5t-94.5 -51t-73.5 -79t-44.5 -103.5v-686h-189zM291 1526v53l299 203h149l285 -205v-51 h-188l-133 96l-41 72l-43 -70l-144 -98h-184z" horiz-adv-x="1312" unicode="ĥ"/><glyph d="M14 1065v143h179v226h204v-226h727v226h205v-226h174v-143h-174v-1065h-205v641h-727v-641h-204v1065h-179zM397 821h727v244h-727v-244z" horiz-adv-x="1517" unicode="Ħ"/><glyph d="M0 1163v135h193v136h188v-136h350v-135h-350v-221h22q61 74 147.5 119t213.5 45q98 0 170 -21.5t119 -76t69.5 -145.5t22.5 -228v-635h-189v594q0 88 -11 152.5t-41 107.5t-80 63.5t-126 20.5q-53 0 -104 -18.5t-94 -51t-74 -79t-45 -103.5v-686h-188v1163h-193z" horiz-adv-x="1325" unicode="ħ"/><glyph d="M141 0v135h164v1163h-164v136h533v-136h-164v-1163h164v-135h-533zM53 1552v140h717v-140h-717z" horiz-adv-x="815" unicode="Ī"/><glyph d="M233 0v1075h189v-1075h-189zM-8 1223v141h672v-141h-672z" horiz-adv-x="649" unicode="ī"/><glyph d="M141 0v135h164v1163h-164v136h533v-136h-164v-1163h164v-135h-156q-66 -35 -103.5 -82t-35.5 -106q2 -47 32.5 -80t90.5 -33q20 0 44.5 5t51.5 15l25 -94q-35 -25 -96.5 -38t-116.5 -13q-104 0 -165 50t-61 138q0 80 60.5 141.5t163.5 96.5h-267z" horiz-adv-x="815" unicode="Į"/><glyph d="M92 -236q0 90 57.5 143.5t169.5 92.5h-88v1075h189v-1075h-25q-72 -39 -91 -83t-17 -103q2 -47 33.5 -83t93.5 -36q41 0 90 18l22 -86q-35 -23 -93 -37t-111 -14q-104 0 -167 51t-63 137zM190 1321q0 47 37 85t97 38q59 0 98 -38t39 -85t-39 -83t-98 -36t-96.5 36 t-37.5 83z" horiz-adv-x="634" unicode="į"/><glyph d="M141 0v135h164v1163h-164v136h533v-136h-164v-1163h164v-135h-533zM258 1634q0 45 39 78t108 33q70 0 110 -33t40 -78q0 -49 -40 -80.5t-110 -31.5t-108.5 31.5t-38.5 80.5z" horiz-adv-x="815" unicode="İ"/><glyph d="M233 0v1075h189v-1075h-189z" horiz-adv-x="649" unicode="ı"/><glyph d="M-72 14l39 170q57 -25 137 -24q92 0 122 59.5t30 163.5v1051h205v-1106q0 -160 -83 -254t-245 -94q-20 0 -48 2t-56.5 7t-55.5 11t-45 14zM-12 1526v53l299 203h149l285 -205v-51h-188l-133 96l-41 72l-43 -70l-144 -98h-184z" horiz-adv-x="665" unicode="Ĵ"/><glyph d="M25 -270q68 -2 107.5 16t61 56t28.5 94.5t7 134.5v1044h189v-1112q0 -199 -75 -296t-241 -97h-35q-19 0 -42 4v156zM8 1200l287 383h84l129 -192l127 -191h-164l-92 141l-53 146l-64 -146l-98 -141h-156z" horiz-adv-x="638" unicode="ĵ"/><glyph d="M182 0v1434h205v-660l94 29l516 631h234l-516 -615l-97 -69l113 -82l569 -668h-258l-555 651h-100v-651h-205zM512 -209q0 45 36 74t83 29q59 0 103 -39t44 -121q0 -55 -20.5 -98.5t-49 -74t-60.5 -49t-56 -26.5l-60 82q39 16 67 48t28 79q-47 -10 -81 18.5t-34 77.5z" horiz-adv-x="1370" unicode="Ķ"/><glyph d="M180 0v1434h189v-848l106 35l356 454h222l-342 -416h2l-113 -81l129 -93l379 -485h-238l-385 483h-116v-483h-189zM422 -209q0 45 36 74t83 29q59 0 103 -39t44 -121q0 -55 -20.5 -98.5t-49 -74t-60.5 -49t-56 -26.5l-60 82q39 16 67 48t28 79q-47 -10 -81 18.5t-34 77.5 z" horiz-adv-x="1140" unicode="ķ"/><glyph d="M182 0v1434h205v-1254h733v-180h-938zM260 1540l260 242h270v-47l-364 -195h-166z" horiz-adv-x="1159" unicode="Ĺ"/><glyph d="M205 215v1219h188v-1149q0 -84 32 -119t85 -35q33 0 63.5 4t73.5 17l25 -140q-20 -8 -49 -15t-60 -13.5t-61.5 -9.5t-55.5 -3q-111 0 -176 56.5t-65 187.5zM199 1540l260 242h270v-47l-364 -195h-166z" horiz-adv-x="688" unicode="ĺ"/><glyph d="M182 0v1434h205v-1254h733v-180h-938zM424 -209q0 45 36 74t83 29q59 0 103 -39t44 -121q0 -55 -20.5 -98.5t-49 -74t-60.5 -49t-56 -26.5l-60 82q39 16 67 48t28 79q-47 -10 -81 18.5t-34 77.5z" horiz-adv-x="1159" unicode="Ļ"/><glyph d="M205 215v1219h188v-1149q0 -84 32 -119t85 -35q33 0 63.5 4t73.5 17l25 -140q-20 -8 -49 -15t-60 -13.5t-61.5 -9.5t-55.5 -3q-111 0 -176 56.5t-65 187.5zM273 -209q0 45 36 74t83 29q59 0 103 -39t44 -121q0 -55 -20.5 -98.5t-49 -74t-60.5 -49t-56 -26.5l-60 82 q39 16 67 48t28 79q-47 -10 -81 18.5t-34 77.5z" horiz-adv-x="688" unicode="ļ"/><glyph d="M182 0v1434h205v-1254h733v-180h-938zM703 1081q39 74 58.5 166t19.5 187h188q-4 -59 -25.5 -122t-50 -118t-58.5 -98t-50 -62z" horiz-adv-x="1159" unicode="Ľ"/><glyph d="M205 215v1219h188v-1149q0 -84 32 -119t85 -35q33 0 63.5 4t73.5 17l25 -140q-20 -8 -49 -15t-60 -13.5t-61.5 -9.5t-55.5 -3q-111 0 -176 56.5t-65 187.5zM467 1081q39 74 58.5 166t19.5 187h188q-4 -59 -25.5 -122t-50 -118t-58.5 -98t-50 -62z" horiz-adv-x="688" unicode="ľ"/><glyph d="M31 426v174l159 113v721h205v-578l234 164v-182l-234 -162v-496h733v-180h-938v535z" horiz-adv-x="1167" unicode="Ł"/><glyph d="M14 418v174l191 133v709h188v-576l219 154v-183l-219 -151v-393q0 -84 32 -119t85 -35q33 0 63.5 4t73.5 17l25 -140q-20 -8 -49 -15t-60 -13.5t-61.5 -9.5t-55.5 -3q-111 0 -176 56.5t-65 187.5v334z" horiz-adv-x="688" unicode="ł"/><glyph d="M182 0v1454h115l731 -930l117 -190h10l-25 190v910h193v-1454h-115l-727 931l-123 201h-8l25 -201v-911h-193zM631 1540l260 242h270v-47l-364 -195h-166z" horiz-adv-x="1505" unicode="Ń"/><glyph d="M180 0v1075h131l37 -143h19q59 74 154 124t229 50q94 0 165.5 -21.5t119.5 -76t73 -145.5t25 -230v-633h-189v594q0 172 -55 258t-197 86q-125 0 -208 -64.5t-115 -164.5v-709h-189zM549 1167l131 308h213v-48l-229 -260h-115z" horiz-adv-x="1312" unicode="ń"/><glyph d="M182 0v1454h115l731 -930l117 -190h10l-25 190v910h193v-1454h-115l-727 931l-123 201h-8l25 -201v-911h-193zM613 -209q0 45 36 74t83 29q59 0 103 -39t44 -121q0 -55 -20.5 -98.5t-49 -74t-60.5 -49t-56 -26.5l-60 82q39 16 67 48t28 79q-47 -10 -81 18.5t-34 77.5z" horiz-adv-x="1505" unicode="Ņ"/><glyph d="M180 0v1075h131l37 -143h19q59 74 154 124t229 50q94 0 165.5 -21.5t119.5 -76t73 -145.5t25 -230v-633h-189v594q0 172 -55 258t-197 86q-125 0 -208 -64.5t-115 -164.5v-709h-189zM494 -209q0 45 36 74t83 29q59 0 103 -39t44 -121q0 -55 -20.5 -98.5t-49 -74 t-60.5 -49t-56 -26.5l-60 82q39 16 67 48t28 79q-47 -10 -81 18.5t-34 77.5z" horiz-adv-x="1312" unicode="ņ"/><glyph d="M182 0v1454h115l731 -930l117 -190h10l-25 190v910h193v-1454h-115l-727 931l-123 201h-8l25 -201v-911h-193zM393 1731v51h190l131 -101l39 -67l43 65l140 103h182v-53l-299 -205h-141z" horiz-adv-x="1505" unicode="Ň"/><glyph d="M180 0v1075h131l37 -143h19q59 74 154 124t229 50q94 0 165.5 -21.5t119.5 -76t73 -145.5t25 -230v-633h-189v594q0 172 -55 258t-197 86q-125 0 -208 -64.5t-115 -164.5v-709h-189zM323 1583h178l91 -139l57 -146l59 144l101 141h159l-280 -383h-100z" horiz-adv-x="1312" unicode="ň"/><glyph d="M119 717q0 176 44 314t127 233.5t202.5 145.5t271.5 50q162 0 283.5 -54t202.5 -151.5t121 -234.5t40 -303q0 -176 -44 -314.5t-128 -233.5t-204 -145.5t-271 -50.5q-164 0 -285 54.5t-200.5 151.5t-119.5 234.5t-40 303.5zM336 717q0 -117 25.5 -219.5t78 -180 t133 -122.5t191.5 -45q199 0 314.5 137t115.5 430q0 115 -25.5 217t-78 180t-133 124t-193.5 46q-197 0 -312.5 -139t-115.5 -428zM420 1552v140h717v-140h-717z" horiz-adv-x="1529" unicode="Ō"/><glyph d="M123 537q0 133 35 238.5t102.5 179t164.5 112.5t222 39q131 0 229.5 -43t164 -120t97 -180.5t31.5 -225.5q0 -131 -35.5 -235.5t-102 -178.5t-164 -113t-220.5 -39q-135 0 -233.5 43t-163 119t-96 179.5t-31.5 224.5zM324 537q0 -76 17 -149t56 -130t100.5 -92t151.5 -35 q319 0 320 406q0 80 -17.5 153.5t-55.5 130t-99.5 91t-147.5 34.5q-160 0 -242.5 -101t-82.5 -308zM299 1223v141h672v-141h-672z" horiz-adv-x="1292" unicode="ō"/><glyph d="M119 717q0 176 44 314t127 233.5t202.5 145.5t271.5 50q162 0 283.5 -54t202.5 -151.5t121 -234.5t40 -303q0 -176 -44 -314.5t-128 -233.5t-204 -145.5t-271 -50.5q-164 0 -285 54.5t-200.5 151.5t-119.5 234.5t-40 303.5zM336 717q0 -117 25.5 -219.5t78 -180 t133 -122.5t191.5 -45q199 0 314.5 137t115.5 430q0 115 -25.5 217t-78 180t-133 124t-193.5 46q-197 0 -312.5 -139t-115.5 -428zM526 1518l141 223h221v-33l-223 -190h-139zM815 1518l227 223h235v-33l-321 -190h-141z" horiz-adv-x="1529" unicode="Ő"/><glyph d="M123 537q0 133 35 238.5t102.5 179t164.5 112.5t222 39q131 0 229.5 -43t164 -120t97 -180.5t31.5 -225.5q0 -131 -35.5 -235.5t-102 -178.5t-164 -113t-220.5 -39q-135 0 -233.5 43t-163 119t-96 179.5t-31.5 224.5zM324 537q0 -76 17 -149t56 -130t100.5 -92t151.5 -35 q319 0 320 406q0 80 -17.5 153.5t-55.5 130t-99.5 91t-147.5 34.5q-160 0 -242.5 -101t-82.5 -308zM420 1249l80 264h184v-24l-163 -240h-101zM691 1249l167 264h207v-22l-270 -242h-104z" horiz-adv-x="1292" unicode="ő"/><glyph d="M119 717q0 356 170 549.5t477 193.5q100 0 169 -8t134 -18h866v-177h-661v-436h606v-176h-606v-469h674v-176h-879q-53 -12 -131 -19.5t-172 -7.5q-166 0 -288 53.5t-201.5 151.5t-118.5 235.5t-39 303.5zM336 717q0 -117 25.5 -219.5t79 -180t138.5 -122.5t201 -45 q66 0 133.5 5t155.5 31v1053q-59 23 -139 34t-166 11q-199 0 -313.5 -139t-114.5 -428z" horiz-adv-x="2086" unicode="Œ"/><glyph d="M123 535q0 272 134 420.5t386 148.5q82 0 144.5 -11.5t111.5 -36t87 -63.5t73 -92q70 90 174 146.5t246 56.5q80 0 159.5 -17.5t143 -65.5t103.5 -132t40 -217q0 -31 -1 -72t-11 -88h-766q2 -94 23.5 -166t66.5 -121t116.5 -73.5t174.5 -24.5q80 0 155.5 23.5t128.5 62.5 l68 -127q-72 -53 -177.5 -84t-223.5 -31q-143 0 -249 51.5t-171 145.5h-15q-61 -90 -163.5 -143.5t-237.5 -53.5q-133 0 -231.5 42t-163 118t-95 178.5t-30.5 225.5zM319 535q0 -80 17.5 -153t56.5 -128t100.5 -89t149.5 -34q160 0 242 96.5t82 307.5q0 82 -17.5 156.5 t-56.5 131t-100.5 89t-149.5 32.5q-160 0 -242 -99t-82 -310zM1157 647h584q4 162 -66.5 231.5t-193.5 69.5q-141 0 -224.5 -69.5t-99.5 -231.5z" horiz-adv-x="2056" unicode="œ"/><glyph d="M182 0v1419q43 8 95.5 14.5t105.5 10.5t106.5 6t100.5 2q102 0 197.5 -20.5t168 -67.5t116.5 -123t44 -186q0 -86 -26.5 -156t-73.5 -123t-111.5 -89t-140.5 -54l106 -72l385 -561h-235l-426 604l-207 29v-633h-205zM387 768h168q74 0 136.5 15.5t108.5 47t72.5 83 t26.5 124.5q0 111 -78 174.5t-225 63.5h-58q-30 0 -58.5 -2t-53.5 -4t-39 -6v-496zM447 1540l260 242h270v-47l-364 -195h-166z" horiz-adv-x="1337" unicode="Ŕ"/><glyph d="M180 0v1075h131l37 -143h19q47 80 109.5 124t156.5 44q29 0 67.5 -5t77.5 -18l-37 -180l-67.5 18.5t-61.5 8.5q-109 0 -169 -55.5t-74 -139.5v-729h-189zM299 1167l131 308h213v-48l-229 -260h-115z" horiz-adv-x="778" unicode="ŕ"/><glyph d="M182 0v1419q43 8 95.5 14.5t105.5 10.5t106.5 6t100.5 2q102 0 197.5 -20.5t168 -67.5t116.5 -123t44 -186q0 -86 -26.5 -156t-73.5 -123t-111.5 -89t-140.5 -54l106 -72l385 -561h-235l-426 604l-207 29v-633h-205zM387 768h168q74 0 136.5 15.5t108.5 47t72.5 83 t26.5 124.5q0 111 -78 174.5t-225 63.5h-58q-30 0 -58.5 -2t-53.5 -4t-39 -6v-496zM529 -209q0 45 36 74t83 29q59 0 103 -39t44 -121q0 -55 -20.5 -98.5t-49 -74t-60.5 -49t-56 -26.5l-60 82q39 16 67 48t28 79q-47 -10 -81 18.5t-34 77.5z" horiz-adv-x="1337" unicode="Ŗ"/><glyph d="M180 0v1075h131l37 -143h19q47 80 109.5 124t156.5 44q29 0 67.5 -5t77.5 -18l-37 -180l-67.5 18.5t-61.5 8.5q-109 0 -169 -55.5t-74 -139.5v-729h-189zM197 -209q0 45 36 74t83 29q59 0 103 -39t44 -121q0 -55 -20.5 -98.5t-49 -74t-60.5 -49t-56 -26.5l-60 82 q39 16 67 48t28 79q-47 -10 -81 18.5t-34 77.5z" horiz-adv-x="778" unicode="ŗ"/><glyph d="M182 0v1419q43 8 95.5 14.5t105.5 10.5t106.5 6t100.5 2q102 0 197.5 -20.5t168 -67.5t116.5 -123t44 -186q0 -86 -26.5 -156t-73.5 -123t-111.5 -89t-140.5 -54l106 -72l385 -561h-235l-426 604l-207 29v-633h-205zM387 768h168q74 0 136.5 15.5t108.5 47t72.5 83 t26.5 124.5q0 111 -78 174.5t-225 63.5h-58q-30 0 -58.5 -2t-53.5 -4t-39 -6v-496zM203 1731v51h190l131 -101l39 -67l43 65l140 103h182v-53l-299 -205h-141z" horiz-adv-x="1337" unicode="Ř"/><glyph d="M180 0v1075h131l37 -143h19q47 80 109.5 124t156.5 44q29 0 67.5 -5t77.5 -18l-37 -180l-67.5 18.5t-61.5 8.5q-109 0 -169 -55.5t-74 -139.5v-729h-189zM129 1583h178l91 -139l57 -146l59 144l101 141h159l-280 -383h-100z" horiz-adv-x="778" unicode="ř"/><glyph d="M98 53l68 178q51 -27 154.5 -54t228.5 -27q72 0 133 13t107.5 40.5t72 70.5t25.5 103q0 84 -55.5 133t-139.5 85t-180 67.5t-180 81t-139.5 127t-55.5 202.5q0 174 128 280.5t366 106.5q137 0 251.5 -20.5t180.5 -53.5l-64 -172q-51 27 -153.5 48.5t-224.5 21.5 q-139 0 -209 -59.5t-70 -137.5q0 -80 55.5 -129t139.5 -86.5t180 -72.5t180 -86t139.5 -126t55.5 -192q0 -96 -37 -174t-106.5 -133t-168 -85t-223.5 -30q-168 0 -284 25.5t-175 54.5zM496 1540l260 242h270v-47l-364 -195h-166z" horiz-adv-x="1189" unicode="Ś"/><glyph d="M111 59l53 164q57 -31 147 -61.5t183 -30.5q100 0 164.5 36t64.5 134q0 41 -19.5 68.5t-52.5 47t-76 34.5l-90 28q-59 16 -119.5 36t-108.5 53.5t-79 87t-31 135.5q0 160 95.5 237.5t267.5 77.5q129 0 217 -24.5t154 -53.5l-45 -160q-55 27 -132 52.5t-169 25.5 q-100 0 -149.5 -32.5t-49.5 -118.5q0 -35 18.5 -58.5t49 -41t71.5 -31t86 -25.5q61 -16 122.5 -37.5t113 -57.5t83 -91.5t31.5 -139.5q0 -152 -102 -247t-307 -95q-131 0 -228 26.5t-163 61.5zM412 1167l131 308h213v-48l-229 -260h-115z" horiz-adv-x="1021" unicode="ś"/><glyph d="M98 53l68 178q51 -27 154.5 -54t228.5 -27q72 0 133 13t107.5 40.5t72 70.5t25.5 103q0 84 -55.5 133t-139.5 85t-180 67.5t-180 81t-139.5 127t-55.5 202.5q0 174 128 280.5t366 106.5q137 0 251.5 -20.5t180.5 -53.5l-64 -172q-51 27 -153.5 48.5t-224.5 21.5 q-139 0 -209 -59.5t-70 -137.5q0 -80 55.5 -129t139.5 -86.5t180 -72.5t180 -86t139.5 -126t55.5 -192q0 -96 -37 -174t-106.5 -133t-168 -85t-223.5 -30q-168 0 -284 25.5t-175 54.5zM256 1526v53l299 203h149l285 -205v-51h-188l-133 96l-41 72l-43 -70l-144 -98h-184z" horiz-adv-x="1189" unicode="Ŝ"/><glyph d="M111 59l53 164q57 -31 147 -61.5t183 -30.5q100 0 164.5 36t64.5 134q0 41 -19.5 68.5t-52.5 47t-76 34.5l-90 28q-59 16 -119.5 36t-108.5 53.5t-79 87t-31 135.5q0 160 95.5 237.5t267.5 77.5q129 0 217 -24.5t154 -53.5l-45 -160q-55 27 -132 52.5t-169 25.5 q-100 0 -149.5 -32.5t-49.5 -118.5q0 -35 18.5 -58.5t49 -41t71.5 -31t86 -25.5q61 -16 122.5 -37.5t113 -57.5t83 -91.5t31.5 -139.5q0 -152 -102 -247t-307 -95q-131 0 -228 26.5t-163 61.5zM202 1200l287 383h84l129 -192l127 -191h-164l-92 141l-53 146l-64 -146 l-98 -141h-156z" horiz-adv-x="1021" unicode="ŝ"/><glyph d="M98 53l68 178q51 -27 154.5 -54t228.5 -27q72 0 133 13t107.5 40.5t72 70.5t25.5 103q0 84 -55.5 133t-139.5 85t-180 67.5t-180 81t-139.5 127t-55.5 202.5q0 174 128 280.5t366 106.5q137 0 251.5 -20.5t180.5 -53.5l-64 -172q-51 27 -153.5 48.5t-224.5 21.5 q-139 0 -209 -59.5t-70 -137.5q0 -80 55.5 -129t139.5 -86.5t180 -72.5t180 -86t139.5 -126t55.5 -192q0 -176 -117 -285.5t-326 -129.5l-51 -89q100 -16 148.5 -53t48.5 -104q0 -86 -76 -138.5t-211 -52.5q-27 0 -54.5 2t-56.5 9l19 73q72 -4 112.5 2t61 20.5t26 32 t5.5 33.5q0 35 -52.5 54.5t-150.5 29.5l104 174q-154 4 -260.5 28.5t-163.5 51.5z" horiz-adv-x="1189" unicode="Ş"/><glyph d="M111 59l53 166q57 -31 147 -61.5t183 -30.5q100 0 164.5 35t64.5 133q0 41 -19.5 68.5t-52.5 47t-76 34.5l-90 28q-59 16 -119.5 36t-108.5 53.5t-79 87t-31 135.5q0 160 95.5 237.5t267.5 77.5q129 0 217 -24.5t154 -53.5l-45 -160q-55 27 -132 52.5t-169 25.5 q-100 0 -149.5 -32.5t-49.5 -118.5q0 -35 18.5 -58.5t49 -41t71.5 -31t86 -25.5q61 -16 122.5 -37.5t113 -57.5t83 -91.5t31.5 -139.5q0 -137 -83 -228t-253 -110l-49 -84q100 -16 148.5 -53t48.5 -104q0 -86 -76 -138.5t-211 -52.5q-27 0 -54.5 2t-55.5 9l18 73 q72 -4 113 2t61.5 20.5t25.5 32t5 33.5q0 35 -52.5 54.5t-150.5 29.5l103 174q-111 4 -195 28.5t-143 57.5z" horiz-adv-x="1021" unicode="ş"/><glyph d="M98 53l68 178q51 -27 154.5 -54t228.5 -27q72 0 133 13t107.5 40.5t72 70.5t25.5 103q0 84 -55.5 133t-139.5 85t-180 67.5t-180 81t-139.5 127t-55.5 202.5q0 174 128 280.5t366 106.5q137 0 251.5 -20.5t180.5 -53.5l-64 -172q-51 27 -153.5 48.5t-224.5 21.5 q-139 0 -209 -59.5t-70 -137.5q0 -80 55.5 -129t139.5 -86.5t180 -72.5t180 -86t139.5 -126t55.5 -192q0 -96 -37 -174t-106.5 -133t-168 -85t-223.5 -30q-168 0 -284 25.5t-175 54.5zM299 1731v51h190l131 -101l39 -67l43 65l140 103h182v-53l-299 -205h-141z" horiz-adv-x="1189" unicode="Š"/><glyph d="M111 59l53 164q57 -31 147 -61.5t183 -30.5q100 0 164.5 36t64.5 134q0 41 -19.5 68.5t-52.5 47t-76 34.5l-90 28q-59 16 -119.5 36t-108.5 53.5t-79 87t-31 135.5q0 160 95.5 237.5t267.5 77.5q129 0 217 -24.5t154 -53.5l-45 -160q-55 27 -132 52.5t-169 25.5 q-100 0 -149.5 -32.5t-49.5 -118.5q0 -35 18.5 -58.5t49 -41t71.5 -31t86 -25.5q61 -16 122.5 -37.5t113 -57.5t83 -91.5t31.5 -139.5q0 -152 -102 -247t-307 -95q-131 0 -228 26.5t-163 61.5zM192 1583h178l91 -139l57 -146l59 144l101 141h159l-280 -383h-100z" horiz-adv-x="1021" unicode="š"/><glyph d="M39 1253v181h1171v-181h-483v-1253h-205v1253h-483zM483 -209q0 45 36 74t83 29q59 0 103 -39t44 -121q0 -55 -20.5 -98.5t-49 -74t-60.5 -49t-56 -26.5l-60 82q39 16 67 48t28 79q-47 -10 -81 18.5t-34 77.5z" horiz-adv-x="1249" unicode="Ţ"/><glyph d="M39 1253v181h1171v-181h-483v-1253h-205v1253h-483zM483 -209q0 45 36 74t83 29q59 0 103 -39t44 -121q0 -55 -20.5 -98.5t-49 -74t-60.5 -49t-56 -26.5l-60 82q39 16 67 48t28 79q-47 -10 -81 18.5t-34 77.5z" horiz-adv-x="1249" unicode="Ț"/><glyph d="M49 915v160h182v217l189 49v-266h323v-160h-323v-548q0 -129 32.5 -182.5t112.5 -53.5q51 0 93 11.5t96 29.5l43 -133q-66 -29 -140.5 -48.5t-160.5 -19.5q-143 0 -204 78t-61 254v612h-182zM307 -209q0 45 36 74t83 29q59 0 103 -39t44 -121q0 -55 -20.5 -98.5t-49 -74 t-60.5 -49t-56 -26.5l-60 82q39 16 67 48t28 79q-47 -10 -81 18.5t-34 77.5z" horiz-adv-x="829" unicode="ţ"/><glyph d="M49 915v160h182v217l189 49v-266h323v-160h-323v-548q0 -129 32.5 -182.5t112.5 -53.5q51 0 93 11.5t96 29.5l43 -133q-66 -29 -140.5 -48.5t-160.5 -19.5q-143 0 -204 78t-61 254v612h-182zM307 -209q0 45 36 74t83 29q59 0 103 -39t44 -121q0 -55 -20.5 -98.5t-49 -74 t-60.5 -49t-56 -26.5l-60 82q39 16 67 48t28 79q-47 -10 -81 18.5t-34 77.5z" horiz-adv-x="829" unicode="ț"/><glyph d="M39 1253v181h1171v-181h-483v-1253h-205v1253h-483zM262 1731v51h190l131 -101l39 -67l43 65l140 103h182v-53l-299 -205h-141z" horiz-adv-x="1249" unicode="Ť"/><glyph d="M49 915v160h182v217l189 49v-266h323v-160h-323v-548q0 -129 32.5 -182.5t112.5 -53.5q51 0 93 11.5t96 29.5l43 -133q-66 -29 -140.5 -48.5t-160.5 -19.5q-143 0 -204 78t-61 254v612h-182zM484 1177q39 74 58.5 166t19.5 187h188q-4 -59 -25.5 -122t-50 -118t-58.5 -98 t-50 -62z" horiz-adv-x="829" unicode="ť"/><glyph d="M182 457v977h205v-899q0 -209 91 -291t270 -82q172 0 251.5 90t79.5 289v893h193v-936q0 -133 -38 -229.5t-107.5 -161t-165 -95t-211.5 -30.5q-276 0 -422 119.5t-146 355.5zM377 1552v140h717v-140h-717z" horiz-adv-x="1454" unicode="Ū"/><glyph d="M180 440v635h189v-592q0 -86 10 -151.5t36.5 -109.5t73 -67.5t117.5 -23.5q123 0 201 69.5t119 172.5v702h188v-770q0 -78 6 -158.5t19 -146.5h-127l-49 178h-21q-53 -92 -147.5 -149.5t-235.5 -57.5q-94 0 -164.5 22.5t-119 77t-72 144.5t-23.5 225zM295 1223v141h672 v-141h-672z" horiz-adv-x="1318" unicode="ū"/><glyph d="M182 457v977h205v-899q0 -209 91 -291t270 -82q172 0 251.5 90t79.5 289v893h193v-936q0 -133 -38 -229.5t-107.5 -161t-165 -95t-211.5 -30.5q-276 0 -422 119.5t-146 355.5zM338 1726l98 60q39 -66 119 -100.5t184 -34.5q109 0 183.5 40t109.5 95l90 -47 q-20 -57 -58 -102.5t-89 -77t-112.5 -48t-125.5 -16.5q-59 0 -118.5 13.5t-112.5 42t-97 71.5t-71 104z" horiz-adv-x="1454" unicode="Ŭ"/><glyph d="M180 440v635h189v-592q0 -86 10 -151.5t36.5 -109.5t73 -67.5t117.5 -23.5q123 0 201 69.5t119 172.5v702h188v-770q0 -78 6 -158.5t19 -146.5h-127l-49 178h-21q-53 -92 -147.5 -149.5t-235.5 -57.5q-94 0 -164.5 22.5t-119 77t-72 144.5t-23.5 225zM297 1505l103 49 q43 -76 115.5 -114.5t154.5 -38.5q80 0 148.5 38t109.5 115l92 -38q-8 -49 -37.5 -97.5t-77 -85.5t-109 -60.5t-128.5 -23.5q-133 0 -234.5 69.5t-136.5 186.5z" horiz-adv-x="1318" unicode="ŭ"/><glyph d="M182 457v977h205v-899q0 -209 91 -291t270 -82q172 0 251.5 90t79.5 289v893h193v-936q0 -133 -38 -229.5t-107.5 -161t-165 -95t-211.5 -30.5q-276 0 -422 119.5t-146 355.5zM498 1575q0 76 55 126t187 50q119 0 181 -45t62 -131q0 -74 -59.5 -123t-183.5 -49 q-123 0 -182.5 47t-59.5 125zM641 1575q0 -31 22.5 -53.5t76.5 -22.5q100 0 100 76q0 37 -24.5 58.5t-75.5 21.5t-75 -21.5t-24 -58.5z" horiz-adv-x="1454" unicode="Ů"/><glyph d="M180 440v635h189v-592q0 -86 10 -151.5t36.5 -109.5t73 -67.5t117.5 -23.5q123 0 201 69.5t119 172.5v702h188v-770q0 -78 6 -158.5t19 -146.5h-127l-49 178h-21q-53 -92 -147.5 -149.5t-235.5 -57.5q-94 0 -164.5 22.5t-119 77t-72 144.5t-23.5 225zM428 1399 q0 86 59.5 140t163.5 54q98 0 165 -48t67 -146q0 -41 -17.5 -76t-48 -60.5t-73.5 -41t-93 -15.5q-98 0 -160.5 50.5t-62.5 142.5zM545 1399q0 -41 34 -66.5t72 -25.5q47 0 81 22.5t34 69.5t-34.5 70.5t-80.5 23.5q-41 0 -73.5 -22.5t-32.5 -71.5z" horiz-adv-x="1318" unicode="ů"/><glyph d="M182 457v977h205v-899q0 -209 91 -291t270 -82q172 0 251.5 90t79.5 289v893h193v-936q0 -133 -38 -229.5t-107.5 -161t-165 -95t-211.5 -30.5q-276 0 -422 119.5t-146 355.5zM465 1518l141 223h221v-33l-223 -190h-139zM754 1518l227 223h235v-33l-321 -190h-141z" horiz-adv-x="1454" unicode="Ű"/><glyph d="M180 440v635h189v-592q0 -86 10 -151.5t36.5 -109.5t73 -67.5t117.5 -23.5q123 0 201 69.5t119 172.5v702h188v-770q0 -78 6 -158.5t19 -146.5h-127l-49 178h-21q-53 -92 -147.5 -149.5t-235.5 -57.5q-94 0 -164.5 22.5t-119 77t-72 144.5t-23.5 225zM420 1249l80 264 h184v-24l-163 -240h-101zM691 1249l167 264h207v-22l-270 -242h-104z" horiz-adv-x="1318" unicode="ű"/><glyph d="M180 457v977h205v-899q0 -209 91 -291t269 -82q172 0 252 90t80 289v893h193v-936q0 -190 -76 -306t-207 -169q-66 -33 -113 -80t-45 -131q2 -47 33 -80t90 -33q20 0 45 5t52 15l24 -94q-35 -25 -96.5 -38t-116.5 -13q-104 0 -164.5 52t-60.5 141q0 74 33.5 127t93.5 88 h-14q-276 0 -422 119.5t-146 355.5z" horiz-adv-x="1449" unicode="Ų"/><glyph d="M180 440v635h189v-592q0 -86 10 -151.5t36.5 -109.5t73 -67.5t117.5 -23.5q123 0 201 69.5t119 172.5v702h188v-770q0 -78 6 -158.5t19 -146.5h-47q-66 -35 -97.5 -80t-29.5 -110q2 -47 32.5 -82t92.5 -35q20 0 43.5 3t48.5 13l22 -86q-37 -23 -93 -36t-107 -13 q-109 0 -171.5 50t-62.5 134q0 82 67.5 144.5t172.5 99.5l-47 176h-21q-53 -92 -147.5 -149.5t-235.5 -57.5q-94 0 -164.5 22.5t-119 77t-72 144.5t-23.5 225z" horiz-adv-x="1318" unicode="ų"/><glyph d="M14 1434h240l358 -609l35 -131h4l39 135l342 605h217l-510 -871v-563h-204v561zM291 1628q0 47 33.5 74t93.5 27q57 0 92 -27t35 -74q0 -45 -35 -72.5t-92 -27.5q-59 0 -93 27.5t-34 72.5zM729 1628q0 47 34 74t91 27q59 0 94 -27t35 -74q0 -45 -35 -72.5t-94 -27.5 q-57 0 -91 27.5t-34 72.5z" horiz-adv-x="1263" unicode="Ÿ"/><glyph d="M80 0v180l772 991l100 82h-872v181h1061v-181l-779 -997l-96 -76h875v-180h-1061zM463 1540l260 242h270v-47l-364 -195h-166z" horiz-adv-x="1220" unicode="Ź"/><glyph d="M98 0v162l531 647l143 106h-674v160h846v-162l-536 -653l-144 -100h680v-160h-846zM402 1167l131 308h213v-48l-229 -260h-115z" horiz-adv-x="1054" unicode="ź"/><glyph d="M80 0v180l772 991l100 82h-872v181h1061v-181l-779 -997l-96 -76h875v-180h-1061zM465 1634q0 45 39 78t108 33q70 0 110 -33t40 -78q0 -49 -40 -80.5t-110 -31.5t-108.5 31.5t-38.5 80.5z" horiz-adv-x="1220" unicode="Ż"/><glyph d="M98 0v162l531 647l143 106h-674v160h846v-162l-536 -653l-144 -100h680v-160h-846zM391 1331q0 47 37 85t96 38t98 -38t39 -85t-39 -83t-98 -36t-96 36t-37 83z" horiz-adv-x="1054" unicode="ż"/><glyph d="M80 0v180l772 991l100 82h-872v181h1061v-181l-779 -997l-96 -76h875v-180h-1061zM221 1731v51h190l131 -101l39 -67l43 65l140 103h182v-53l-299 -205h-141z" horiz-adv-x="1220" unicode="Ž"/><glyph d="M98 0v162l531 647l143 106h-674v160h846v-162l-536 -653l-144 -100h680v-160h-846zM196 1583h178l91 -139l57 -146l59 144l101 141h159l-280 -383h-100z" horiz-adv-x="1054" unicode="ž"/><glyph d="M53 915v160h185v68q0 70 18 128t58 99t105.5 64.5t158.5 23.5q39 0 70.5 -2t60 -7t58.5 -13.5t64 -20.5l-45 -153q-53 23 -100 29.5t-86 6.5q-47 0 -80 -9t-54.5 -31.5t-30.5 -64.5t-9 -110v-1083h-188v915h-185z" horiz-adv-x="677" unicode="ſ"/><glyph d="M-82 -375l43 156q53 -20 98 -31.5t103 -11.5q84 0 128 63.5t70 214.5l156 895h-186v164h215l18 86q12 76 36 132.5t62.5 93t96 55t141.5 18.5q74 0 148.5 -18.5t132.5 -40.5l-54 -150q-53 20 -105 32.5t-106 12.5q-80 0 -110.5 -43t-48.5 -149l-8 -29h268v-164h-297 l-180 -981q-14 -76 -39 -140t-67 -112.5t-103.5 -76t-147.5 -27.5q-61 0 -136 16.5t-128 34.5z" unicode="ƒ"/><glyph d="M119 717q0 199 64.5 340t167 231t228.5 131t250 41q135 0 224.5 -15t148.5 -38l-49 -174q-106 47 -307 47q-92 0 -183.5 -28.5t-164 -95t-117.5 -174.5t-45 -265q0 -145 38 -252t105.5 -176.5t159.5 -102t201 -32.5q68 0 130 13t109 38v362l-366 37v119h536v-633 q-37 -29 -88 -50.5t-109.5 -35.5t-120 -22.5t-120.5 -8.5q-147 0 -273 44t-219.5 136.5t-146.5 233t-53 330.5zM686 1540l260 242h270v-47l-364 -195h-166z" horiz-adv-x="1368" unicode="Ǵ"/><glyph d="M123 528q0 276 143.5 426t425.5 150q135 0 232.5 -16.5t175.5 -43.5v-1050q0 -211 -124 -314.5t-364 -103.5q-139 0 -225 16.5t-147 45.5l45 169q27 -12 61.5 -25t73.5 -23.5t79 -16.5t76 -6q100 0 166 17.5t105 54t53 94t14 137.5v76h-22q-33 -53 -115 -86t-198 -33 q-233 0 -344 125.5t-111 406.5zM324 532q0 -180 66.5 -278t227.5 -98q125 0 196 63.5t97 165.5v528q-47 14 -108.5 22.5t-138.5 8.5q-160 0 -250 -101.5t-90 -310.5zM563 1167l131 308h213v-48l-229 -260h-115z" horiz-adv-x="1284" unicode="ǵ"/><glyph d="M98 53l68 178q51 -27 154.5 -54t228.5 -27q72 0 133 13t107.5 40.5t72 70.5t25.5 103q0 84 -55.5 133t-139.5 85t-180 67.5t-180 81t-139.5 127t-55.5 202.5q0 174 128 280.5t366 106.5q137 0 251.5 -20.5t180.5 -53.5l-64 -172q-51 27 -153.5 48.5t-224.5 21.5 q-139 0 -209 -59.5t-70 -137.5q0 -80 55.5 -129t139.5 -86.5t180 -72.5t180 -86t139.5 -126t55.5 -192q0 -96 -37 -174t-106.5 -133t-168 -85t-223.5 -30q-168 0 -284 25.5t-175 54.5zM453 -209q0 45 36 74t83 29q59 0 103 -39t44 -121q0 -55 -20.5 -98.5t-49 -74t-60.5 -49 t-56 -26.5l-60 82q39 16 67 48t28 79q-47 -10 -81 18.5t-34 77.5z" horiz-adv-x="1189" unicode="Ș"/><glyph d="M111 59l53 164q57 -31 147 -61.5t183 -30.5q100 0 164.5 36t64.5 134q0 41 -19.5 68.5t-52.5 47t-76 34.5l-90 28q-59 16 -119.5 36t-108.5 53.5t-79 87t-31 135.5q0 160 95.5 237.5t267.5 77.5q129 0 217 -24.5t154 -53.5l-45 -160q-55 27 -132 52.5t-169 25.5 q-100 0 -149.5 -32.5t-49.5 -118.5q0 -35 18.5 -58.5t49 -41t71.5 -31t86 -25.5q61 -16 122.5 -37.5t113 -57.5t83 -91.5t31.5 -139.5q0 -152 -102 -247t-307 -95q-131 0 -228 26.5t-163 61.5zM371 -209q0 45 36 74t83 29q59 0 103 -39t44 -121q0 -55 -20.5 -98.5t-49 -74 t-60.5 -49t-56 -26.5l-60 82q39 16 67 48t28 79q-47 -10 -81 18.5t-34 77.5z" horiz-adv-x="1021" unicode="ș"/><glyph d="M25 -270q68 -2 107.5 16t61 56t28.5 94.5t7 134.5v1044h189v-1112q0 -199 -75 -296t-241 -97h-35q-19 0 -42 4v156z" horiz-adv-x="638" unicode="ȷ"/><glyph d="M90 1341q0 49 34 79t87 30q66 0 105.5 -39t39.5 -115q0 -72 -22.5 -123t-54 -85.5t-66.5 -54t-59 -27.5l-58 84q49 23 81 58.5t30 88.5q-53 -10 -85 20.5t-32 83.5z" horiz-adv-x="444" unicode="ʼ"/><glyph d="M141 1200l287 383h84l129 -192l127 -191h-164l-92 141l-53 146l-64 -146l-98 -141h-156z" horiz-adv-x="903" unicode="ˆ"/><glyph d="M141 1583h178l91 -139l57 -146l59 144l101 141h159l-280 -383h-100z" horiz-adv-x="921" unicode="ˇ"/><glyph d="M137 1505l103 49q43 -76 115.5 -114.5t154.5 -38.5q80 0 148.5 38t109.5 115l92 -38q-8 -49 -37.5 -97.5t-77 -85.5t-109 -60.5t-128.5 -23.5q-133 0 -234.5 69.5t-136.5 186.5z" horiz-adv-x="989" unicode="˘"/><glyph d="M123 1331q0 47 37 85t96 38t98 -38t39 -85t-39 -83t-98 -36t-96 36t-37 83z" horiz-adv-x="516" unicode="˙"/><glyph d="M137 1399q0 86 59.5 140t163.5 54q98 0 165 -48t67 -146q0 -41 -17.5 -76t-48 -60.5t-73.5 -41t-93 -15.5q-98 0 -160.5 50.5t-62.5 142.5zM254 1399q0 -41 34 -66.5t72 -25.5q47 0 81 22.5t34 69.5t-34.5 70.5t-80.5 23.5q-41 0 -73.5 -22.5t-32.5 -71.5z" horiz-adv-x="722" unicode="˚"/><glyph d="M137 -238q0 82 64.5 142.5t173.5 95.5h106q-70 -35 -110.5 -81t-38.5 -107q2 -47 32.5 -80t90.5 -33q20 0 44.5 5t51.5 15l24 -94q-35 -25 -96 -38t-117 -13q-104 0 -164.5 50t-60.5 138z" horiz-adv-x="706" unicode="˛"/><glyph d="M137 1425q66 72 119 97.5t100 25.5q37 0 71 -13t67.5 -30.5t67.5 -31t73 -13.5q51 0 110 49l46 -98q-55 -57 -103.5 -80.5t-89.5 -23.5q-39 0 -74 14t-68.5 30.5t-68.5 31t-74 14.5q-33 0 -64.5 -12.5t-70.5 -49.5z" horiz-adv-x="921" unicode="˜"/><glyph d="M137 1249l80 264h184v-24l-163 -240h-101zM408 1249l167 264h207v-22l-270 -242h-104z" horiz-adv-x="911" unicode="˝"/><glyph d="M-555 1167l131 308h213v-48l-229 -260h-115z" horiz-adv-x="4" unicode="́"/><glyph d="M33 0v92l565 1362h88l571 -1362v-92h-1224zM258 176h764l-330 776l-55 205h-4l-62 -207z" horiz-adv-x="1280" unicode="Δ"/><glyph d="M33 0v92l565 1362h88l571 -1362v-92h-1224zM258 176h764l-330 776l-55 205h-4l-62 -207z" horiz-adv-x="1280" unicode="∆"/><glyph d="M166 0v168h256l207 -23v56l-117 18q-72 31 -134.5 83t-109.5 123t-74.5 160t-27.5 193q0 156 51 282t146.5 215t230.5 137t301 48q174 0 310 -51t230.5 -143t142.5 -218t48 -276q0 -109 -30.5 -198t-80 -157.5t-109.5 -116.5t-120 -79l-127 -20v-56l211 23h258v-168h-649 v303q66 10 140.5 40t139 85t107.5 141t43 211q0 92 -28.5 181.5t-91 160t-161 114.5t-235.5 44q-248 0 -379 -128t-131 -378q0 -121 40 -207t102.5 -141t138 -85t147.5 -38v-303h-645z" horiz-adv-x="1792" unicode="Ω"/><glyph d="M166 0v168h256l207 -23v56l-117 18q-72 31 -134.5 83t-109.5 123t-74.5 160t-27.5 193q0 156 51 282t146.5 215t230.5 137t301 48q174 0 310 -51t230.5 -143t142.5 -218t48 -276q0 -109 -30.5 -198t-80 -157.5t-109.5 -116.5t-120 -79l-127 -20v-56l211 23h258v-168h-649 v303q66 10 140.5 40t139 85t107.5 141t43 211q0 92 -28.5 181.5t-91 160t-161 114.5t-235.5 44q-248 0 -379 -128t-131 -378q0 -121 40 -207t102.5 -141t138 -85t147.5 -38v-303h-645z" horiz-adv-x="1792" unicode="Ω"/><glyph d="M90 881q45 92 110.5 143t186.5 51h1043v-160h-199v-647q0 -66 22.5 -91t63.5 -25q23 0 49.5 2t54.5 8l15 -133q-35 -14 -87.5 -25.5t-115.5 -11.5q-109 0 -150 60.5t-41 166.5v696h-456v-915h-189v915h-45q-47 0 -77.5 -25.5t-65.5 -72.5z" horiz-adv-x="1576" unicode="π"/><glyph d="M182 0v1434h867v-177h-662v-436h604v-176h-604v-469h672v-176h-877zM256 1628q0 47 33.5 74t93.5 27q57 0 92 -27t35 -74q0 -45 -35 -72.5t-92 -27.5q-59 0 -93 27.5t-34 72.5zM694 1628q0 47 34 74t91 27q59 0 94 -27t35 -74q0 -45 -35 -72.5t-94 -27.5q-57 0 -91 27.5 t-34 72.5z" horiz-adv-x="1198" unicode="Ё"/><glyph d="M39 1253v181h1171v-181h-483v-393q29 8 106.5 25.5t202.5 17.5q88 0 174 -20.5t155 -69.5t111 -133t42 -213q0 -246 -136.5 -364.5t-390.5 -118.5q-74 0 -106.5 2t-48.5 6v178q27 -4 62.5 -5t96.5 -1q147 0 226 70.5t79 218.5q0 82 -25.5 135t-70.5 83.5t-105.5 43 t-129.5 12.5q-37 0 -75 -5t-70.5 -11t-58.5 -13.5t-38 -11.5v-686h-205v1253h-483z" horiz-adv-x="1636" unicode="Ђ"/><glyph d="M182 0v1434h850v-181h-645v-1253h-205zM438 1540l260 242h270v-47l-364 -195h-166z" horiz-adv-x="995" unicode="Ѓ"/><glyph d="M119 717q0 201 61.5 342t159.5 230t221 130t244 41q135 0 220 -14t144 -37l-47 -172q-100 47 -301 47q-84 0 -163.5 -24.5t-145.5 -80t-112 -142.5t-60 -210h674v-176h-678q8 -123 50 -217t109.5 -157.5t156.5 -95t194 -31.5q100 0 174 18t125 47l47 -154 q-68 -49 -170 -68.5t-219 -19.5q-137 0 -261 44t-218.5 135.5t-149.5 231.5t-55 333z" horiz-adv-x="1304" unicode="Є"/><glyph d="M98 53l68 178q51 -27 154.5 -54t228.5 -27q72 0 133 13t107.5 40.5t72 70.5t25.5 103q0 84 -55.5 133t-139.5 85t-180 67.5t-180 81t-139.5 127t-55.5 202.5q0 174 128 280.5t366 106.5q137 0 251.5 -20.5t180.5 -53.5l-64 -172q-51 27 -153.5 48.5t-224.5 21.5 q-139 0 -209 -59.5t-70 -137.5q0 -80 55.5 -129t139.5 -86.5t180 -72.5t180 -86t139.5 -126t55.5 -192q0 -96 -37 -174t-106.5 -133t-168 -85t-223.5 -30q-168 0 -284 25.5t-175 54.5z" horiz-adv-x="1189" unicode="Ѕ"/><glyph d="M141 0v135h164v1163h-164v136h533v-136h-164v-1163h164v-135h-533z" horiz-adv-x="815" unicode="І"/><glyph d="M141 0v135h164v1163h-164v136h533v-136h-164v-1163h164v-135h-533zM152 1624q0 49 32.5 77t81.5 28q47 0 80 -28t33 -77q0 -47 -33 -75.5t-80 -28.5q-49 0 -81.5 28.5t-32.5 75.5zM438 1624q0 49 33 77t82 28t82 -28t33 -77q0 -47 -33 -75.5t-82 -28.5t-82 28.5t-33 75.5 z" horiz-adv-x="815" unicode="Ї"/><glyph d="M-72 14l39 170q57 -25 137 -24q92 0 122 59.5t30 163.5v1051h205v-1106q0 -160 -83 -254t-245 -94q-20 0 -48 2t-56.5 7t-55.5 11t-45 14z" horiz-adv-x="665" unicode="Ј"/><glyph d="M-8 10l26 172q25 -6 49.5 -6t50 9.5t50.5 31t47 59.5q31 53 57.5 143.5t47 229.5t34 333t19.5 452h844v-547q10 2 35.5 5t57.5 5l64 4q33 2 60 2q106 0 208.5 -20.5t183.5 -69.5t131 -134t50 -214q0 -123 -48 -214t-131 -150.5t-195.5 -89t-243.5 -29.5q-31 0 -77 1 t-98.5 5t-104.5 10t-97 16v1239h-451q-10 -203 -23.5 -368.5t-34 -299.5t-48 -236.5t-68.5 -178.5q-53 -98 -122.5 -139t-145.5 -41q-43 0 -70.5 5t-56.5 15zM1217 170q29 -8 84 -10t110 -2q76 0 144.5 17.5t121 54t83 92t30.5 133.5q0 82 -33 135t-87 84t-123.5 42 t-141.5 11q-18 0 -47 -2l-56 -4q-28 -2 -51.5 -6t-33.5 -6v-539z" horiz-adv-x="2076" unicode="Љ"/><glyph d="M182 0v1434h205v-584h727v584h205v-582q12 2 37.5 5t57.5 5l65 4q33 2 59 2q106 0 208.5 -17t183.5 -63.5t130 -128t49 -210.5q0 -123 -47 -211t-130 -145.5t-196.5 -84t-244.5 -26.5q-31 0 -77 2t-98 5t-104.5 9t-97.5 14v658h-727v-670h-205zM1319 170q29 -6 85 -9 t109 -3q80 0 149 14t120 47t80.5 86t29.5 129q0 82 -31.5 133t-85 79t-123 37t-145.5 9q-18 0 -47 -2l-56 -4q-28 -2 -51.5 -6t-33.5 -6v-504z" horiz-adv-x="2179" unicode="Њ"/><glyph d="M39 1253v181h1171v-181h-483v-442q59 31 158.5 61.5t226.5 30.5q94 0 173 -20.5t136.5 -67.5t89 -125t31.5 -190v-500h-205v455q0 272 -272 272q-104 0 -193.5 -24.5t-144.5 -67.5v-635h-205v1253h-483z" horiz-adv-x="1681" unicode="Ћ"/><glyph d="M182 0v1434h205v-660l94 29l516 631h234l-516 -615l-97 -69l113 -82l569 -668h-258l-555 651h-100v-651h-205zM492 1540l260 242h270v-47l-364 -195h-166z" horiz-adv-x="1370" unicode="Ќ"/><glyph d="M10 1434h236l391 -738l55 -182h13l43 188l290 732h209l-401 -947q-59 -137 -104.5 -232t-93.5 -154.5t-103.5 -86t-134.5 -26.5q-74 0 -118 11t-85 36l59 168q43 -25 81 -30t71 -5q59 0 101 52t75 157zM264 1741l190 43q10 -74 62.5 -112t138.5 -38t138.5 38t62.5 110 l172 -37q-27 -113 -117 -176.5t-258 -63.5q-162 0 -265.5 55.5t-123.5 180.5z" horiz-adv-x="1245" unicode="Ў"/><glyph d="M182 0v1434h205v-1254h698v1254h205v-1434h-450l-33 -365h-129l-45 365h-451z" horiz-adv-x="1472" unicode="Џ"/><glyph d="M16 0l590 1454h107l592 -1454h-213l-156 375h-567l-152 -375h-201zM430 547h447l-166 407l-56 220h-4l-55 -224z" horiz-adv-x="1320" unicode="А"/><glyph d="M182 14v1420h869v-181h-664v-389q37 6 91 12.5t108 6.5q115 0 218 -20.5t182 -70t126 -131t47 -204.5t-48 -212t-128 -147.5t-186.5 -87t-223.5 -28.5q-37 0 -87 1t-103 5t-105.5 10t-95.5 16zM387 170q14 -4 39 -6t53.5 -4t59.5 -2h59q70 0 132.5 16t109.5 50t74.5 85 t27.5 121q0 90 -30.5 144.5t-83 84t-121 39t-142.5 9.5q-20 0 -46 -2l-52 -5q-27 -2 -48 -6l-32 -6v-518z" horiz-adv-x="1241" unicode="Б"/><glyph d="M182 10v1411q84 14 197 22.5t242 8.5q88 0 181 -15.5t169 -54.5t125 -106.5t49 -173.5q0 -53 -17.5 -105.5t-53.5 -98.5t-91 -81t-131 -51v-8q66 -8 127 -33t108.5 -68t76 -104t28.5 -145q0 -111 -51 -192t-135 -133t-189.5 -76.5t-212.5 -24.5q-37 0 -90 1t-111.5 4 t-117 8t-103.5 15zM383 168q14 -4 43 -6t62.5 -4t67.5 -3t62 -1q70 0 134.5 14t113.5 45t79 78t30 112q0 82 -36 130.5t-93.5 74t-129 32.5t-141.5 7h-192v-479zM383 807h113q39 0 90 3t86 7q51 14 97 35.5t81 51.5t55.5 70t20.5 91q0 70 -28 112t-73 64.5t-102 30.5t-117 8 q-72 0 -132 -3t-91 -7v-463z" horiz-adv-x="1312" unicode="В"/><glyph d="M182 0v1434h850v-181h-645v-1253h-205z" horiz-adv-x="995" unicode="Г"/><glyph d="M10 180h160q18 23 56 104t76 231.5t64.5 377.5t24.5 541h854v-1254h205v-442h-141l-35 262h-1090l-32 -262h-142v442zM387 180h653v1073h-460q-8 -217 -25.5 -388t-43.5 -302t-57.5 -225.5t-66.5 -157.5z" horiz-adv-x="1507" unicode="Д"/><glyph d="M182 0v1434h867v-177h-662v-436h604v-176h-604v-469h672v-176h-877z" horiz-adv-x="1198" unicode="Е"/><glyph d="M-4 0l483 639l109 78l-105 74l-456 643h237l438 -635h101v635h192v-660l95 29l436 631h227l-442 -623l-92 -68l114 -84l490 -659h-248l-479 655h-101v-655h-192v680l-94 -29l-478 -651h-235z" horiz-adv-x="1818" unicode="Ж"/><glyph d="M90 33l51 176q53 -23 146.5 -41t228.5 -18q63 0 127 16t115 49t82.5 83t31.5 120q0 123 -95 180t-265 68q-27 2 -47.5 3t-48.5 1h-111v159h35h48q30 0 61.5 2.5t61.5 3.5t48 5q111 14 188.5 70.5t77.5 150.5q0 63 -23.5 105t-65.5 68t-97 37t-117 11q-119 0 -207 -18.5 t-135 -40.5l-55 163q20 12 63 24.5t99.5 23t125 17.5t140.5 7q90 0 178 -17.5t156.5 -58.5t111.5 -108.5t43 -169.5t-72.5 -194.5t-219.5 -133.5v-8q158 -23 249 -110t91 -234q0 -117 -51.5 -202t-134.5 -140t-188.5 -82t-215.5 -27q-147 0 -248 17.5t-162 42.5z" horiz-adv-x="1206" unicode="З"/><glyph d="M182 0v1434h205v-955l-18 -155h10l102 161l733 949h127v-1434h-204v948l12 158h-8l-99 -162l-735 -944h-125z" horiz-adv-x="1523" unicode="И"/><glyph d="M182 0v1434h205v-955l-18 -155h10l102 161l733 949h127v-1434h-204v948l12 158h-8l-99 -162l-735 -944h-125zM389 1741l190 43q10 -74 62.5 -112t138.5 -38t138.5 38t62.5 110l172 -37q-27 -113 -117 -176.5t-258 -63.5q-162 0 -265.5 55.5t-123.5 180.5z" horiz-adv-x="1523" unicode="Й"/><glyph d="M182 0v1434h205v-660l94 29l516 631h234l-516 -615l-97 -69l113 -82l569 -668h-258l-555 651h-100v-651h-205z" horiz-adv-x="1370" unicode="К"/><glyph d="M-8 10l26 172q25 -6 49.5 -6t50 9.5t50.5 31t47 59.5q31 53 57.5 143.5t47 229.5t34 333t19.5 452h844v-1434h-205v1253h-451q-10 -203 -23.5 -368.5t-34 -299.5t-48 -236.5t-68.5 -178.5q-53 -98 -122.5 -139t-145.5 -41q-43 0 -70.5 5t-56.5 15z" horiz-adv-x="1398" unicode="Л"/><glyph d="M182 0v1434h154l485 -732l76 -155h4l72 160l461 727h161v-1434h-204v924l22 229h-8l-88 -199l-399 -635h-62l-420 637l-84 195h-10l33 -225v-926h-193z" horiz-adv-x="1777" unicode="М"/><glyph d="M182 0v1434h205v-613h727v613h205v-1434h-205v641h-727v-641h-205z" horiz-adv-x="1501" unicode="Н"/><glyph d="M119 717q0 176 44 314t127 233.5t202.5 145.5t271.5 50q162 0 283.5 -54t202.5 -151.5t121 -234.5t40 -303q0 -176 -44 -314.5t-128 -233.5t-204 -145.5t-271 -50.5q-164 0 -285 54.5t-200.5 151.5t-119.5 234.5t-40 303.5zM336 717q0 -117 25.5 -219.5t78 -180 t133 -122.5t191.5 -45q199 0 314.5 137t115.5 430q0 115 -25.5 217t-78 180t-133 124t-193.5 46q-197 0 -312.5 -139t-115.5 -428z" horiz-adv-x="1529" unicode="О"/><glyph d="M182 0v1434h1108v-1434h-205v1253h-698v-1253h-205z" horiz-adv-x="1472" unicode="П"/><glyph d="M182 0v1419q86 18 187.5 25.5t199.5 7.5q104 0 212 -18.5t196 -67.5t144.5 -136t56.5 -224q0 -129 -51.5 -220.5t-136.5 -148.5t-194.5 -84t-226.5 -27q-12 0 -38 1l-53 2q-28 1 -53.5 3.5t-37.5 4.5v-537h-205zM387 713q10 -4 33.5 -5t49.5 -3.5t49 -2.5h36 q74 0 145.5 11.5t130 44.5t94.5 92t36 154q0 82 -35 135t-90.5 83.5t-124 42t-136.5 11.5q-55 0 -107 -2t-81 -10v-551z" horiz-adv-x="1257" unicode="Р"/><glyph d="M119 717q0 201 61.5 342t159.5 230t221 130t244 41q135 0 221 -14t145 -37l-45 -176q-100 47 -305 47q-92 0 -179 -29.5t-155.5 -96.5t-109.5 -174.5t-41 -262.5q0 -139 39 -244.5t107.5 -176.5t161.5 -106.5t204 -35.5q100 0 174 18t125 47l49 -158q-68 -49 -172 -68.5 t-221 -19.5q-137 0 -261 44t-218.5 135.5t-149.5 231.5t-55 333z" horiz-adv-x="1277" unicode="С"/><glyph d="M39 1253v181h1171v-181h-483v-1253h-205v1253h-483z" horiz-adv-x="1249" unicode="Т"/><glyph d="M10 1434h236l391 -738l55 -182h13l43 188l290 732h209l-401 -947q-59 -137 -104.5 -232t-93.5 -154.5t-103.5 -86t-134.5 -26.5q-74 0 -118 11t-85 36l59 168q43 -25 81 -30t71 -5q59 0 101 52t75 157z" horiz-adv-x="1245" unicode="У"/><glyph d="M88 717q0 137 40 246.5t112.5 186.5t174 118t224.5 41q29 0 72 -2t67 -9v177h197v-183q41 10 94 13.5t88 3.5q106 0 199.5 -37t162 -109.5t107.5 -179t39 -246.5q0 -143 -44 -253.5t-119 -185.5t-174 -113t-210 -38q-25 0 -71 3.5t-72 11.5v-203h-197v199 q-41 -6 -89 -8.5t-93 -2.5q-106 0 -198.5 35t-161 105.5t-108.5 177.5t-40 252zM297 717q0 -92 24.5 -167t69.5 -128t107.5 -82t136.5 -29q23 0 70 1t77 12v813q-27 4 -63.5 6t-69.5 2q-74 0 -137 -26.5t-111.5 -81t-76 -134.5t-27.5 -186zM971 317q23 -4 57.5 -5t67.5 -1 q74 0 139 27t114.5 79t78 132t28.5 188q0 90 -23.5 165t-66.5 129t-104.5 84t-135.5 30q-31 0 -79 -2t-76 -10v-816z" horiz-adv-x="1755" unicode="Ф"/><glyph d="M55 0l518 729l-473 705h244l309 -471l56 -119l53 119l323 471h226l-488 -691l510 -743h-239l-342 500l-64 125l-57 -125l-350 -500h-226z" horiz-adv-x="1388" unicode="Х"/><glyph d="M182 0v1434h205v-1254h682v1254h205v-1254h207v-442h-142l-32 262h-1125z" horiz-adv-x="1540" unicode="Ц"/><glyph d="M156 938v496h204v-453q0 -137 66 -212t207 -75q104 0 193 24.5t145 65.5v650h205v-1434h-205v610q-59 -33 -158.5 -62.5t-228.5 -29.5q-96 0 -175 22.5t-135.5 74t-87 130t-30.5 193.5z" horiz-adv-x="1357" unicode="Ч"/><glyph d="M182 0v1434h205v-1254h494v1254h204v-1254h492v1254h205v-1434h-1600z" horiz-adv-x="1964" unicode="Ш"/><glyph d="M182 0v1434h205v-1254h492v1254h204v-1254h492v1254h205v-1254h209v-442h-142l-32 262h-1633z" horiz-adv-x="2048" unicode="Щ"/><glyph d="M-4 1253v181h565v-547q10 2 36 5t58 5l66 4q33 2 59 2q104 0 207 -20.5t183.5 -69.5t131 -134t50.5 -214q0 -121 -47.5 -212t-130 -151.5t-196.5 -90t-245 -29.5q-31 0 -77 1t-98 5t-105.5 10t-96.5 16v1239h-360zM561 170q31 -8 86 -10t109 -2q76 0 144.5 18.5t120.5 55 t83 92t31 131.5q0 82 -33 135t-87 84t-123 42t-142 11q-18 0 -48 -2l-56 -4q-28 -2 -51.5 -6t-33.5 -6v-539z" horiz-adv-x="1421" unicode="Ъ"/><glyph d="M182 14v1420h205v-547q12 2 32.5 5t46.5 5l53 4q28 2 54 2q106 0 207 -20.5t178.5 -70.5t123.5 -134t46 -211q0 -123 -44 -215t-121.5 -151.5t-186 -89t-239.5 -29.5q-31 0 -74 1t-91 5t-97.5 10t-92.5 16zM387 170q29 -8 71 -10t95 -2q76 0 141.5 18.5t113.5 55t75.5 92 t27.5 129.5q0 82 -30.5 135t-80.5 83.5t-117 43t-140 12.5q-39 0 -86 -6t-70 -12v-539zM1346 0v1434h204v-1434h-204z" horiz-adv-x="1732" unicode="Ы"/><glyph d="M182 14v1420h205v-547q10 2 36 5t57 5l65 4q33 2 59 2q106 0 208.5 -20.5t183.5 -69.5t131.5 -134t50.5 -214q0 -123 -48.5 -214t-131.5 -150.5t-195.5 -89t-243.5 -29.5q-31 0 -77 1t-98 5t-104.5 10t-97.5 16zM387 170q29 -8 84 -10t111 -2q76 0 144.5 17.5t120.5 54 t83 92t31 133.5q0 82 -33 135t-87.5 84t-124 42t-141.5 11q-18 0 -47 -2l-56 -4q-28 -2 -51.5 -6t-33.5 -6v-539z" horiz-adv-x="1247" unicode="Ь"/><glyph d="M92 31l53 176q51 -25 134 -41t178 -16q88 0 174 25.5t154.5 83.5t114.5 152.5t56 229.5h-626v176h624q-20 238 -149 351.5t-334 115.5q-109 2 -192.5 -20.5t-133.5 -51.5l-49 164q68 39 173.5 61.5t222.5 22.5q143 0 267 -41t216 -130t145.5 -230t53.5 -342 q0 -203 -61.5 -344.5t-163 -230.5t-233.5 -129t-274 -40q-113 0 -202 17.5t-148 40.5z" horiz-adv-x="1292" unicode="Э"/><glyph d="M182 0v1434h205v-613h266q23 307 180.5 473t438.5 166q162 0 278.5 -53t190.5 -151.5t108.5 -235.5t34.5 -303q0 -354 -154.5 -549t-457.5 -195q-152 0 -264.5 48.5t-189.5 135.5t-118 209.5t-49 274.5h-264v-641h-205zM870 717q0 -115 21.5 -218.5t69 -181t124 -122.5 t187.5 -45q199 0 297 137t98 430q0 113 -19.5 216t-65.5 181t-122 124t-188 46q-199 0 -300.5 -139t-101.5 -428z" horiz-adv-x="2002" unicode="Ю"/><glyph d="M51 0l346 500l135 90q-80 14 -147.5 46t-117.5 83t-77.5 120.5t-27.5 161.5q0 125 47 211t127 139.5t188.5 77t231.5 23.5q76 0 167 -7t173 -26v-1419h-205v610l-219 -45l-383 -565h-238zM379 1004q0 -76 28.5 -128.5t79 -84t117 -46t141.5 -14.5h146v533q-29 8 -61.5 10 t-86.5 2q-72 0 -137 -12.5t-115.5 -43t-81 -82.5t-30.5 -134z" horiz-adv-x="1277" unicode="Я"/><glyph d="M92 287q0 92 40 159.5t103.5 110.5t144.5 63.5t161 20.5q63 0 107 -2t74 -5t50.5 -6t36.5 -5q4 31 6 53t2 57q0 57 -12 96t-40 62.5t-75 34t-115 10.5q-39 0 -86 -6t-94 -17.5t-93 -28t-83 -34.5l-51 158q184 88 457 88q123 0 197.5 -32t115.5 -81t54.5 -109.5 t13.5 -119.5q0 -113 -8.5 -226.5t-8.5 -246.5q0 -78 7.5 -151t23.5 -134h-137l-52 164h-20q-23 -31 -55.5 -62.5t-77.5 -56.5t-103.5 -41t-134.5 -16t-139 21.5t-109.5 60t-73 95t-26.5 126.5zM293 307q0 -82 58.5 -123t150.5 -41q68 0 120 17.5t90 43t61.5 57.5t35.5 63 v163q-16 2 -34.5 6.5t-46.5 6.5t-65.5 4t-93.5 2q-127 0 -201.5 -45t-74.5 -154z" horiz-adv-x="1191" unicode="а"/><glyph d="M131 633q0 184 20.5 313t60.5 215t96.5 136.5t126 77t152.5 36.5t177 19q119 10 190.5 22t116.5 43l21 -166q-47 -31 -126 -44t-221 -23q-98 -6 -174.5 -22.5t-134 -57.5t-92.5 -118t-47 -202l20 -4q76 102 171.5 145.5t234.5 43.5q215 0 335 -129.5t120 -376.5 q0 -141 -36 -249t-103.5 -178.5t-164 -106.5t-217.5 -36q-262 0 -394 160t-132 502zM332 512q0 -78 18.5 -146.5t58.5 -120.5t101 -83t145 -31q322 0 322 391q0 78 -17.5 144.5t-53.5 115.5t-92 77t-132 28q-184 0 -267 -97.5t-83 -277.5z" horiz-adv-x="1300" unicode="б"/><glyph d="M180 2v1073l78 4l143 10q78 5 181 5q238 0 341 -66.5t103 -198.5q0 -72 -50 -144.5t-159 -104.5v-23q135 -27 193.5 -90.5t58.5 -167.5q0 -162 -133 -238.5t-401 -76.5q-90 0 -170 5t-156 11q-8 0 -14.5 1t-14.5 1zM369 147q45 -6 88 -9t106 -3q162 0 233.5 42t71.5 138 q0 39 -14 72t-47 55.5t-89 36t-138 13.5h-211v-345zM369 621h233q45 0 86 12t74 34.5t52.5 52.5t19.5 64q0 86 -58.5 120t-200.5 34q-47 0 -95 -3t-111 -5v-309z" horiz-adv-x="1191" unicode="в"/><glyph d="M180 0v1075h692v-160h-503v-915h-189z" horiz-adv-x="872" unicode="г"/><glyph d="M0 160h137q20 25 52 86t63 170.5t54.5 271.5t25.5 387h723v-915h174v-430h-129l-33 270h-905l-37 -270h-125v430zM332 160h534v755h-364q-6 -92 -18.5 -196.5t-34 -205.5t-50 -193t-67.5 -160z" horiz-adv-x="1277" unicode="д"/><glyph d="M123 537q0 276 136 422.5t388 146.5q80 0 160 -17.5t143.5 -65.5t103.5 -132t40 -219q0 -33 -2 -76t-9 -84h-768q4 -188 90.5 -284.5t292.5 -96.5q86 0 164 29.5t121 70.5l72 -143q-72 -53 -178.5 -85t-231.5 -32q-135 0 -234.5 40t-163 114t-94 178.5t-30.5 233.5z M324 647h589q0 9 1 18q0 150 -67 214q-71 68 -198 67q-143 0 -227 -67.5t-98 -231.5z" horiz-adv-x="1224" unicode="е"/><glyph d="M12 0l359 485l92 72l-129 88l-295 430h205l313 -465h135v465h185v-487l122 33l316 454h203l-310 -428l-98 -78l127 -90l336 -479h-227l-336 483h-133v-483h-185v508l-123 -33l-336 -475h-221z" horiz-adv-x="1585" unicode="ж"/><glyph d="M98 41l49 149q55 -29 133 -41t171 -12q283 0 282 178q0 80 -67.5 121t-235.5 41h-127v144h158q45 0 87 12t74.5 33.5t52 51.5t19.5 64q0 86 -63.5 119t-192.5 33q-90 0 -164.5 -19.5t-121.5 -40.5l-52 144q133 76 400 76q193 0 291 -68t98 -197q0 -35 -13.5 -71.5 t-40 -70.5t-64.5 -61.5t-87 -41.5v-23q139 -25 194.5 -91.5t55.5 -172.5q0 -68 -31 -126t-92 -101t-154.5 -68t-216.5 -25q-121 0 -200 16.5t-142 47.5z" horiz-adv-x="1056" unicode="з"/><glyph d="M180 0v1075h189v-635l-15 -188h23l94 182l494 641h147v-1075h-188v614l28 213h-22l-101 -200l-503 -627h-146z" horiz-adv-x="1292" unicode="и"/><glyph d="M180 0v1075h189v-635l-15 -188h23l94 182l494 641h147v-1075h-188v614l28 213h-22l-101 -200l-503 -627h-146zM303 1405l168 53q10 -45 28.5 -71.5t43 -40t56.5 -16.5t66 -3q35 0 67 4t56.5 18.5t43 39t28.5 67.5l147 -43q-23 -121 -118 -170t-228 -49q-63 0 -122.5 10 t-107.5 35t-82 65t-46 101z" horiz-adv-x="1292" unicode="й"/><glyph d="M180 0v1075h189v-489l112 37l367 452h207l-350 -418h2l-111 -79l133 -93l379 -485h-238l-385 483h-116v-483h-189z" horiz-adv-x="1120" unicode="к"/><glyph d="M-12 10l28 172q27 -8 60 -8q49 0 88 36t67.5 134t47 274.5t26.5 456.5h711v-1075h-189v915h-348l-4 -61q-14 -203 -33.5 -363.5t-56.5 -272.5t-98.5 -170t-159.5 -58q-45 0 -79.5 5t-59.5 15z" horiz-adv-x="1196" unicode="л"/><glyph d="M180 0v1075h197l321 -473l78 -149l86 153l301 469h197v-1075h-184v608l12 219h-25l-92 -168l-276 -407h-64l-291 407l-82 168h-22l18 -217v-610h-174z" horiz-adv-x="1540" unicode="м"/><glyph d="M180 0v1075h189v-438h540v438h189v-1075h-189v469h-540v-469h-189z" horiz-adv-x="1277" unicode="н"/><glyph d="M123 537q0 133 35 238.5t102.5 179t164.5 112.5t222 39q131 0 229.5 -43t164 -120t97 -180.5t31.5 -225.5q0 -131 -35.5 -235.5t-102 -178.5t-164 -113t-220.5 -39q-135 0 -233.5 43t-163 119t-96 179.5t-31.5 224.5zM324 537q0 -76 17 -149t56 -130t100.5 -92t151.5 -35 q319 0 320 406q0 80 -17.5 153.5t-55.5 130t-99.5 91t-147.5 34.5q-160 0 -242.5 -101t-82.5 -308z" horiz-adv-x="1292" unicode="о"/><glyph d="M180 0v1075h905v-1075h-188v915h-528v-915h-189z" horiz-adv-x="1265" unicode="п"/><glyph d="M180 -410v1485h127l37 -137h18q55 80 143.5 124t199.5 44q233 0 347.5 -130t114.5 -415q0 -135 -37.5 -244.5t-108.5 -186.5t-172 -118t-226 -41q-41 0 -75 3t-62.5 10.5t-57.5 16.5t-59 22v-433h-189zM369 201q47 -33 102 -51.5t141 -18.5q166 0 260.5 108.5t94.5 323.5 q0 174 -70 278.5t-235 104.5q-123 0 -193 -61.5t-100 -188.5v-495z" horiz-adv-x="1290" unicode="р"/><glyph d="M123 537q0 272 132 420.5t380 148.5q109 0 188.5 -19.5t143.5 -48.5l-49 -153q-55 29 -120 45t-141 16q-334 0 -333 -409q0 -78 18 -151t59 -129t107.5 -91t163.5 -35q86 0 150.5 23.5t107.5 56.5l61 -137q-72 -51 -168 -77t-202 -26q-135 0 -230.5 41t-155 115 t-86 178.5t-26.5 231.5z" horiz-adv-x="1083" unicode="с"/><glyph d="M0 915v160h934v-160h-373v-915h-188v915h-373z" horiz-adv-x="933" unicode="т"/><glyph d="M16 1075h224l274 -680l64 -207h26l51 209l224 678h192l-352 -973l-79 -194q-40 -94 -88 -167t-106.5 -117t-134.5 -44q-82 0 -139 19l31 159q31 -10 61 -10q41 0 75 10.5t62.5 37t52 74.5t44.5 124z" horiz-adv-x="1087" unicode="у"/><glyph d="M111 537q0 268 127 413.5t368 145.5q29 0 58.5 -2t62.5 -11v351h184v-353q53 10 88 12.5t62 2.5q231 0 349 -127t118 -410q0 -131 -32 -239.5t-92.5 -185.5t-149.5 -120t-201 -43q-23 0 -66 5.5t-76 15.5v-402h-184v404q-49 -16 -93 -19.5t-79 -3.5q-213 0 -328.5 140.5 t-115.5 425.5zM303 537q0 -88 17.5 -164t55.5 -131.5t95 -87t137 -31.5q27 0 54.5 2t68.5 10v795q-37 8 -61.5 11t-57.5 3q-147 0 -228 -99t-81 -308zM907 131q31 -6 60.5 -7t64.5 -1q152 0 227.5 112.5t75.5 323.5q0 88 -16 160t-53 122t-97.5 76.5t-148.5 26.5 q-33 0 -55.5 -2t-57.5 -12v-799z" horiz-adv-x="1638" unicode="ф"/><glyph d="M61 0l416 551l-387 524h240l209 -274l71 -146l84 146l217 274h213l-391 -516l209 -278l209 -281h-233l-236 305l-82 154l-84 -154l-237 -305h-218z" horiz-adv-x="1212" unicode="х"/><glyph d="M180 0v1075h189v-915h518v915h188v-915h174v-430h-127l-35 270h-907z" horiz-adv-x="1290" unicode="ц"/><glyph d="M123 760v315h188v-264q0 -66 7.5 -117t31 -88t65.5 -56.5t109 -19.5q104 0 175 24t108 52v469h188v-1075h-188v457q-39 -25 -119 -55.5t-213 -30.5q-86 0 -152.5 18.5t-110.5 63.5t-66.5 119.5t-22.5 187.5z" horiz-adv-x="1175" unicode="ч"/><glyph d="M180 0v1075h189v-915h413v915h189v-915h413v915h189v-1075h-1393z" horiz-adv-x="1753" unicode="ш"/><glyph d="M180 0v1075h189v-915h413v915h189v-915h413v915h189v-915h172v-445h-125l-35 285h-1405z" horiz-adv-x="1785" unicode="щ"/><glyph d="M12 915v160h453v-411q66 10 123 13t100 3q121 0 206 -24.5t138 -67.5t77 -101.5t24 -126.5q0 -195 -129.5 -283.5t-401.5 -88.5q-86 0 -166 2t-160 8v917h-264zM465 160q88 -12 176 -13q150 0 220.5 52.5t70.5 144.5q0 82 -68.5 137.5t-216.5 55.5q-41 0 -88 -3.5 t-94 -13.5v-360z" horiz-adv-x="1193" unicode="ъ"/><glyph d="M180 -2v1077h189v-411q66 10 122 13t101 3q119 0 199.5 -24.5t130 -67.5t70 -101.5t20.5 -126.5q0 -195 -119 -283.5t-387 -88.5q-86 0 -166 2t-160 8zM369 160q86 -12 176 -13q147 0 206.5 51.5t59.5 145.5q0 82 -58.5 137.5t-201.5 55.5q-39 0 -87 -3.5t-95 -13.5v-360 zM1210 0v1075h189v-1075h-189z" horiz-adv-x="1579" unicode="ы"/><glyph d="M180 -2v1077h189v-411q66 10 121 13t98 3q123 0 208 -24.5t138 -67.5t76.5 -101.5t23.5 -126.5q0 -195 -129 -283.5t-403 -88.5q-86 0 -164 2t-158 8zM369 160q86 -12 174 -13q150 0 220.5 52.5t70.5 144.5q0 82 -69 137.5t-216 55.5q-39 0 -86 -3.5t-94 -13.5v-360z" horiz-adv-x="1095" unicode="ь"/><glyph d="M98 41l52 156q55 -29 132.5 -47.5t155.5 -18.5q166 0 251 79t99 253h-495v160h493q-12 147 -97 235t-245 88q-96 0 -166.5 -25.5t-117.5 -54.5l-62 140q72 47 166 73.5t221 26.5q129 0 224.5 -39t158 -112.5t92 -179t29.5 -238.5q0 -274 -139 -420t-383 -146 q-111 0 -209.5 17.5t-159.5 52.5z" horiz-adv-x="1112" unicode="э"/><glyph d="M180 0v1075h189v-440h252q20 223 140 347t355 124q129 0 220 -42t149.5 -118t86 -180t27.5 -229q0 -266 -120.5 -416t-366.5 -150q-127 0 -217 37t-149.5 102.5t-89 158.5t-38.5 206h-249v-475h-189zM807 537q0 -84 14.5 -158t49 -129t94 -87t149.5 -32q154 0 219.5 98.5 t65.5 307.5q0 82 -13.5 156.5t-46 131t-88 89t-139.5 32.5q-162 0 -233.5 -99t-71.5 -310z" horiz-adv-x="1722" unicode="ю"/><glyph d="M82 0l270 352v-2l115 78q-143 16 -226 101t-83 208q0 96 36.5 166t105.5 115t166 65.5t218 20.5q78 0 163 -10.5t157 -26.5v-1067h-189v424l-194 -27l-306 -397h-233zM358 739q0 -102 91.5 -153t238.5 -47l127 2v387q-33 10 -75 13t-72 3q-154 0 -232 -49.5t-78 -155.5z" horiz-adv-x="1183" unicode="я"/><glyph d="M123 537q0 276 136 422.5t388 146.5q80 0 160 -17.5t143.5 -65.5t103.5 -132t40 -219q0 -33 -2 -76t-9 -84h-768q4 -188 90.5 -284.5t292.5 -96.5q86 0 164 29.5t121 70.5l72 -143q-72 -53 -178.5 -85t-231.5 -32q-135 0 -234.5 40t-163 114t-94 178.5t-30.5 233.5z M324 647h589q0 9 1 18q0 150 -67 214q-71 68 -198 67q-143 0 -227 -67.5t-98 -231.5zM289 1296q0 49 32.5 82t86.5 33q51 0 82.5 -33t31.5 -82q0 -47 -31.5 -79.5t-82.5 -32.5q-53 0 -86 32.5t-33 79.5zM729 1296q0 49 32 82t85 33t85 -33t32 -82q0 -47 -32 -79.5t-85 -32.5 t-85 32.5t-32 79.5z" horiz-adv-x="1224" unicode="ё"/><glyph d="M0 940v135h199v359h188v-359h344v-135h-344v-332h23q63 74 149 117t213 43q98 0 171 -21.5t120 -76t69.5 -145.5t22.5 -232v-342q0 -190 -68.5 -281.5t-224.5 -91.5q-41 0 -86 6v154q63 -2 100 13.5t57.5 48t27 83.5t6.5 119v256q0 86 -11.5 150.5t-41 109.5t-80 67.5 t-127.5 22.5q-55 0 -107.5 -19.5t-95.5 -54t-74 -83t-43 -105.5v-346h-188v940h-199z" horiz-adv-x="1302" unicode="ђ"/><glyph d="M180 0v1075h692v-160h-503v-915h-189zM414 1167l131 308h213v-48l-229 -260h-115z" horiz-adv-x="872" unicode="ѓ"/><glyph d="M123 537q0 135 40 241.5t111.5 178t173 109.5t222.5 38q115 0 198.5 -17.5t147.5 -46.5l-51 -159q-57 29 -125 46t-144 17q-160 0 -255 -76.5t-117 -242.5h542v-160h-542q8 -70 33.5 -131.5t72.5 -106.5t116.5 -70.5t168.5 -25.5q82 0 151.5 24.5t116.5 55.5l53 -139 q-72 -47 -172 -74t-207 -27q-135 0 -235 41t-167 115t-99.5 178.5t-32.5 231.5z" horiz-adv-x="1159" unicode="є"/><glyph d="M111 59l53 164q57 -31 147 -61.5t183 -30.5q100 0 164.5 36t64.5 134q0 41 -19.5 68.5t-52.5 47t-76 34.5l-90 28q-59 16 -119.5 36t-108.5 53.5t-79 87t-31 135.5q0 160 95.5 237.5t267.5 77.5q129 0 217 -24.5t154 -53.5l-45 -160q-55 27 -132 52.5t-169 25.5 q-100 0 -149.5 -32.5t-49.5 -118.5q0 -35 18.5 -58.5t49 -41t71.5 -31t86 -25.5q61 -16 122.5 -37.5t113 -57.5t83 -91.5t31.5 -139.5q0 -152 -102 -247t-307 -95q-131 0 -228 26.5t-163 61.5z" horiz-adv-x="1021" unicode="ѕ"/><glyph d="M233 0v1075h189v-1075h-189zM189 1333q0 47 37 85t96 38t98 -38t39 -85t-39 -83t-98 -36t-96 36t-37 83z" horiz-adv-x="649" unicode="і"/><glyph d="M82 1288q0 49 28.5 81t79.5 32q53 0 81 -32t28 -81q0 -45 -27.5 -75.5t-81.5 -30.5q-51 0 -79.5 30.5t-28.5 75.5zM256 0v1075h188v-1075h-188zM391 1288q0 49 27.5 81t79.5 32q53 0 81.5 -32t28.5 -81q0 -45 -28.5 -75.5t-81.5 -30.5q-51 0 -79 30.5t-28 75.5z" horiz-adv-x="690" unicode="ї"/><glyph d="M25 -270q68 -2 107.5 16t61 56t28.5 94.5t7 134.5v1044h189v-1112q0 -199 -75 -296t-241 -97h-35q-19 0 -42 4v156zM184 1331q0 47 37 85t96 38t98 -38t39 -85t-39 -83t-98 -36t-96 36t-37 83z" horiz-adv-x="638" unicode="ј"/><glyph d="M-12 10l28 172q27 -8 60 -8q49 0 88 36t67.5 134t47 274.5t26.5 456.5h711v-411q66 10 121 13t98 3q123 0 208 -24.5t138 -67.5t76.5 -101.5t23.5 -126.5q0 -195 -129 -283.5t-403 -88.5q-86 0 -164 2t-158 8v917h-348l-4 -61q-14 -203 -33.5 -363.5t-56.5 -272.5 t-98.5 -170t-159.5 -58q-45 0 -79.5 5t-59.5 15zM1016 160q86 -12 174 -13q150 0 220.5 52.5t70.5 144.5q0 82 -69 137.5t-216 55.5q-39 0 -86 -3.5t-94 -13.5v-360z" horiz-adv-x="1742" unicode="љ"/><glyph d="M180 0v1075h189v-436h563v436h188v-387q76 14 140.5 19.5t107.5 5.5q127 0 212 -27t137 -73t75 -107.5t23 -130.5q0 -203 -126 -295t-415 -92q-86 0 -172 6l-170 12v465h-563v-471h-189zM1120 162q57 -8 106.5 -11.5t90.5 -3.5q168 0 232.5 52.5t64.5 158.5 q0 45 -14.5 81t-48 61.5t-89 39t-137.5 13.5q-41 0 -93 -4t-112 -17v-370z" horiz-adv-x="1875" unicode="њ"/><glyph d="M0 940v135h193v361h188v-361h350v-135h-350v-332h25q66 74 150.5 116t211.5 42q98 0 170 -20.5t119 -74t69.5 -144.5t22.5 -230v-297h-188v254q0 88 -11.5 153.5t-41 109.5t-80 66.5t-128.5 22.5q-55 0 -106 -19.5t-94 -54t-74 -80.5t-45 -102v-350h-188v940h-193z" horiz-adv-x="1296" unicode="ћ"/><glyph d="M180 0v1075h189v-489l112 37l367 452h207l-350 -418h2l-111 -79l133 -93l379 -485h-238l-385 483h-116v-483h-189zM494 1167l131 308h213v-48l-229 -260h-115z" horiz-adv-x="1120" unicode="ќ"/><glyph d="M16 1075h224l274 -680l64 -207h26l51 209l224 678h192l-352 -973l-79 -194q-40 -94 -88 -167t-106.5 -117t-134.5 -44q-82 0 -139 19l31 159q31 -10 61 -10q41 0 75 10.5t62.5 37t52 74.5t44.5 124zM227 1405l168 53q10 -45 28.5 -71.5t43 -40t56.5 -16.5t66 -3 q35 0 67 4t56.5 18.5t43 39t28.5 67.5l147 -43q-23 -121 -118 -170t-228 -49q-63 0 -122.5 10t-107.5 35t-82 65t-46 101z" horiz-adv-x="1087" unicode="ў"/><glyph d="M180 0v1075h189v-915h528v915h188v-1075h-346l-32 -365h-129l-46 365h-352z" horiz-adv-x="1265" unicode="џ"/><glyph d="M0 1116v168h332v154h205v-154h460v-168h-460v-233q12 2 37.5 5t57.5 6t64.5 5t59.5 2q106 0 208.5 -20.5t183.5 -69.5t130 -133t49 -211q0 -123 -48 -215t-131 -151.5t-195.5 -89t-243.5 -29.5q-31 0 -77 1t-98.5 5t-104.5 10t-97 16v1102h-332zM537 170q29 -8 85 -10 t111 -2q76 0 144.5 17.5t120 54t82 92t30.5 131.5q0 82 -33 135t-87 83.5t-122.5 42t-142.5 11.5q-18 0 -47 -2l-56 -4q-28 -2 -51.5 -6t-33.5 -6v-537z" horiz-adv-x="1396" unicode="Ѣ"/><glyph d="M0 928v147h264v359h189v-359h378v-147h-378v-264q70 8 126 12t97 4q121 0 205 -24.5t137 -67.5t76.5 -102.5t23.5 -127.5q0 -193 -129 -281.5t-403 -88.5q-80 0 -162 1t-160 7v932h-264zM453 158q51 -6 94 -8.5t80 -2.5q154 0 222.5 49.5t68.5 147.5q0 88 -68 140.5 t-213 52.5q-41 0 -88 -3.5t-96 -13.5v-362z" horiz-adv-x="1179" unicode="ѣ"/><glyph d="M119 717q0 176 44 314t127 233.5t202.5 145.5t271.5 50q162 0 283.5 -54t202.5 -151.5t121 -234.5t40 -303q0 -176 -44 -314.5t-128 -233.5t-204 -145.5t-271 -50.5q-164 0 -285 54.5t-200.5 151.5t-119.5 234.5t-40 303.5zM336 639q8 -102 37.5 -192.5t83 -156 t129.5 -103t178 -37.5q184 0 299 118.5t131 370.5h-858zM338 811h856q-10 98 -41 184t-84 150.5t-129 101.5t-176 37q-180 0 -294 -115.5t-132 -357.5z" horiz-adv-x="1529" unicode="Ѳ"/><glyph d="M123 537q0 270 135 419.5t389 149.5q131 0 229.5 -42t163 -118t96 -180t31.5 -229q0 -268 -136 -417t-384 -149q-135 0 -234.5 42t-164 117t-95 179.5t-30.5 227.5zM322 604h645q-25 170 -107 256t-213 86q-61 0 -116.5 -17.5t-100.5 -58.5t-73.5 -106.5t-34.5 -159.5z M324 469q16 -160 105 -249t218 -89q57 0 110.5 18.5t96.5 58.5t71.5 104.5t37.5 156.5h-639z" horiz-adv-x="1290" unicode="ѳ"/><glyph d="M-10 1434h225l387 -955l55 -223h5l36 227l168 514q45 135 85 223.5t85 139.5t100.5 70.5t133.5 19.5t124 -13.5t87 -35.5l-56 -168q-45 25 -82.5 31t-72.5 6q-59 0 -100.5 -44t-82.5 -165l-391 -1081h-104z" horiz-adv-x="1349" unicode="Ѵ"/><glyph d="M16 1075h217l277 -616l65 -248l17 2l61 248l97 223q37 88 72.5 163t77.5 130t92 86t116 31q41 0 76 -7.5t65 -17.5l-30 -160q-23 8 -40.5 12.5t-35.5 4.5q-43 0 -85 -36t-87 -128l-361 -785h-82z" horiz-adv-x="1191" unicode="ѵ"/><glyph d="M182 0v1434h205v-955l-18 -155h10l102 161l733 949h127v-1254h240v-49l-205 -397h-135l102 266h-206v948l12 158h-8l-99 -162l-735 -944h-125zM383 1741l190 43q10 -74 62.5 -112t138.5 -38t138.5 38t62.5 110l172 -37q-27 -113 -117 -176.5t-258 -63.5 q-162 0 -265.5 55.5t-123.5 180.5z" horiz-adv-x="1556" unicode="Ҋ"/><glyph d="M180 0v1075h189v-635l-15 -188h23l94 182l494 641h147v-915h205v-49l-205 -377h-135l102 266h-155v614l28 213h-22l-101 -200l-503 -627h-146zM289 1405l168 53q10 -45 28.5 -71.5t43 -40t56 -16.5t66.5 -3t67 4t56.5 18.5t43 39t28.5 67.5l147 -43q-23 -121 -118 -170 t-228 -49q-63 0 -122.5 10t-107.5 35t-82 65t-46 101z" horiz-adv-x="1341" unicode="ҋ"/><glyph d="M0 1292v144h205v161h205v-161h321v-144h-321v-405q10 2 35.5 5t58.5 5l65 4q33 2 60 2q106 0 208.5 -19.5t183.5 -69.5t130 -134t49 -213q0 -123 -48 -215t-131 -151.5t-195.5 -89t-243.5 -29.5q-31 0 -77 1t-98.5 5t-104.5 10t-97 16v1278h-205zM410 170q29 -8 85 -10 t109 -2q76 0 145.5 17.5t121 54t82 92t30.5 131.5q0 82 -32.5 135t-87 83.5t-123 43t-142.5 12.5q-18 0 -47 -2l-56 -4q-28 -2 -51.5 -6t-33.5 -6v-539z" horiz-adv-x="1269" unicode="Ҍ"/><glyph d="M0 928v147h264v359h189v-359h378v-147h-378v-264q70 8 126 12t97 4q121 0 205 -24.5t137 -67.5t76.5 -102.5t23.5 -127.5q0 -193 -129 -281.5t-403 -88.5q-80 0 -162 1t-160 7v932h-264zM453 158q51 -6 94 -8.5t80 -2.5q154 0 222.5 49.5t68.5 147.5q0 88 -68 140.5 t-213 52.5q-41 0 -88 -3.5t-96 -13.5v-362z" horiz-adv-x="1179" unicode="ҍ"/><glyph d="M182 0v1419q86 18 187.5 25.5t199.5 7.5q104 0 212 -18.5t196 -67.5t144.5 -136t56.5 -224q0 -154 -70 -253.5t-180 -152.5l149 -209l-112 -80l-170 242q-53 -14 -110.5 -20.5t-115.5 -6.5q-12 0 -38 1l-53 2q-28 1 -53.5 3.5t-37.5 4.5v-537h-205zM387 713 q10 -4 33.5 -5t49.5 -3.5t49 -2.5h36q35 0 69.5 2.5t69.5 8.5l-133 184l98 68l150 -217q66 31 109 91t43 165q0 82 -35 135t-90.5 83.5t-124 42t-136.5 11.5q-55 0 -107 -2t-81 -10v-551z" horiz-adv-x="1257" unicode="Ҏ"/><glyph d="M180 -410v1485h127l37 -137h18q55 80 143.5 124t199.5 44q233 0 347.5 -130t114.5 -415q0 -135 -37.5 -242.5t-107.5 -185.5l137 -151l-119 -111l-147 162q-59 -29 -126 -45.5t-144 -16.5q-41 0 -75 3t-62.5 10.5t-57.5 16.5t-59 22v-433h-189zM369 201q47 -33 102 -51.5 t141 -18.5q102 0 174 39l-131 139l107 88l123 -139q39 53 60.5 130t21.5 175q0 174 -70 278.5t-235 104.5q-123 0 -193 -61.5t-100 -188.5v-495z" horiz-adv-x="1290" unicode="ҏ"/><glyph d="M182 0v1434h678l37 282h135v-463h-645v-1253h-205z" horiz-adv-x="995" unicode="Ґ"/><glyph d="M180 0v1075h520l37 283h135v-443h-503v-915h-189z" horiz-adv-x="872" unicode="ґ"/><glyph d="M18 639v152h215v643h850v-181h-645v-462h486v-152h-486v-639h-205v639h-215z" horiz-adv-x="1089" unicode="Ғ"/><glyph d="M0 446v144h176v485h692v-160h-503v-325h448v-144h-448v-446h-189v446h-176z" horiz-adv-x="917" unicode="ғ"/><glyph d="M182 0v1434h850v-181h-645v-516q29 8 105.5 25.5t199.5 17.5q88 0 175 -22.5t157 -79.5t112 -153.5t42 -243.5q0 -276 -136.5 -409.5t-392.5 -133.5q-72 0 -104.5 2t-48.5 6v178q27 -4 61.5 -5t95.5 -1q150 0 229 85t79 263q0 98 -27 164t-72 104.5t-105.5 54 t-127.5 15.5q-37 0 -76 -5t-71.5 -12t-58.5 -14.5t-36 -11.5v-561h-205z" horiz-adv-x="1294" unicode="Ҕ"/><glyph d="M180 0v1075h686v-160h-497v-378q59 16 132.5 32.5t180.5 16.5q92 0 174 -25.5t145.5 -84t100.5 -154t37 -234.5q0 -276 -123 -412.5t-393 -136.5q-55 0 -96 4l-60 6v160q20 -2 69.5 -6t92.5 -4q166 0 241.5 99.5t75.5 267.5q0 180 -87 268t-243 88q-82 0 -148.5 -20.5 t-98.5 -32.5v-369h-189z" horiz-adv-x="1261" unicode="ҕ"/><glyph d="M-4 0l483 639l109 78l-105 74l-456 643h237l438 -635h101v635h192v-660l95 29l436 631h227l-442 -623l-92 -68l114 -84l355 -479h137v-442h-142l-32 262h-76l-479 655h-101v-655h-192v680l-94 -29l-478 -651h-235z" horiz-adv-x="1837" unicode="Җ"/><glyph d="M12 0l359 485l92 72l-129 88l-295 430h205l313 -465h135v465h185v-487l122 33l316 454h203l-310 -428l-98 -78l127 -90l217 -319h160v-414h-133l-33 254h-102l-336 483h-133v-483h-185v508l-123 -33l-336 -475h-221z" horiz-adv-x="1638" unicode="җ"/><glyph d="M90 33l51 180q53 -23 146.5 -41t228.5 -18q63 0 127 15t115 47t82.5 82t31.5 120q0 123 -95 180t-265 68q-27 2 -47.5 3t-48.5 1h-111v159h35h48q30 0 61.5 2.5t61.5 3.5t48 5q111 14 188.5 70.5t77.5 150.5q0 63 -23.5 105t-65.5 68t-97 37t-117 11q-119 0 -207 -18.5 t-135 -40.5l-55 163q20 12 63 24.5t99.5 23t125 17.5t140.5 7q90 0 178 -17.5t156.5 -58.5t111.5 -108.5t43 -169.5t-72.5 -194.5t-219.5 -133.5v-8q158 -23 249 -110t91 -234q0 -104 -41 -184t-111 -135.5t-159 -87t-187 -40.5l-31 -342h-129l-43 342q-102 6 -176 21 t-123 35z" horiz-adv-x="1206" unicode="Ҙ"/><glyph d="M98 41l49 152q55 -29 133 -41.5t171 -12.5q283 0 282 176q0 80 -67.5 121t-235.5 41h-127v144h158q45 0 87 12t74.5 33.5t52 51.5t19.5 64q0 86 -63.5 119t-192.5 33q-90 0 -164.5 -19.5t-121.5 -40.5l-52 144q133 76 400 76q193 0 291 -68t98 -197q0 -35 -13.5 -71.5 t-40 -70.5t-64.5 -61.5t-87 -41.5v-23q139 -25 194.5 -91.5t55.5 -172.5q0 -117 -94.5 -204t-284.5 -109l-31 -349h-129l-43 345q-84 6 -143.5 21t-110.5 40z" horiz-adv-x="1056" unicode="ҙ"/><glyph d="M182 0v1434h205v-660l94 29l516 631h234l-516 -615l-97 -69l113 -82l416 -488h213v-442h-141l-33 262h-144l-555 651h-100v-651h-205z" horiz-adv-x="1378" unicode="Қ"/><glyph d="M180 0v1075h189v-489l112 37l367 452h207l-350 -418h2l-111 -79l133 -93l248 -325h147v-414h-133l-33 254h-88l-385 483h-116v-483h-189z" horiz-adv-x="1155" unicode="қ"/><glyph d="M182 0v1434h205v-660l119 8v262h156v-247l51 6l463 631h229l-469 -615l-98 -69l114 -80l521 -670h-250l-506 651h-55v-262h-156v262h-119v-651h-205z" horiz-adv-x="1542" unicode="Ҝ"/><glyph d="M180 0v1077h189v-510l147 13v284h129v-272l88 10l281 473h184l-242 -413l-135 -95l152 -106l325 -461h-215l-340 477h-98v-252h-129v252h-147v-477h-189z" horiz-adv-x="1331" unicode="ҝ"/><glyph d="M0 1139v168h309v127h205v-127h262v-160h-262v-373l113 29l503 631h230l-504 -615l-106 -69l118 -80l562 -670h-259l-548 651h-109v-651h-205v1139h-309z" horiz-adv-x="1499" unicode="Ҟ"/><glyph d="M0 1124v136h199v174h188v-174h344v-136h-344v-538l107 35l356 454h221l-342 -416h2l-113 -81l130 -93l378 -485h-237l-385 483h-117v-483h-188v1124h-199z" horiz-adv-x="1159" unicode="ҟ"/><glyph d="M0 1253v181h563v-660l94 29l517 631h233l-514 -615l-98 -69l114 -82l568 -668h-258l-555 651h-101v-651h-205v1253h-358z" horiz-adv-x="1548" unicode="Ҡ"/><glyph d="M0 915v160h453v-487l112 35l367 452h207l-351 -416l-110 -86l137 -90l375 -483h-236l-385 483h-116v-483h-189v915h-264z" horiz-adv-x="1202" unicode="ҡ"/><glyph d="M182 0v1434h205v-613h727v613h205v-1254h199v-442h-142l-33 262h-229v641h-727v-641h-205z" horiz-adv-x="1576" unicode="Ң"/><glyph d="M180 0v1075h189v-438h540v438h189v-915h149v-414h-133l-33 254h-172v469h-540v-469h-189z" horiz-adv-x="1288" unicode="ң"/><glyph d="M182 0v1434h205v-613h727v613h850v-181h-645v-1253h-205v641h-727v-641h-205z" horiz-adv-x="1927" unicode="Ҥ"/><glyph d="M180 0v1075h189v-438h540v438h682v-160h-493v-915h-189v469h-540v-469h-189z" horiz-adv-x="1591" unicode="ҥ"/><glyph d="M182 0v1434h1108v-697q29 8 107 25.5t200 17.5q88 0 175.5 -22.5t156 -79.5t111.5 -153.5t43 -243.5q0 -276 -138.5 -409.5t-390.5 -133.5q-72 0 -104.5 2t-48.5 6v174q27 -4 61.5 -5t96.5 -1q150 0 228.5 86t78.5 266q0 100 -27 165t-72 103.5t-105 54t-128 15.5 q-37 0 -76 -5t-71.5 -12t-58 -14.5l-38.5 -11.5v-100v-461h-205v1253h-698v-1253h-205z" horiz-adv-x="2197" unicode="Ҧ"/><glyph d="M180 0v1075h905v-543q61 18 135 35t175 17q90 0 173 -26t147.5 -84t102 -152.5t37.5 -233.5q0 -279 -122.5 -413t-386.5 -134q-59 0 -100.5 8.5t-59.5 10.5v157q18 0 63 -8t99 -8q166 0 240.5 96.5t74.5 270.5q0 90 -24.5 157.5t-67.5 111.5t-103.5 65.5t-132.5 21.5 t-136 -16.5l-114 -30.5v-377h-188v915h-524v-915h-193z" horiz-adv-x="1966" unicode="ҧ"/><glyph d="M119 717q0 174 46 312t134 234.5t212 146.5t282 50v-176q-102 0 -186.5 -35t-144 -105.5t-93 -176t-33.5 -244.5q0 -123 39 -227.5t107.5 -181t160.5 -120.5t199 -44q23 0 52.5 2t51.5 10q-70 39 -125 99.5t-93 137t-58.5 164.5t-20.5 180q0 156 41 278t111.5 204 t168 125t208.5 43q125 0 220 -41t159.5 -116t98.5 -182.5t34 -238.5q0 -123 -29 -228.5t-77 -190.5t-111.5 -146.5t-131.5 -95.5q10 -2 21.5 -3t23.5 -1q84 0 148.5 18t107.5 47l62 -162q-41 -35 -106.5 -57.5t-184.5 -22.5q-74 0 -149.5 20.5t-124.5 49.5 q-127 -70 -297 -70q-168 0 -302 53.5t-227.5 150.5t-143.5 234.5t-50 305.5zM866 733q0 -68 17.5 -142.5t54.5 -144t91 -129t128 -98.5q59 31 115.5 85t101.5 129t72 168t27 202q0 84 -15.5 159.5t-50.5 132t-90 89.5t-133 33q-63 0 -120.5 -28t-101.5 -87.5t-70 -150.5 t-26 -218z" horiz-adv-x="1841" unicode="Ҩ"/><glyph d="M123 535q0 262 128 411.5t388 161.5v-160q-315 -18 -315 -407q0 -80 23.5 -155t70.5 -131t117.5 -90t164.5 -34q25 0 61 5t75 28q-90 55 -149.5 161.5t-59.5 260.5q0 74 19.5 159.5t68.5 158.5t132 122t210 49q111 0 189.5 -35.5t127.5 -98t71.5 -146.5t22.5 -179 q0 -78 -25.5 -150.5t-66.5 -134t-94 -110.5t-108 -80q33 -10 61.5 -14t50.5 -4q43 0 90 12t94 51l26.5 -65.5t19.5 -52.5l4 -17q-43 -35 -112 -57.5t-153 -22.5q-68 0 -135 24.5t-116 61.5q-76 -49 -163 -67.5t-165 -18.5q-131 0 -234.5 42t-174 117t-107.5 178.5t-37 226.5 zM819 557q0 -121 56.5 -221t148.5 -158q49 27 93 69t78 98t53.5 124t19.5 143q0 55 -13.5 109.5t-40 97.5t-66.5 69.5t-95 26.5q-72 0 -117 -32.5t-70.5 -83.5t-36 -116t-10.5 -126z" horiz-adv-x="1601" unicode="ҩ"/><glyph d="M119 717q0 201 61.5 342t159.5 230t221 130t244 41q135 0 221 -14t145 -37l-45 -172q-100 47 -305 47q-92 0 -179 -30.5t-155.5 -98.5t-109.5 -175.5t-41 -262.5q0 -139 39 -244.5t107.5 -177.5t161.5 -107.5t204 -35.5q100 0 174 18t125 47l49 -156q-57 -41 -140 -61 t-179 -25l-31 -340h-129l-43 349q-117 18 -217.5 71.5t-176 144.5t-118.5 219t-43 298z" horiz-adv-x="1277" unicode="Ҫ"/><glyph d="M123 537q0 272 132 420.5t380 148.5q109 0 188.5 -19.5t143.5 -48.5l-49 -153q-55 29 -120 45t-141 16q-334 0 -333 -409q0 -78 18 -150t59 -128t107.5 -90t163.5 -34q86 0 150.5 23.5t107.5 56.5l61 -141q-59 -41 -133 -65.5t-158 -33.5l-30 -340h-129l-43 347 q-102 18 -174 65t-116 119t-64.5 166t-20.5 205z" horiz-adv-x="1083" unicode="ҫ"/><glyph d="M39 1253v181h1171v-181h-483v-1073h199v-442h-142l-32 262h-230v1253h-483z" horiz-adv-x="1249" unicode="Ҭ"/><glyph d="M0 915v160h934v-160h-373v-755h158v-414h-133l-33 254h-180v915h-373z" horiz-adv-x="933" unicode="ҭ"/><glyph d="M14 1434h240l358 -609l35 -131h4l39 135l342 605h217l-510 -871v-563h-204v561z" horiz-adv-x="1263" unicode="Ү"/><glyph d="M16 1075h220l278 -688l64 -256h16l63 258l250 686h205l-442 -1079v-408h-189v408z" horiz-adv-x="1128" unicode="ү"/><glyph d="M14 1434h240l358 -609l35 -131h4l39 135l342 605h217l-495 -846h325v-144h-340v-444h-204v444h-340v144h323z" horiz-adv-x="1263" unicode="Ұ"/><glyph d="M16 1075h220l278 -688l64 -256h16l63 258l250 686h205l-440 -1073h274v-135h-276v-279h-189v279h-276v135h272z" horiz-adv-x="1128" unicode="ұ"/><glyph d="M53 0l518 729l-473 705h244l309 -471l56 -119l53 119l323 471h226l-488 -691l385 -563h230v-442h-142l-32 262h-170l-342 500l-64 125l-57 -125l-350 -500h-226z" horiz-adv-x="1454" unicode="Ҳ"/><glyph d="M61 0l416 551l-387 524h240l209 -274l71 -146l84 146l217 274h213l-391 -516l146 -200l147 -199h152v-414h-134l-32 254h-94l-236 305l-82 154l-84 -154l-237 -305h-218z" horiz-adv-x="1210" unicode="ҳ"/><glyph d="M39 1253v181h1083v-181h-395v-1073h682v1254h205v-1254h207v-442h-142l-32 262h-1125v1253h-483z" horiz-adv-x="1880" unicode="Ҵ"/><glyph d="M0 915v160h903v-160h-346v-755h514v915h189v-915h174v-430h-125l-39 270h-901v915h-369z" horiz-adv-x="1474" unicode="ҵ"/><glyph d="M156 938v496h204v-453q0 -137 66 -212t207 -75q104 0 193 24.5t145 65.5v650h205v-1254h198v-442h-141l-33 262h-229v610q-59 -33 -158.5 -62.5t-228.5 -29.5q-96 0 -175 22.5t-135.5 74t-87 130t-30.5 193.5z" horiz-adv-x="1433" unicode="Ҷ"/><glyph d="M123 760v315h188v-264q0 -66 7.5 -117t31 -88t65.5 -56.5t109 -19.5q104 0 175 24t108 52v469h188v-915h146v-414h-133l-33 254h-168v457q-39 -25 -119 -55.5t-213 -30.5q-86 0 -152.5 18.5t-110.5 63.5t-66.5 119.5t-22.5 187.5z" horiz-adv-x="1181" unicode="ҷ"/><glyph d="M156 930v504h204v-461q0 -266 246 -279v248h156v-240q72 10 132 32t101 50v650h205v-1434h-205v610q-39 -20 -99 -40.5t-134 -34.5v-248h-156v231h-22q-94 0 -173 20.5t-135.5 68.5t-88 127t-31.5 196z" horiz-adv-x="1382" unicode="Ҹ"/><glyph d="M123 784v291h188v-223q0 -70 7.5 -125t30 -93t66.5 -59.5t115 -23.5v291h132v-283q72 12 125 33.5t83 46.5v436h189v-1075h-189v498q-29 -20 -80 -42t-128 -36v-268h-132v251h-47q-86 0 -153.5 18.5t-113.5 62.5t-69.5 116.5t-23.5 183.5z" horiz-adv-x="1239" unicode="ҹ"/><glyph d="M182 0v1434h205v-611q59 33 157.5 62.5t227.5 29.5q94 0 172 -21.5t135.5 -68.5t89 -123.5t31.5 -189.5v-512h-205v467q0 272 -270 272q-104 0 -193.5 -24.5t-144.5 -67.5v-647h-205z" horiz-adv-x="1355" unicode="Һ"/><glyph d="M180 0v1434h189v-492h22q61 74 147.5 119t213.5 45q98 0 169.5 -21.5t118.5 -76t70 -145.5t23 -228v-635h-189v594q0 88 -11 152.5t-41 107.5t-80 63.5t-126 20.5q-53 0 -104.5 -18.5t-94.5 -51t-73.5 -79t-44.5 -103.5v-686h-189z" horiz-adv-x="1312" unicode="һ"/><glyph d="M4 909q2 59 15.5 93t41.5 59h187q-35 -25 -47.5 -64t-12.5 -67q0 -20 6.5 -42t25 -40.5t53 -30.5t92.5 -12q16 0 31.5 1t33.5 3q16 311 175 481t446 170q283 0 428 -157.5t145 -444.5q0 -53 -5 -108.5t-15 -114.5h-969q37 -485 508 -485q100 0 186 28.5t146 63.5l51 -162 q-78 -43 -181.5 -75t-240.5 -32q-147 0 -268 39t-208 120t-138.5 206t-59.5 297h-80q-96 0 -162.5 22.5t-108.5 59.5t-59.5 87t-15.5 105zM633 811h780q4 25 5 49.5t1 46.5q0 76 -20.5 144.5t-65.5 120t-113.5 82t-164.5 30.5q-201 0 -306.5 -120t-115.5 -353z" horiz-adv-x="1765" unicode="Ҽ"/><glyph d="M2 799q4 59 28.5 102t53.5 74h154q-29 -31 -49.5 -74t-20.5 -96q0 -33 8 -61.5t29.5 -49t59.5 -32t95 -11.5q29 223 161 339t358 116q80 0 159.5 -17.5t143 -65.5t103.5 -132t40 -219q0 -33 -2 -76t-8 -84h-768q4 -188 90 -284.5t293 -96.5q86 0 163.5 29.5t120.5 70.5 l72 -143q-72 -53 -178.5 -85t-230.5 -32q-133 0 -230.5 38t-162 108.5t-96.5 170t-34 224.5h-6q-160 0 -254 67.5t-92 219.5zM555 647h590q4 164 -66.5 231.5t-197.5 67.5q-143 0 -227.5 -67.5t-98.5 -231.5z" horiz-adv-x="1456" unicode="ҽ"/><glyph d="M4 909q2 59 15.5 93t41.5 59h187q-35 -25 -47.5 -64t-12.5 -67q0 -20 6.5 -42t25 -40.5t53 -30.5t92.5 -12q16 0 31.5 1t33.5 3q16 311 175 481t446 170q283 0 428 -157.5t145 -444.5q0 -53 -5 -108.5t-15 -114.5h-969q37 -483 508 -483q100 0 186 27.5t146 62.5l51 -162 q-70 -41 -162 -69.5t-209 -35.5l-31 -340h-129l-43 351q-233 35 -370.5 192.5t-151.5 456.5h-80q-96 0 -162.5 22.5t-108.5 59.5t-59.5 87t-15.5 105zM633 811h780q4 25 5 49.5t1 46.5q0 76 -20.5 144.5t-65.5 120t-113.5 82t-164.5 30.5q-201 0 -306.5 -120t-115.5 -353z" horiz-adv-x="1765" unicode="Ҿ"/><glyph d="M2 799q4 59 28.5 102t53.5 74h154q-29 -31 -49.5 -74t-20.5 -96q0 -33 8 -61.5t29.5 -50t59.5 -33t95 -11.5q29 223 161 340t358 117q80 0 159.5 -17.5t143 -65.5t103.5 -132t40 -219q0 -33 -2 -76t-8 -84h-768q4 -188 90 -282.5t293 -94.5q86 0 163.5 30t120.5 71 l72 -148q-59 -47 -146 -75.5t-192 -37.5l-30 -358h-130l-45 365q-197 35 -291 174t-98 358h-6q-160 0 -254 66.5t-92 218.5zM555 647h590q4 164 -66.5 231.5t-197.5 67.5q-143 0 -227.5 -67.5t-98.5 -231.5z" horiz-adv-x="1456" unicode="ҿ"/><glyph d="M141 0v135h164v1163h-164v136h533v-136h-164v-1163h164v-135h-533z" horiz-adv-x="815" unicode="Ӏ"/><glyph d="M182 0v1434h205v-660l94 29l516 631h234l-496 -582l-129 -80h139q117 -27 201 -73t138.5 -118.5t79 -176t24.5 -244.5v-39q0 -147 -32 -252t-89 -171.5t-139 -97t-180 -30.5q-18 0 -38 1t-40 3v176q86 -2 146.5 17.5t97 66.5t53 124t16.5 189q0 258 -119 381t-379 123 h-98v-651h-205z" horiz-adv-x="1347" unicode="Ӄ"/><glyph d="M180 0v1075h189v-512l112 39l365 473h207l-351 -436l-106 -76q41 -4 63.5 -6t35 -4t17.5 -2h9q96 -25 159.5 -72t100.5 -106.5t51.5 -128t14.5 -131.5v-39q0 -131 -31 -225.5t-85 -155t-129 -89t-163 -28.5q-33 0 -88 6v154q145 -10 226 75t81 259q0 113 -24.5 184.5 t-71.5 112.5t-117 57t-162 18h-114v-442h-189z" horiz-adv-x="1144" unicode="ӄ"/><glyph d="M-8 10l26 172q25 -6 49.5 -6t50 9.5t50.5 31t47 59.5q31 53 57.5 143.5t47 229.5t34 333t19.5 452h844v-1254h208v-49l-204 -397h-136l103 266h-176v1253h-451q-10 -203 -23.5 -368.5t-34 -299.5t-48 -236.5t-68.5 -178.5q-53 -98 -122.5 -139t-145.5 -41q-43 0 -70.5 5 t-56.5 15z" horiz-adv-x="1400" unicode="Ӆ"/><glyph d="M-12 10l28 172q27 -8 60 -8q49 0 88 36t67.5 134t47 274.5t26.5 456.5h711v-915h180v-49l-205 -377h-135l102 266h-131v915h-348l-4 -61q-14 -203 -33.5 -363.5t-56.5 -272.5t-98.5 -170t-159.5 -58q-45 0 -79.5 5t-59.5 15z" horiz-adv-x="1220" unicode="ӆ"/><glyph d="M182 0v1434h205v-613h727v613h205v-1434v-49q0 -190 -71.5 -285.5t-229.5 -95.5q-20 0 -40 2t-42 6v172q63 -2 99 11.5t53.5 43t21.5 78.5t4 117v641h-727v-641h-205z" horiz-adv-x="1501" unicode="Ӈ"/><glyph d="M180 0v1075h189v-438h540v438h189v-1124q0 -190 -68.5 -281.5t-224.5 -91.5q-41 0 -86 6v154q63 -2 100 13.5t57.5 47t26.5 82.5t6 119v469h-540v-469h-189z" horiz-adv-x="1277" unicode="ӈ"/><glyph d="M182 0v1434h205v-613h727v613h205v-1254h231v-49l-204 -397h-136l103 266h-199v641h-727v-641h-205z" horiz-adv-x="1525" unicode="Ӊ"/><glyph d="M180 0v1075h189v-438h540v438h189v-915h184v-49l-205 -377h-135l102 266h-135v469h-540v-469h-189z" horiz-adv-x="1306" unicode="ӊ"/><glyph d="M156 938v496h204v-453q0 -137 66 -212t207 -75q104 0 193 24.5t145 65.5v650h205v-1434h-232l-33 -262h-141v442h201v430q-59 -33 -158.5 -62.5t-228.5 -29.5q-96 0 -175 22.5t-135.5 74t-87 130t-30.5 193.5z" horiz-adv-x="1357" unicode="Ӌ"/><glyph d="M123 750v325h188v-262q0 -61 7.5 -110.5t29 -84t62.5 -53t108 -18.5q104 0 174 22.5t111 51.5v454h188v-1075h-223l-41 -274h-119v434h195v303q-51 -23 -134 -49.5t-196 -26.5q-174 0 -262 80t-88 283z" horiz-adv-x="1171" unicode="ӌ"/><glyph d="M182 0v1434h154l485 -732l76 -155h4l72 160l461 727h161v-1254h240v-49l-205 -397h-135l102 266h-206v924l22 229h-8l-88 -199l-399 -635h-62l-420 637l-84 195h-10l33 -225v-926h-193z" horiz-adv-x="1810" unicode="Ӎ"/><glyph d="M180 0v1075h197l321 -473l78 -149l86 153l301 469h197v-915h188v-49l-205 -377h-135l103 266h-135v608l12 219h-25l-92 -168l-276 -407h-64l-291 407l-82 168h-22l18 -217v-610h-174z" horiz-adv-x="1572" unicode="ӎ"/><glyph d="M188 0v1434h195v-1434h-195z" horiz-adv-x="571" unicode="ӏ"/><glyph d="M16 0l590 1454h107l592 -1454h-213l-156 375h-567l-152 -375h-201zM430 547h447l-166 407l-56 220h-4l-55 -224zM268 1741l190 43q10 -74 62.5 -112t138.5 -38t138.5 38t62.5 110l172 -37q-27 -113 -117 -176.5t-258 -63.5q-162 0 -265.5 55.5t-123.5 180.5z" horiz-adv-x="1320" unicode="Ӑ"/><glyph d="M92 287q0 92 40 159.5t103.5 110.5t144.5 63.5t161 20.5q63 0 107 -2t74 -5t50.5 -6t36.5 -5q4 31 6 53t2 57q0 57 -12 96t-40 62.5t-75 34t-115 10.5q-39 0 -86 -6t-94 -17.5t-93 -28t-83 -34.5l-51 158q184 88 457 88q123 0 197.5 -32t115.5 -81t54.5 -109.5 t13.5 -119.5q0 -113 -8.5 -226.5t-8.5 -246.5q0 -78 7.5 -151t23.5 -134h-137l-52 164h-20q-23 -31 -55.5 -62.5t-77.5 -56.5t-103.5 -41t-134.5 -16t-139 21.5t-109.5 60t-73 95t-26.5 126.5zM293 307q0 -82 58.5 -123t150.5 -41q68 0 120 17.5t90 43t61.5 57.5t35.5 63 v163q-16 2 -34.5 6.5t-46.5 6.5t-65.5 4t-93.5 2q-127 0 -201.5 -45t-74.5 -154zM213 1405l168 53q10 -45 28.5 -71.5t43 -40t56.5 -16.5t66 -3q35 0 67 4t56.5 18.5t43 39t28.5 67.5l147 -43q-23 -121 -118 -170t-228 -49q-63 0 -122.5 10t-107.5 35t-82 65t-46 101z" horiz-adv-x="1191" unicode="ӑ"/><glyph d="M16 0l590 1454h107l592 -1454h-213l-156 375h-567l-152 -375h-201zM430 547h447l-166 407l-56 220h-4l-55 -224zM311 1628q0 47 33.5 74t93.5 27q57 0 92 -27t35 -74q0 -45 -35 -72.5t-92 -27.5q-59 0 -93 27.5t-34 72.5zM749 1628q0 47 34 74t91 27q59 0 94 -27t35 -74 q0 -45 -35 -72.5t-94 -27.5q-57 0 -91 27.5t-34 72.5z" horiz-adv-x="1320" unicode="Ӓ"/><glyph d="M92 287q0 92 40 159.5t103.5 110.5t144.5 63.5t161 20.5q63 0 107 -2t74 -5t50.5 -6t36.5 -5q4 31 6 53t2 57q0 57 -12 96t-40 62.5t-75 34t-115 10.5q-39 0 -86 -6t-94 -17.5t-93 -28t-83 -34.5l-51 158q184 88 457 88q123 0 197.5 -32t115.5 -81t54.5 -109.5 t13.5 -119.5q0 -113 -8.5 -226.5t-8.5 -246.5q0 -78 7.5 -151t23.5 -134h-137l-52 164h-20q-23 -31 -55.5 -62.5t-77.5 -56.5t-103.5 -41t-134.5 -16t-139 21.5t-109.5 60t-73 95t-26.5 126.5zM293 307q0 -82 58.5 -123t150.5 -41q68 0 120 17.5t90 43t61.5 57.5t35.5 63 v163q-16 2 -34.5 6.5t-46.5 6.5t-65.5 4t-93.5 2q-127 0 -201.5 -45t-74.5 -154zM244 1298q0 49 32.5 82t86.5 33q51 0 82.5 -33t31.5 -82q0 -47 -31.5 -79.5t-82.5 -32.5q-53 0 -86 32.5t-33 79.5zM684 1298q0 49 32 82t85 33t85 -33t32 -82q0 -47 -32 -79.5t-85 -32.5 t-85 32.5t-32 79.5z" horiz-adv-x="1191" unicode="ӓ"/><glyph d="M-51 0l934 1434h870v-177h-661v-436h604v-176h-604v-469h671v-176h-876v387h-471l-246 -387h-221zM522 559h365v651h-8l-78 -217z" horiz-adv-x="1902" unicode="Ӕ"/><glyph d="M92 285q0 92 42 155.5t119 101.5t184.5 55t236.5 17q31 0 68.5 -1t72.5 3v7q6 49 6 108q0 115 -55 160t-191 45q-37 0 -83 -5t-94 -14.5t-94 -22.5t-83 -28l-51 135q86 43 205 69t252 26q117 0 198.5 -39t126.5 -105q33 39 77 68t93 48t102.5 28.5t102.5 9.5 q82 0 162 -17.5t143.5 -64.5t102.5 -133t39 -221q0 -29 -1 -65t-8 -89h-770q2 -92 23.5 -164.5t68 -123t119 -77t174.5 -26.5q78 0 156 24.5t129 63.5l68 -125q-70 -51 -180.5 -84t-225.5 -33q-143 0 -263 57.5t-179 159.5h-23q-31 -37 -71.5 -73.5t-92 -65.5t-116 -47 t-142.5 -18q-76 0 -139 20.5t-109.5 59t-73 95t-26.5 126.5zM293 305q0 -74 58.5 -120t150.5 -46q68 0 119 16.5t89 41t63.5 54.5t39.5 58v174q-35 4 -73 3t-72 -1q-74 0 -141.5 -8t-120 -28.5t-83 -55.5t-30.5 -88zM1004 651h587q2 82 -15 138.5t-52 91t-84 50t-111 15.5 q-141 0 -223 -67.5t-102 -227.5z" horiz-adv-x="1904" unicode="ӕ"/><glyph d="M182 0v1434h867v-177h-662v-436h604v-176h-604v-469h672v-176h-877zM227 1741l190 43q10 -74 62.5 -112t138.5 -38t138.5 38t62.5 110l172 -37q-27 -113 -117 -176.5t-258 -63.5q-162 0 -265.5 55.5t-123.5 180.5z" horiz-adv-x="1198" unicode="Ӗ"/><glyph d="M123 537q0 276 136 422.5t388 146.5q80 0 160 -17.5t143.5 -65.5t103.5 -132t40 -219q0 -33 -2 -76t-9 -84h-768q4 -188 90.5 -284.5t292.5 -96.5q86 0 164 29.5t121 70.5l72 -143q-72 -53 -178.5 -85t-231.5 -32q-135 0 -234.5 40t-163 114t-94 178.5t-30.5 233.5z M324 647h589q0 9 1 18q0 150 -67 214q-71 68 -198 67q-143 0 -227 -67.5t-98 -231.5zM289 1405l168 53q10 -45 28.5 -71.5t43 -40t56.5 -16.5t66 -3q35 0 67 4t56.5 18.5t43 39t28.5 67.5l147 -43q-23 -121 -118 -170t-228 -49q-63 0 -122.5 10t-107.5 35t-82 65t-46 101z" horiz-adv-x="1224" unicode="ӗ"/><glyph d="M113 582q0 53 6 111.5t16 119.5h971q-18 242 -132 356.5t-339 114.5q-53 0 -104.5 -9t-97.5 -22.5t-84 -29t-62 -29.5l-47 164q66 39 180.5 70.5t253.5 31.5q150 0 268.5 -42t200.5 -132t125 -231.5t43 -337.5q0 -354 -156 -549t-469 -195q-141 0 -248.5 43t-179.5 122 t-108.5 192t-36.5 252zM326 543q0 -76 21.5 -146.5t66.5 -126t113.5 -88t162.5 -32.5q199 0 306.5 121.5t109.5 369.5h-772q-4 -25 -6 -49t-2 -49z" horiz-adv-x="1429" unicode="Ә"/><glyph d="M131 446q0 29 2 69t8 83h768q-10 92 -31.5 158.5t-65.5 107.5t-113.5 60.5t-172.5 19.5q-80 0 -159.5 -28.5t-128.5 -65.5l-66 135q74 53 179.5 86t226.5 33q137 0 236 -42t163.5 -117t95.5 -179t31 -229q0 -133 -35 -237.5t-99.5 -177.5t-158.5 -112t-213 -39 q-88 0 -172 22.5t-149.5 77t-105.5 145.5t-40 230zM324 463q-6 -172 70.5 -252t205.5 -80q133 0 217 86t86 246h-579z" horiz-adv-x="1226" unicode="ә"/><glyph d="M113 582q0 53 6 111.5t16 119.5h971q-18 242 -132 356.5t-339 114.5q-53 0 -104.5 -9t-97.5 -22.5t-84 -29t-62 -29.5l-47 164q66 39 180.5 70.5t253.5 31.5q150 0 268.5 -42t200.5 -132t125 -231.5t43 -337.5q0 -354 -156 -549t-469 -195q-141 0 -248.5 43t-179.5 122 t-108.5 192t-36.5 252zM326 543q0 -76 21.5 -146.5t66.5 -126t113.5 -88t162.5 -32.5q199 0 306.5 121.5t109.5 369.5h-772q-4 -25 -6 -49t-2 -49zM352 1628q0 47 33.5 74t93.5 27q57 0 92 -27t35 -74q0 -45 -35 -72.5t-92 -27.5q-59 0 -93 27.5t-34 72.5zM790 1628 q0 47 34 74t91 27q59 0 94 -27t35 -74q0 -45 -35 -72.5t-94 -27.5q-57 0 -91 27.5t-34 72.5z" horiz-adv-x="1429" unicode="Ӛ"/><glyph d="M131 446q0 29 2 69t8 83h768q-10 92 -31.5 158.5t-65.5 107.5t-113.5 60.5t-172.5 19.5q-80 0 -159.5 -28.5t-128.5 -65.5l-66 135q74 53 179.5 86t226.5 33q137 0 236 -42t163.5 -117t95.5 -179t31 -229q0 -133 -35 -237.5t-99.5 -177.5t-158.5 -112t-213 -39 q-88 0 -172 22.5t-149.5 77t-105.5 145.5t-40 230zM324 463q-6 -172 70.5 -252t205.5 -80q133 0 217 86t86 246h-579zM268 1298q0 49 32.5 82t86.5 33q51 0 82.5 -33t31.5 -82q0 -47 -31.5 -79.5t-82.5 -32.5q-53 0 -86 32.5t-33 79.5zM708 1298q0 49 32 82t85 33t85 -33 t32 -82q0 -47 -32 -79.5t-85 -32.5t-85 32.5t-32 79.5z" horiz-adv-x="1226" unicode="ӛ"/><glyph d="M-4 0l483 639l109 78l-105 74l-456 643h237l438 -635h101v635h192v-660l95 29l436 631h227l-442 -623l-92 -68l114 -84l490 -659h-248l-479 655h-101v-655h-192v680l-94 -29l-478 -651h-235zM555 1628q0 47 33.5 74t93.5 27q57 0 92 -27t35 -74q0 -45 -35 -72.5 t-92 -27.5q-59 0 -93 27.5t-34 72.5zM993 1628q0 47 34 74t91 27q59 0 94 -27t35 -74q0 -45 -35 -72.5t-94 -27.5q-57 0 -91 27.5t-34 72.5z" horiz-adv-x="1818" unicode="Ӝ"/><glyph d="M12 0l359 485l92 72l-129 88l-295 430h205l313 -465h135v465h185v-487l122 33l316 454h203l-310 -428l-98 -78l127 -90l336 -479h-227l-336 483h-133v-483h-185v508l-123 -33l-336 -475h-221zM447 1298q0 49 32.5 82t86.5 33q51 0 82.5 -33t31.5 -82q0 -47 -31.5 -79.5 t-82.5 -32.5q-53 0 -86 32.5t-33 79.5zM887 1298q0 49 32 82t85 33t85 -33t32 -82q0 -47 -32 -79.5t-85 -32.5t-85 32.5t-32 79.5z" horiz-adv-x="1585" unicode="ӝ"/><glyph d="M90 33l51 176q53 -23 146.5 -41t228.5 -18q63 0 127 16t115 49t82.5 83t31.5 120q0 123 -95 180t-265 68q-27 2 -47.5 3t-48.5 1h-111v159h35h48q30 0 61.5 2.5t61.5 3.5t48 5q111 14 188.5 70.5t77.5 150.5q0 63 -23.5 105t-65.5 68t-97 37t-117 11q-119 0 -207 -18.5 t-135 -40.5l-55 163q20 12 63 24.5t99.5 23t125 17.5t140.5 7q90 0 178 -17.5t156.5 -58.5t111.5 -108.5t43 -169.5t-72.5 -194.5t-219.5 -133.5v-8q158 -23 249 -110t91 -234q0 -117 -51.5 -202t-134.5 -140t-188.5 -82t-215.5 -27q-147 0 -248 17.5t-162 42.5zM195 1628 q0 47 33.5 74t93.5 27q57 0 92 -27t35 -74q0 -45 -35 -72.5t-92 -27.5q-59 0 -93 27.5t-34 72.5zM633 1628q0 47 34 74t91 27q59 0 94 -27t35 -74q0 -45 -35 -72.5t-94 -27.5q-57 0 -91 27.5t-34 72.5z" horiz-adv-x="1206" unicode="Ӟ"/><glyph d="M98 41l49 149q55 -29 133 -41t171 -12q283 0 282 178q0 80 -67.5 121t-235.5 41h-127v144h158q45 0 87 12t74.5 33.5t52 51.5t19.5 64q0 86 -63.5 119t-192.5 33q-90 0 -164.5 -19.5t-121.5 -40.5l-52 144q133 76 400 76q193 0 291 -68t98 -197q0 -35 -13.5 -71.5 t-40 -70.5t-64.5 -61.5t-87 -41.5v-23q139 -25 194.5 -91.5t55.5 -172.5q0 -68 -31 -126t-92 -101t-154.5 -68t-216.5 -25q-121 0 -200 16.5t-142 47.5zM139 1298q0 49 32.5 82t86.5 33q51 0 82.5 -33t31.5 -82q0 -47 -31.5 -79.5t-82.5 -32.5q-53 0 -86 32.5t-33 79.5z M579 1298q0 49 32 82t85 33t85 -33t32 -82q0 -47 -32 -79.5t-85 -32.5t-85 32.5t-32 79.5z" horiz-adv-x="1056" unicode="ӟ"/><glyph d="M117 51l49 176q25 -14 66.5 -27.5t90 -24.5t98.5 -18t93 -7q82 0 153.5 17t125 53t84 87t30.5 119q0 141 -112.5 201.5t-317.5 60.5h-194v70l403 428l98 88l-137 -21h-522v181h936v-84l-436 -461l-82 -62v-6l82 19q111 0 202 -28t155.5 -80t100 -126t35.5 -168 q0 -111 -46 -196.5t-127 -146t-191.5 -91.5t-239.5 -31q-47 0 -104.5 6.5t-112.5 16.5t-102 24.5t-78 30.5z" horiz-adv-x="1257" unicode="Ӡ"/><glyph d="M49 -397l51 151q61 -27 136 -43t170 -16q80 0 150.5 21.5t121.5 61.5t80.5 96t29.5 126q0 150 -104 220.5t-289 70.5h-164v61l330 465l129 113l-182 -15h-451v160h854v-76l-370 -487l-103 -86l101 14q88 0 167.5 -30.5t140 -85t95.5 -130t35 -167.5q0 -117 -45 -208 t-123 -153.5t-184.5 -96.5t-229.5 -34q-100 0 -186 17.5t-160 50.5z" horiz-adv-x="1075" unicode="ӡ"/><glyph d="M182 0v1434h205v-955l-18 -155h10l102 161l733 949h127v-1434h-204v948l12 158h-8l-99 -162l-735 -944h-125zM418 1552v140h717v-140h-717z" horiz-adv-x="1523" unicode="Ӣ"/><glyph d="M180 0v1075h189v-635l-15 -188h23l94 182l494 641h147v-1075h-188v614l28 213h-22l-101 -200l-503 -627h-146zM293 1223v141h672v-141h-672z" horiz-adv-x="1292" unicode="ӣ"/><glyph d="M182 0v1434h205v-955l-18 -155h10l102 161l733 949h127v-1434h-204v948l12 158h-8l-99 -162l-735 -944h-125zM416 1628q0 47 33.5 74t93.5 27q57 0 92 -27t35 -74q0 -45 -35 -72.5t-92 -27.5q-59 0 -93 27.5t-34 72.5zM854 1628q0 47 34 74t91 27q59 0 94 -27t35 -74 q0 -45 -35 -72.5t-94 -27.5q-57 0 -91 27.5t-34 72.5z" horiz-adv-x="1523" unicode="Ӥ"/><glyph d="M180 0v1075h189v-635l-15 -188h23l94 182l494 641h147v-1075h-188v614l28 213h-22l-101 -200l-503 -627h-146zM293 1298q0 49 32.5 82t86.5 33q51 0 82.5 -33t31.5 -82q0 -47 -31.5 -79.5t-82.5 -32.5q-53 0 -86 32.5t-33 79.5zM733 1298q0 49 32 82t85 33t85 -33t32 -82 q0 -47 -32 -79.5t-85 -32.5t-85 32.5t-32 79.5z" horiz-adv-x="1292" unicode="ӥ"/><glyph d="M119 717q0 176 44 314t127 233.5t202.5 145.5t271.5 50q162 0 283.5 -54t202.5 -151.5t121 -234.5t40 -303q0 -176 -44 -314.5t-128 -233.5t-204 -145.5t-271 -50.5q-164 0 -285 54.5t-200.5 151.5t-119.5 234.5t-40 303.5zM336 717q0 -117 25.5 -219.5t78 -180 t133 -122.5t191.5 -45q199 0 314.5 137t115.5 430q0 115 -25.5 217t-78 180t-133 124t-193.5 46q-197 0 -312.5 -139t-115.5 -428zM418 1628q0 47 33.5 74t93.5 27q57 0 92 -27t35 -74q0 -45 -35 -72.5t-92 -27.5q-59 0 -93 27.5t-34 72.5zM856 1628q0 47 34 74t91 27 q59 0 94 -27t35 -74q0 -45 -35 -72.5t-94 -27.5q-57 0 -91 27.5t-34 72.5z" horiz-adv-x="1529" unicode="Ӧ"/><glyph d="M123 537q0 133 35 238.5t102.5 179t164.5 112.5t222 39q131 0 229.5 -43t164 -120t97 -180.5t31.5 -225.5q0 -131 -35.5 -235.5t-102 -178.5t-164 -113t-220.5 -39q-135 0 -233.5 43t-163 119t-96 179.5t-31.5 224.5zM324 537q0 -76 17 -149t56 -130t100.5 -92t151.5 -35 q319 0 320 406q0 80 -17.5 153.5t-55.5 130t-99.5 91t-147.5 34.5q-160 0 -242.5 -101t-82.5 -308zM305 1298q0 49 32.5 82t86.5 33q51 0 82.5 -33t31.5 -82q0 -47 -31.5 -79.5t-82.5 -32.5q-53 0 -86 32.5t-33 79.5zM745 1298q0 49 32 82t85 33t85 -33t32 -82 q0 -47 -32 -79.5t-85 -32.5t-85 32.5t-32 79.5z" horiz-adv-x="1292" unicode="ӧ"/><glyph d="M119 717q0 176 44 314t127 233.5t202.5 145.5t271.5 50q162 0 283.5 -54t202.5 -151.5t121 -234.5t40 -303q0 -176 -44 -314.5t-128 -233.5t-204 -145.5t-271 -50.5q-164 0 -285 54.5t-200.5 151.5t-119.5 234.5t-40 303.5zM336 639q8 -102 37.5 -192.5t83 -156 t129.5 -103t178 -37.5q184 0 299 118.5t131 370.5h-858zM338 811h856q-10 98 -41 184t-84 150.5t-129 101.5t-176 37q-180 0 -294 -115.5t-132 -357.5z" horiz-adv-x="1529" unicode="Ө"/><glyph d="M123 537q0 270 135 419.5t389 149.5q131 0 229.5 -42t163 -118t96 -180t31.5 -229q0 -268 -136 -417t-384 -149q-135 0 -234.5 42t-164 117t-95 179.5t-30.5 227.5zM322 604h645q-25 170 -107 256t-213 86q-61 0 -116.5 -17.5t-100.5 -58.5t-73.5 -106.5t-34.5 -159.5z M324 469q16 -160 105 -249t218 -89q57 0 110.5 18.5t96.5 58.5t71.5 104.5t37.5 156.5h-639z" horiz-adv-x="1290" unicode="ө"/><glyph d="M119 717q0 176 44 314t127 233.5t202.5 145.5t271.5 50q162 0 283.5 -54t202.5 -151.5t121 -234.5t40 -303q0 -176 -44 -314.5t-128 -233.5t-204 -145.5t-271 -50.5q-164 0 -285 54.5t-200.5 151.5t-119.5 234.5t-40 303.5zM336 639q8 -102 37.5 -192.5t83 -156 t129.5 -103t178 -37.5q184 0 299 118.5t131 370.5h-858zM338 811h856q-10 98 -41 184t-84 150.5t-129 101.5t-176 37q-180 0 -294 -115.5t-132 -357.5zM418 1628q0 47 33.5 74t93.5 27q57 0 92 -27t35 -74q0 -45 -35 -72.5t-92 -27.5q-59 0 -93 27.5t-34 72.5zM856 1628 q0 47 34 74t91 27q59 0 94 -27t35 -74q0 -45 -35 -72.5t-94 -27.5q-57 0 -91 27.5t-34 72.5z" horiz-adv-x="1529" unicode="Ӫ"/><glyph d="M123 537q0 270 135 419.5t389 149.5q131 0 229.5 -42t163 -118t96 -180t31.5 -229q0 -268 -136 -417t-384 -149q-135 0 -234.5 42t-164 117t-95 179.5t-30.5 227.5zM322 604h645q-25 170 -107 256t-213 86q-61 0 -116.5 -17.5t-100.5 -58.5t-73.5 -106.5t-34.5 -159.5z M324 469q16 -160 105 -249t218 -89q57 0 110.5 18.5t96.5 58.5t71.5 104.5t37.5 156.5h-639zM311 1298q0 49 32.5 82t86.5 33q51 0 82.5 -33t31.5 -82q0 -47 -31.5 -79.5t-82.5 -32.5q-53 0 -86 32.5t-33 79.5zM751 1298q0 49 32 82t85 33t85 -33t32 -82q0 -47 -32 -79.5 t-85 -32.5t-85 32.5t-32 79.5z" horiz-adv-x="1290" unicode="ӫ"/><glyph d="M92 31l53 176q51 -25 134 -41t178 -16q88 0 174 25.5t154.5 83.5t114.5 152.5t56 229.5h-626v176h624q-20 238 -149 351.5t-334 115.5q-109 2 -192.5 -20.5t-133.5 -51.5l-49 164q68 39 173.5 61.5t222.5 22.5q143 0 267 -41t216 -130t145.5 -230t53.5 -342 q0 -203 -61.5 -344.5t-163 -230.5t-233.5 -129t-274 -40q-113 0 -202 17.5t-148 40.5zM162 1628q0 47 33.5 74t93.5 27q57 0 92 -27t35 -74q0 -45 -35 -72.5t-92 -27.5q-59 0 -93 27.5t-34 72.5zM600 1628q0 47 34 74t91 27q59 0 94 -27t35 -74q0 -45 -35 -72.5t-94 -27.5 q-57 0 -91 27.5t-34 72.5z" horiz-adv-x="1292" unicode="Ӭ"/><glyph d="M98 41l52 156q55 -29 132.5 -47.5t155.5 -18.5q166 0 251 79t99 253h-495v160h493q-12 147 -97 235t-245 88q-96 0 -166.5 -25.5t-117.5 -54.5l-62 140q72 47 166 73.5t221 26.5q129 0 224.5 -39t158 -112.5t92 -179t29.5 -238.5q0 -274 -139 -420t-383 -146 q-111 0 -209.5 17.5t-159.5 52.5zM125 1298q0 49 32.5 82t86.5 33q51 0 82.5 -33t31.5 -82q0 -47 -31.5 -79.5t-82.5 -32.5q-53 0 -86 32.5t-33 79.5zM565 1298q0 49 32 82t85 33t85 -33t32 -82q0 -47 -32 -79.5t-85 -32.5t-85 32.5t-32 79.5z" horiz-adv-x="1112" unicode="ӭ"/><glyph d="M10 1434h236l391 -738l55 -182h13l43 188l290 732h209l-401 -947q-59 -137 -104.5 -232t-93.5 -154.5t-103.5 -86t-134.5 -26.5q-74 0 -118 11t-85 36l59 168q43 -25 81 -30t71 -5q59 0 101 52t75 157zM305 1552v140h717v-140h-717z" horiz-adv-x="1245" unicode="Ӯ"/><glyph d="M16 1075h224l274 -680l64 -207h26l51 209l224 678h192l-352 -973l-79 -194q-40 -94 -88 -167t-106.5 -117t-134.5 -44q-82 0 -139 19l31 159q31 -10 61 -10q41 0 75 10.5t62.5 37t52 74.5t44.5 124zM209 1223v141h672v-141h-672z" horiz-adv-x="1087" unicode="ӯ"/><glyph d="M10 1434h236l391 -738l55 -182h13l43 188l290 732h209l-401 -947q-59 -137 -104.5 -232t-93.5 -154.5t-103.5 -86t-134.5 -26.5q-74 0 -118 11t-85 36l59 168q43 -25 81 -30t71 -5q59 0 101 52t75 157zM318 1628q0 47 33.5 74t93.5 27q57 0 92 -27t35 -74 q0 -45 -35 -72.5t-92 -27.5q-59 0 -93 27.5t-34 72.5zM756 1628q0 47 34 74t91 27q59 0 94 -27t35 -74q0 -45 -35 -72.5t-94 -27.5q-57 0 -91 27.5t-34 72.5z" horiz-adv-x="1245" unicode="Ӱ"/><glyph d="M16 1075h224l274 -680l64 -207h26l51 209l224 678h192l-352 -973l-79 -194q-40 -94 -88 -167t-106.5 -117t-134.5 -44q-82 0 -139 19l31 159q31 -10 61 -10q41 0 75 10.5t62.5 37t52 74.5t44.5 124zM234 1298q0 49 32.5 82t86.5 33q51 0 82.5 -33t31.5 -82 q0 -47 -31.5 -79.5t-82.5 -32.5q-53 0 -86 32.5t-33 79.5zM674 1298q0 49 32 82t85 33t85 -33t32 -82q0 -47 -32 -79.5t-85 -32.5t-85 32.5t-32 79.5z" horiz-adv-x="1087" unicode="ӱ"/><glyph d="M10 1434h236l391 -738l55 -182h13l43 188l290 732h209l-401 -947q-59 -137 -104.5 -232t-93.5 -154.5t-103.5 -86t-134.5 -26.5q-74 0 -118 11t-85 36l59 168q43 -25 81 -30t71 -5q59 0 101 52t75 157zM383 1518l141 223h221v-33l-223 -190h-139zM672 1518l227 223h235 v-33l-321 -190h-141z" horiz-adv-x="1245" unicode="Ӳ"/><glyph d="M16 1075h224l274 -680l64 -207h26l51 209l224 678h192l-352 -973l-79 -194q-40 -94 -88 -167t-106.5 -117t-134.5 -44q-82 0 -139 19l31 159q31 -10 61 -10q41 0 75 10.5t62.5 37t52 74.5t44.5 124zM346 1249l80 264h184v-24l-163 -240h-101zM617 1249l167 264h207v-22 l-270 -242h-104z" horiz-adv-x="1087" unicode="ӳ"/><glyph d="M156 938v496h204v-453q0 -137 66 -212t207 -75q104 0 193 24.5t145 65.5v650h205v-1434h-205v610q-59 -33 -158.5 -62.5t-228.5 -29.5q-96 0 -175 22.5t-135.5 74t-87 130t-30.5 193.5zM342 1628q0 47 33.5 74t93.5 27q57 0 92 -27t35 -74q0 -45 -35 -72.5t-92 -27.5 q-59 0 -93 27.5t-34 72.5zM780 1628q0 47 34 74t91 27q59 0 94 -27t35 -74q0 -45 -35 -72.5t-94 -27.5q-57 0 -91 27.5t-34 72.5z" horiz-adv-x="1357" unicode="Ӵ"/><glyph d="M123 760v315h188v-264q0 -66 7.5 -117t31 -88t65.5 -56.5t109 -19.5q104 0 175 24t108 52v469h188v-1075h-188v457q-39 -25 -119 -55.5t-213 -30.5q-86 0 -152.5 18.5t-110.5 63.5t-66.5 119.5t-22.5 187.5zM219 1298q0 49 32.5 82t86.5 33q51 0 82.5 -33t31.5 -82 q0 -47 -31.5 -79.5t-82.5 -32.5q-53 0 -86 32.5t-33 79.5zM659 1298q0 49 32 82t85 33t85 -33t32 -82q0 -47 -32 -79.5t-85 -32.5t-85 32.5t-32 79.5z" horiz-adv-x="1175" unicode="ӵ"/><glyph d="M182 0v1434h850v-181h-645v-1073h197v-442h-142l-32 262h-228z" horiz-adv-x="995" unicode="Ӷ"/><glyph d="M180 0v1075h692v-160h-503v-755h166v-414h-134l-32 254h-189z" horiz-adv-x="872" unicode="ӷ"/><glyph d="M182 14v1420h205v-547q12 2 32.5 5t46.5 5l53 4q28 2 54 2q106 0 207 -20.5t178.5 -70.5t123.5 -134t46 -211q0 -123 -44 -215t-121.5 -151.5t-186 -89t-239.5 -29.5q-31 0 -74 1t-91 5t-97.5 10t-92.5 16zM387 170q29 -8 71 -10t95 -2q76 0 141.5 18.5t113.5 55t75.5 92 t27.5 129.5q0 82 -30.5 135t-80.5 83.5t-117 43t-140 12.5q-39 0 -86 -6t-70 -12v-539zM1346 0v1434h204v-1434h-204zM520 1628q0 47 33.5 74t93.5 27q57 0 92 -27t35 -74q0 -45 -35 -72.5t-92 -27.5q-59 0 -93 27.5t-34 72.5zM958 1628q0 47 34 74t91 27q59 0 94 -27 t35 -74q0 -45 -35 -72.5t-94 -27.5q-57 0 -91 27.5t-34 72.5z" horiz-adv-x="1732" unicode="Ӹ"/><glyph d="M180 -2v1077h189v-411q66 10 122 13t101 3q119 0 199.5 -24.5t130 -67.5t70 -101.5t20.5 -126.5q0 -195 -119 -283.5t-387 -88.5q-86 0 -166 2t-160 8zM369 160q86 -12 176 -13q147 0 206.5 51.5t59.5 145.5q0 82 -58.5 137.5t-201.5 55.5q-39 0 -87 -3.5t-95 -13.5v-360 zM1210 0v1075h189v-1075h-189zM436 1298q0 49 32.5 82t86.5 33q51 0 82.5 -33t31.5 -82q0 -47 -31.5 -79.5t-82.5 -32.5q-53 0 -86 32.5t-33 79.5zM876 1298q0 49 32 82t85 33t85 -33t32 -82q0 -47 -32 -79.5t-85 -32.5t-85 32.5t-32 79.5z" horiz-adv-x="1579" unicode="ӹ"/><glyph d="M55 0l518 729l-473 705h244l309 -471l56 -119l53 119l323 471h226l-488 -691l310 -440q70 -96 102.5 -178t32.5 -168q0 -190 -78 -288.5t-238 -98.5q-39 0 -82 6v174q63 -2 101.5 11.5t60 37t28.5 56t7 69.5q0 94 -37 167t-78 132l-196 277l-68 125l-57 -125l-350 -500 h-226z" horiz-adv-x="1394" unicode="Ӽ"/><glyph d="M61 0l416 549l-389 526h238l206 -278l80 -140l80 140l213 278h215l-395 -516l233 -299q66 -82 104 -153.5t38 -153.5q0 -186 -86 -284.5t-254 -98.5h-15q-16 0 -30.5 1t-30.5 3v156q129 0 178 49t49 143q0 82 -40 139.5t-87 116.5l-104 133l-88 142l-80 -146l-236 -307 h-215z" horiz-adv-x="1212" unicode="ӽ"/><glyph d="M137 401q0 147 86 243.5t246 117.5v8q-72 20 -125 56t-88 81t-52.5 95.5t-17.5 101.5q0 92 41 159.5t112 110.5t164 63.5t199 20.5q61 0 122 -7t113 -19.5t94 -26.5t65 -29l-58 -159q-31 12 -68.5 23t-79.5 20.5t-86 15.5t-85 6q-145 0 -231.5 -46t-86.5 -155 q0 -53 26 -94t68 -71.5t95 -50t108 -27.5q37 -6 90.5 -7.5t94.5 -1.5h39v-163h-113h-49q-20 0 -47 -2q-166 -10 -262.5 -69.5t-96.5 -176.5q0 -68 28 -119t78 -84t118.5 -49t152.5 -16q98 0 186.5 23.5t137.5 51.5l59 -153q-55 -35 -160.5 -67t-253.5 -32q-125 0 -228 26 t-178 79t-116 132.5t-41 190.5z" horiz-adv-x="1191" unicode="Ԑ"/><glyph d="M123 295q0 106 58.5 168.5t189.5 97.5v21q-100 31 -151.5 96t-51.5 145q0 131 104.5 202t282.5 71q131 0 227.5 -29t167.5 -70l-51 -137q-51 23 -126 49.5t-159 26.5q-129 0 -191.5 -35t-62.5 -121q0 -35 19.5 -64.5t52.5 -51t75 -34t87 -12.5h156v-141h-129 q-166 0 -238 -42t-72 -120q0 -80 75 -127t220 -47q174 0 299 72l49 -147q-59 -33 -143 -58.5t-197 -25.5q-248 0 -369.5 85t-121.5 228z" horiz-adv-x="1085" unicode="ԑ"/><glyph d="M-8 10l24 174q47 -14 98.5 0.5t98.5 91.5q31 51 57.5 142.5t47 230.5t35 333t20.5 452h844v-1483q0 -188 -72 -284.5t-230 -96.5q-39 0 -81 6v174q63 -2 99 9.5t53.5 40t21.5 77.5t4 123v1253h-451q-23 -403 -59.5 -668.5t-116.5 -414.5q-53 -98 -121.5 -139t-144.5 -41 q-43 0 -70.5 5t-56.5 15z" horiz-adv-x="1398" unicode="Ԓ"/><glyph d="M-12 10l28 172q27 -8 60 -8q49 0 88 36t67.5 134t47 274.5t26.5 456.5h711v-1124q0 -190 -68.5 -281.5t-224.5 -91.5q-41 0 -86 6v154q63 -2 100 13.5t57.5 47t26.5 82.5t6 119v915h-348l-4 -61q-14 -203 -33.5 -363.5t-56.5 -272.5t-98.5 -170t-159.5 -58q-45 0 -79.5 5 t-59.5 15z" horiz-adv-x="1196" unicode="ԓ"/><glyph d="M16 1434h215l275 -930l33 -240h4l37 244l317 926h102l320 -930l37 -240h4l39 244l254 926h200l-436 -1454h-117l-313 931l-43 217h-10l-41 -219l-313 -929h-119z" horiz-adv-x="1869" unicode="Ԝ"/><glyph d="M16 1075h207l228 -608l38 -215h19l57 219l248 604h145l177 -407l88 -207l55 -207h14l47 213l201 608h180l-391 -1098h-102l-301 695v-2l-54 198l-61 -200v2l-289 -693h-98z" horiz-adv-x="1720" unicode="ԝ"/><glyph d="M182 0v1434h1108v-1254h201v-442h-141l-33 262h-232v1253h-698v-1253h-205z" horiz-adv-x="1550" unicode="Ԥ"/><glyph d="M180 0v1075h905v-915h144v-414h-133l-33 254h-166v915h-528v-915h-189z" horiz-adv-x="1269" unicode="ԥ"/><glyph d="M182 0v1434h205v-611q59 33 157.5 62.5t227.5 29.5q94 0 172 -21.5t135.5 -68.5t89 -123.5t31.5 -189.5v-332h197v-442h-142l-32 262h-228v467q0 272 -270 272q-104 0 -193.5 -24.5t-144.5 -67.5v-647h-205z" horiz-adv-x="1437" unicode="Ԧ"/><glyph d="M180 0v1434h189v-492h22q61 74 147.5 119t213.5 45q98 0 169.5 -21.5t118.5 -76t70 -145.5t23 -228v-475h133v-414h-133l-33 254h-156v594q0 88 -11 152.5t-41 107.5t-80 63.5t-126 20.5q-53 0 -104.5 -18.5t-94.5 -51t-73.5 -79t-44.5 -103.5v-686h-189z" horiz-adv-x="1306" unicode="ԧ"/><glyph d="M182 0v1434h205v-660l94 29l516 631h234l-516 -615l-97 -69l113 -82l569 -668h-258l-555 651h-100v-651h-205zM436 1540l260 242h270v-47l-364 -195h-166z" horiz-adv-x="1370" unicode="Ḱ"/><glyph d="M180 0v1434h189v-848l106 35l356 454h222l-342 -416h2l-113 -81l129 -93l379 -485h-238l-385 483h-116v-483h-189zM539 1167l131 308h213v-48l-229 -260h-115z" horiz-adv-x="1140" unicode="ḱ"/><glyph d="M182 0v1434h154l485 -732l76 -155h4l72 160l461 727h161v-1434h-204v924l22 229h-8l-88 -199l-399 -635h-62l-420 637l-84 195h-10l33 -225v-926h-193zM735 1540l260 242h270v-47l-364 -195h-166z" horiz-adv-x="1777" unicode="Ḿ"/><glyph d="M180 0v1075h129l37 -143h21q66 74 150.5 124t215.5 50q111 0 185.5 -47t113.5 -158q61 94 155.5 149.5t211.5 55.5q98 0 166.5 -22.5t111.5 -78t63.5 -149.5t20.5 -238v-618h-188v618q0 82 -9.5 141.5t-34 99.5t-68.5 59.5t-115 19.5q-117 0 -184.5 -61.5t-96.5 -184.5 v-692h-188v590q0 86 -8.5 151.5t-33 109.5t-68.5 65.5t-114 21.5q-109 0 -181.5 -60.5t-102.5 -154.5v-723h-189zM885 1167l131 308h213v-48l-229 -260h-115z" horiz-adv-x="1941" unicode="ḿ"/><glyph d="M182 0v1419q86 18 187.5 25.5t199.5 7.5q104 0 212 -18.5t196 -67.5t144.5 -136t56.5 -224q0 -129 -51.5 -220.5t-136.5 -148.5t-194.5 -84t-226.5 -27q-12 0 -38 1l-53 2q-28 1 -53.5 3.5t-37.5 4.5v-537h-205zM387 713q10 -4 33.5 -5t49.5 -3.5t49 -2.5h36 q74 0 145.5 11.5t130 44.5t94.5 92t36 154q0 82 -35 135t-90.5 83.5t-124 42t-136.5 11.5q-55 0 -107 -2t-81 -10v-551zM445 1540l260 242h270v-47l-364 -195h-166z" horiz-adv-x="1257" unicode="Ṕ"/><glyph d="M180 -410v1485h127l37 -137h18q55 80 143.5 124t199.5 44q233 0 347.5 -130t114.5 -415q0 -135 -37.5 -244.5t-108.5 -186.5t-172 -118t-226 -41q-41 0 -75 3t-62.5 10.5t-57.5 16.5t-59 22v-433h-189zM369 201q47 -33 102 -51.5t141 -18.5q166 0 260.5 108.5t94.5 323.5 q0 174 -70 278.5t-235 104.5q-123 0 -193 -61.5t-100 -188.5v-495zM539 1167l131 308h213v-48l-229 -260h-115z" horiz-adv-x="1290" unicode="ṕ"/><glyph d="M182 0v956q0 104 20.5 195.5t73 159t144.5 107.5t237 40q98 0 175 -11t143.5 -33.5t125 -57.5t120.5 -82l-353 -389l-75 -58v-6l75 15q92 0 173 -25t139.5 -75t92.5 -124.5t34 -173.5q0 -111 -36 -196.5t-101.5 -145t-158.5 -91.5t-208 -32q-23 0 -59.5 3.5t-77.5 8.5 t-80 13t-64 18l35 177q20 -10 53 -18.5t68 -12.5t67.5 -6t57.5 -2q131 0 209 70.5t78 199.5q0 68 -18.5 117t-60.5 80.5t-112 47t-172 15.5h-135v133l369 397q-39 35 -127.5 55.5t-186.5 20.5q-96 0 -149.5 -33.5t-78 -91t-28.5 -131t-4 -153.5v-881h-205z" horiz-adv-x="1466" unicode="ẞ"/><glyph horiz-adv-x="1021"/><glyph horiz-adv-x="2045"/><glyph horiz-adv-x="1021"/><glyph horiz-adv-x="2045"/><glyph horiz-adv-x="681"/><glyph horiz-adv-x="509"/><glyph horiz-adv-x="339"/><glyph horiz-adv-x="339"/><glyph horiz-adv-x="253"/><glyph horiz-adv-x="407"/><glyph horiz-adv-x="112"/><glyph d="M131 504v176h545v-176h-545z" horiz-adv-x="806" unicode="‐"/><glyph d="M131 680h545v-176h-545v176z" horiz-adv-x="806" unicode="‑"/><glyph d="M131 504v176h545v-176h-545z" horiz-adv-x="806" unicode="‒"/><glyph d="M262 502v176h959v-176h-959z" horiz-adv-x="1482" unicode="–"/><glyph d="M262 502v176h1317v-176h-1317z" horiz-adv-x="1841" unicode="—"/><glyph d="M90 1315q0 70 21.5 121t52.5 84.5t65.5 54t61.5 29.5l55 -82q-49 -23 -79.5 -60t-26.5 -90q53 10 84.5 -20.5t31.5 -83.5q0 -49 -34.5 -78t-88.5 -29q-66 0 -104.5 39t-38.5 115z" horiz-adv-x="444" unicode="‘"/><glyph d="M90 1341q0 49 34 79t87 30q66 0 105.5 -39t39.5 -115q0 -72 -22.5 -123t-54 -85.5t-66.5 -54t-59 -27.5l-58 84q49 23 81 58.5t30 88.5q-53 -10 -85 20.5t-32 83.5z" horiz-adv-x="444" unicode="’"/><glyph d="M90 104q0 49 34 79t87 30q66 0 105.5 -39t39.5 -115q0 -72 -22.5 -123t-54 -85.5t-66.5 -54t-59 -27.5l-58 84q49 23 81 58.5t30 88.5q-53 -10 -85 20.5t-32 83.5z" horiz-adv-x="444" unicode="‚"/><glyph d="M90 1315q0 70 21.5 121t52.5 84.5t65.5 54t61.5 29.5l55 -82q-49 -23 -79.5 -60t-26.5 -90q53 10 84.5 -20.5t31.5 -83.5q0 -49 -34.5 -78t-88.5 -29q-66 0 -104.5 39t-38.5 115zM422 1315q0 70 21.5 121t52 84.5t65.5 54t62 29.5l55 -82q-49 -23 -80 -60t-27 -90 q53 10 85 -20.5t32 -83.5q0 -49 -35 -78t-88 -29q-66 0 -104.5 39t-38.5 115z" horiz-adv-x="776" unicode="“"/><glyph d="M90 1339q0 49 34 79t87 30q66 0 105.5 -39t39.5 -115q0 -72 -22.5 -123t-54 -85.5t-66.5 -54t-59 -27.5l-58 83q49 23 81 59t30 89q-53 -10 -85 20.5t-32 83.5zM422 1339q0 49 33.5 79t87.5 30q66 0 105.5 -39t39.5 -115q0 -72 -22.5 -123t-54 -85.5t-66.5 -54t-60 -27.5 l-57 83q49 23 81 59t30 89q-53 -10 -85 20.5t-32 83.5z" horiz-adv-x="776" unicode="”"/><glyph d="M90 104q0 49 34 79t87 30q66 0 105.5 -39t39.5 -115q0 -72 -22.5 -123t-54 -85.5t-66.5 -54t-59 -27.5l-58 84q49 23 81 58.5t30 88.5q-53 -10 -85 20.5t-32 83.5zM422 104q0 49 33.5 79t87.5 30q66 0 105.5 -39t39.5 -115q0 -72 -22.5 -123t-54 -85.5t-66.5 -54 t-60 -27.5l-57 84q49 23 81 58.5t30 88.5q-53 -10 -85 20.5t-32 83.5z" horiz-adv-x="776" unicode="„"/><glyph d="M90 864v172h289l100 -24l-24 98v324h188v-324l-27 -98l101 24h289v-172h-293l-97 25l27 -90v-799l-33 -410h-123l-32 412v797l24 90l-100 -25h-289z" horiz-adv-x="1095" unicode="†"/><glyph d="M90 340v172h289l100 -25l-24 86v230l24 86l-100 -25h-289v172h289l100 -24l-24 96v326h188v-326l-27 -96l101 24h289v-172h-293l-97 25l27 -86v-230l-27 -86l97 25h293v-172h-289l-101 25l27 -97v-268l-35 -410h-119l-34 412v266l24 97l-100 -25h-289z" horiz-adv-x="1095" unicode="‡"/><glyph d="M190 637q0 63 26 116.5t69 92.5t100 60.5t121 21.5q63 0 121.5 -20.5t101.5 -57.5t68.5 -91t25.5 -122t-25.5 -122t-68.5 -91t-100.5 -57.5t-120.5 -20.5q-66 0 -123 20.5t-100 57.5t-69 91t-26 122z" horiz-adv-x="1013" unicode="•"/><glyph d="M147 104q0 59 38 94t100 35q61 0 99 -34.5t38 -94.5q0 -55 -38 -92t-99 -37t-99.5 37t-38.5 92zM707 104q0 59 37.5 94t99.5 35q61 0 99 -34.5t38 -94.5q0 -55 -38 -92t-99 -37t-99 37t-38 92zM1266 104q0 59 37.5 94t99.5 35q61 0 99 -34.5t38 -94.5q0 -55 -38 -92 t-99 -37t-99 37t-38 92z" horiz-adv-x="1679" unicode="…"/><glyph horiz-adv-x="407"/><glyph d="M152 1110q0 90 26.5 155.5t73.5 108.5t111.5 63.5t140.5 20.5t140.5 -19.5t112.5 -60.5t74.5 -107.5t26.5 -160.5t-26.5 -160.5t-74.5 -107.5t-112.5 -60.5t-140.5 -19.5t-140.5 19.5t-111.5 60.5t-73.5 107.5t-26.5 160.5zM268 74l1170 1386l118 -98l-1171 -1389z M332 1110q0 -111 44 -163t128 -52q82 0 128 47t46 168q0 123 -45 169t-129 46q-82 0 -127 -46t-45 -169zM961 348q0 90 26.5 155.5t73.5 108.5t111.5 63.5t140.5 20.5t140.5 -19.5t112.5 -60.5t74.5 -107.5t26.5 -160.5t-26.5 -160.5t-74.5 -107.5t-112.5 -60.5 t-140.5 -19.5t-140.5 19.5t-111.5 60.5t-73.5 107.5t-26.5 160.5zM1141 348q0 -111 44 -163t128 -52q82 0 128 47t46 168q0 123 -45 169t-129 46q-82 0 -127 -46t-45 -169zM1767 348q0 90 27 155.5t74 108.5t111.5 63.5t140.5 20.5t140 -19.5t112.5 -60.5t75 -107.5 t26.5 -160.5t-26.5 -160.5t-75 -107.5t-113 -60.5t-139.5 -19.5q-76 0 -140.5 19.5t-111.5 60.5t-74 107.5t-27 160.5zM1948 348q0 -111 44 -163t128 -52q82 0 128 47t46 168q0 123 -45 169t-129 46q-82 0 -127 -46t-45 -169z" horiz-adv-x="2586" unicode="‰"/><glyph d="M82 530l360 471l121 -108l-207 -277l-108 -84l108 -73l222 -271l-123 -110z" horiz-adv-x="667" unicode="‹"/><glyph d="M90 893l123 108l373 -452l-361 -471l-123 106l209 279l109 84l-109 74z" horiz-adv-x="667" unicode="›"/><glyph d="M-391 66l1073 1396l123 -88l-1073 -1401z" horiz-adv-x="411" unicode="⁄"/><glyph horiz-adv-x="509"/><glyph d="M119 459l344 211h108v-727h209v-148h-616v148h235v475l17 78l-62 -60l-170 -98z" horiz-adv-x="892" unicode="₁"/><glyph d="M113 -119q51 37 126.5 98.5t145.5 133t120 145.5t50 137q0 61 -42 91t-107 30q-61 0 -118 -21.5t-98 -45.5l-55 135q61 41 140 63.5t161 22.5q141 0 216 -66.5t75 -183.5q0 -61 -21.5 -116.5t-59.5 -109t-89 -105.5l-108 -105l-103 -62v-4l129 27h295v-150h-657v86z" horiz-adv-x="892" unicode="₂"/><glyph d="M147 -176l37 139q39 -16 87 -28.5t108 -12.5q219 0 219 141q0 61 -50 99.5t-167 38.5h-117v53l207 219l78 53l-113 -12h-284v141h583v-82l-225 -235l-59 -37v-6l53 6q125 -2 194.5 -66.5t69.5 -175.5q0 -131 -102.5 -204.5t-268.5 -73.5q-82 0 -142.5 13.5t-107.5 29.5z" horiz-adv-x="892" unicode="₃"/><glyph d="M55 -16v92l506 612h113v-567h184v-137h-184v-189h-160v189h-459zM233 109l115 12h166v246l14 98h-6l-49 -92l-164 -199z" horiz-adv-x="892" unicode="₄"/><glyph d="M14 492l43 153h123q-2 16 -2 35v37v40q0 19 2 40h-166l43 149h142q27 135 86 232.5t141 160t183.5 92t213.5 29.5q117 0 201 -16.5t145 -38.5l-55 -164q-51 23 -119.5 35t-167.5 12q-74 0 -141.5 -18.5t-122.5 -60.5t-97 -106.5t-65 -156.5h625l-41 -149l-604 -2 q-2 -20 -2 -40v-40v-37q0 -18 2 -35l559 2l-41 -153h-500q86 -346 459 -347q90 0 161 20.5t124 49.5l47 -152q-68 -51 -170 -70.5t-201 -19.5q-250 0 -412.5 126t-209.5 393h-183z" unicode="€"/><glyph d="M84 496v151h932v-151h-527q-45 -35 -83.5 -97.5t-38.5 -119.5q0 -70 62.5 -106t205.5 -36q106 0 177 20.5t122 47.5l53 -154q-51 -29 -141 -53.5t-250 -24.5q-213 0 -319.5 75t-106.5 212q0 35 12.5 72t29.5 69.5t69 94.5h-197zM84 797v151h539q53 39 82.5 99.5 t29.5 119.5q0 70 -51 99.5t-174 29.5q-92 0 -152.5 -20.5t-113.5 -42.5l-60 158l67 27.5t75 22.5t94 14t125 5q193 0 290 -64.5t97 -195.5q0 -76 -31 -144.5t-78 -107.5h193v-151h-932z" unicode="₴"/><glyph d="M66 268v144h161v149h-161v144h161v714q86 18 183.5 25.5t195.5 7.5q106 0 206.5 -19.5t178.5 -68.5t125 -134t47 -216q0 -127 -49 -213t-129 -139.5t-181.5 -77t-205.5 -23.5h-174v-149h373v-144h-373v-268h-197v268h-161zM424 705h164q66 0 131 13t117.5 48t85 94.5 t32.5 149.5q0 80 -26.5 132t-72.5 83.5t-108.5 45t-132.5 13.5q-55 0 -107 -4t-83 -8v-567z" unicode="₶"/><glyph d="M66 268v144h161v149h-161v144h161v714q86 18 183.5 25.5t195.5 7.5q106 0 206.5 -19.5t178.5 -68.5t125 -134t47 -216q0 -127 -49 -213t-129 -139.5t-181.5 -77t-205.5 -23.5h-174v-149h373v-144h-373v-268h-197v268h-161zM424 705h164q66 0 131 13t117.5 48t85 94.5 t32.5 149.5q0 80 -26.5 132t-72.5 83.5t-108.5 45t-132.5 13.5q-55 0 -107 -4t-83 -8v-567z" unicode="₷"/><glyph d="M66 268v144h161v149h-161v144h161v714q86 18 183.5 25.5t195.5 7.5q106 0 206.5 -19.5t178.5 -68.5t125 -134t47 -216q0 -127 -49 -213t-129 -139.5t-181.5 -77t-205.5 -23.5h-174v-149h373v-144h-373v-268h-197v268h-161zM424 705h164q66 0 131 13t117.5 48t85 94.5 t32.5 149.5q0 80 -26.5 132t-72.5 83.5t-108.5 45t-132.5 13.5q-55 0 -107 -4t-83 -8v-567z" unicode="₹"/><glyph d="M66 268v144h161v149h-161v144h161v714q86 18 183.5 25.5t195.5 7.5q106 0 206.5 -19.5t178.5 -68.5t125 -134t47 -216q0 -127 -49 -213t-129 -139.5t-181.5 -77t-205.5 -23.5h-174v-149h373v-144h-373v-268h-197v268h-161zM424 705h164q66 0 131 13t117.5 48t85 94.5 t32.5 149.5q0 80 -26.5 132t-72.5 83.5t-108.5 45t-132.5 13.5q-55 0 -107 -4t-83 -8v-567z" unicode="₺"/><glyph d="M66 268v144h161v149h-161v144h161v714q86 18 183.5 25.5t195.5 7.5q106 0 206.5 -19.5t178.5 -68.5t125 -134t47 -216q0 -127 -49 -213t-129 -139.5t-181.5 -77t-205.5 -23.5h-174v-149h373v-144h-373v-268h-197v268h-161zM424 705h164q66 0 131 13t117.5 48t85 94.5 t32.5 149.5q0 80 -26.5 132t-72.5 83.5t-108.5 45t-132.5 13.5q-55 0 -107 -4t-83 -8v-567z" unicode="₻"/><glyph d="M66 268v144h161v149h-161v144h161v714q86 18 183.5 25.5t195.5 7.5q106 0 206.5 -19.5t178.5 -68.5t125 -134t47 -216q0 -127 -49 -213t-129 -139.5t-181.5 -77t-205.5 -23.5h-174v-149h373v-144h-373v-268h-197v268h-161zM424 705h164q66 0 131 13t117.5 48t85 94.5 t32.5 149.5q0 80 -26.5 132t-72.5 83.5t-108.5 45t-132.5 13.5q-55 0 -107 -4t-83 -8v-567z" unicode="₼"/><glyph d="M66 268v144h161v149h-161v144h161v714q86 18 183.5 25.5t195.5 7.5q106 0 206.5 -19.5t178.5 -68.5t125 -134t47 -216q0 -127 -49 -213t-129 -139.5t-181.5 -77t-205.5 -23.5h-174v-149h373v-144h-373v-268h-197v268h-161zM424 705h164q66 0 131 13t117.5 48t85 94.5 t32.5 149.5q0 80 -26.5 132t-72.5 83.5t-108.5 45t-132.5 13.5q-55 0 -107 -4t-83 -8v-567z" unicode="₽"/><glyph d="M66 268v144h161v149h-161v144h161v714q86 18 183.5 25.5t195.5 7.5q106 0 206.5 -19.5t178.5 -68.5t125 -134t47 -216q0 -127 -49 -213t-129 -139.5t-181.5 -77t-205.5 -23.5h-174v-149h373v-144h-373v-268h-197v268h-161zM424 705h164q66 0 131 13t117.5 48t85 94.5 t32.5 149.5q0 80 -26.5 132t-72.5 83.5t-108.5 45t-132.5 13.5q-55 0 -107 -4t-83 -8v-567z" unicode="₾"/><glyph d="M66 268v144h161v149h-161v144h161v714q86 18 183.5 25.5t195.5 7.5q106 0 206.5 -19.5t178.5 -68.5t125 -134t47 -216q0 -127 -49 -213t-129 -139.5t-181.5 -77t-205.5 -23.5h-174v-149h373v-144h-373v-268h-197v268h-161zM424 705h164q66 0 131 13t117.5 48t85 94.5 t32.5 149.5q0 80 -26.5 132t-72.5 83.5t-108.5 45t-132.5 13.5q-55 0 -107 -4t-83 -8v-567z" unicode="₿"/><glyph d="M66 268v144h161v149h-161v144h161v714q86 18 183.5 25.5t195.5 7.5q106 0 206.5 -19.5t178.5 -68.5t125 -134t47 -216q0 -127 -49 -213t-129 -139.5t-181.5 -77t-205.5 -23.5h-174v-149h373v-144h-373v-268h-197v268h-161zM424 705h164q66 0 131 13t117.5 48t85 94.5 t32.5 149.5q0 80 -26.5 132t-72.5 83.5t-108.5 45t-132.5 13.5q-55 0 -107 -4t-83 -8v-567z" unicode="⃀"/><glyph d="M66 268v144h161v149h-161v144h161v714q86 18 183.5 25.5t195.5 7.5q106 0 206.5 -19.5t178.5 -68.5t125 -134t47 -216q0 -127 -49 -213t-129 -139.5t-181.5 -77t-205.5 -23.5h-174v-149h373v-144h-373v-268h-197v268h-161zM424 705h164q66 0 131 13t117.5 48t85 94.5 t32.5 149.5q0 80 -26.5 132t-72.5 83.5t-108.5 45t-132.5 13.5q-55 0 -107 -4t-83 -8v-567z" unicode="⃁"/><glyph d="M66 268v144h161v149h-161v144h161v714q86 18 183.5 25.5t195.5 7.5q106 0 206.5 -19.5t178.5 -68.5t125 -134t47 -216q0 -127 -49 -213t-129 -139.5t-181.5 -77t-205.5 -23.5h-174v-149h373v-144h-373v-268h-197v268h-161zM424 705h164q66 0 131 13t117.5 48t85 94.5 t32.5 149.5q0 80 -26.5 132t-72.5 83.5t-108.5 45t-132.5 13.5q-55 0 -107 -4t-83 -8v-567z" unicode="⃂"/><glyph d="M66 268v144h161v149h-161v144h161v714q86 18 183.5 25.5t195.5 7.5q106 0 206.5 -19.5t178.5 -68.5t125 -134t47 -216q0 -127 -49 -213t-129 -139.5t-181.5 -77t-205.5 -23.5h-174v-149h373v-144h-373v-268h-197v268h-161zM424 705h164q66 0 131 13t117.5 48t85 94.5 t32.5 149.5q0 80 -26.5 132t-72.5 83.5t-108.5 45t-132.5 13.5q-55 0 -107 -4t-83 -8v-567z" unicode="⃃"/><glyph d="M66 268v144h161v149h-161v144h161v714q86 18 183.5 25.5t195.5 7.5q106 0 206.5 -19.5t178.5 -68.5t125 -134t47 -216q0 -127 -49 -213t-129 -139.5t-181.5 -77t-205.5 -23.5h-174v-149h373v-144h-373v-268h-197v268h-161zM424 705h164q66 0 131 13t117.5 48t85 94.5 t32.5 149.5q0 80 -26.5 132t-72.5 83.5t-108.5 45t-132.5 13.5q-55 0 -107 -4t-83 -8v-567z" unicode="⃄"/><glyph d="M66 268v144h161v149h-161v144h161v714q86 18 183.5 25.5t195.5 7.5q106 0 206.5 -19.5t178.5 -68.5t125 -134t47 -216q0 -127 -49 -213t-129 -139.5t-181.5 -77t-205.5 -23.5h-174v-149h373v-144h-373v-268h-197v268h-161zM424 705h164q66 0 131 13t117.5 48t85 94.5 t32.5 149.5q0 80 -26.5 132t-72.5 83.5t-108.5 45t-132.5 13.5q-55 0 -107 -4t-83 -8v-567z" unicode="⃅"/><glyph d="M66 268v144h161v149h-161v144h161v714q86 18 183.5 25.5t195.5 7.5q106 0 206.5 -19.5t178.5 -68.5t125 -134t47 -216q0 -127 -49 -213t-129 -139.5t-181.5 -77t-205.5 -23.5h-174v-149h373v-144h-373v-268h-197v268h-161zM424 705h164q66 0 131 13t117.5 48t85 94.5 t32.5 149.5q0 80 -26.5 132t-72.5 83.5t-108.5 45t-132.5 13.5q-55 0 -107 -4t-83 -8v-567z" unicode="⃆"/><glyph d="M66 268v144h161v149h-161v144h161v714q86 18 183.5 25.5t195.5 7.5q106 0 206.5 -19.5t178.5 -68.5t125 -134t47 -216q0 -127 -49 -213t-129 -139.5t-181.5 -77t-205.5 -23.5h-174v-149h373v-144h-373v-268h-197v268h-161zM424 705h164q66 0 131 13t117.5 48t85 94.5 t32.5 149.5q0 80 -26.5 132t-72.5 83.5t-108.5 45t-132.5 13.5q-55 0 -107 -4t-83 -8v-567z" unicode="⃇"/><glyph d="M66 268v144h161v149h-161v144h161v714q86 18 183.5 25.5t195.5 7.5q106 0 206.5 -19.5t178.5 -68.5t125 -134t47 -216q0 -127 -49 -213t-129 -139.5t-181.5 -77t-205.5 -23.5h-174v-149h373v-144h-373v-268h-197v268h-161zM424 705h164q66 0 131 13t117.5 48t85 94.5 t32.5 149.5q0 80 -26.5 132t-72.5 83.5t-108.5 45t-132.5 13.5q-55 0 -107 -4t-83 -8v-567z" unicode="⃈"/><glyph d="M66 268v144h161v149h-161v144h161v714q86 18 183.5 25.5t195.5 7.5q106 0 206.5 -19.5t178.5 -68.5t125 -134t47 -216q0 -127 -49 -213t-129 -139.5t-181.5 -77t-205.5 -23.5h-174v-149h373v-144h-373v-268h-197v268h-161zM424 705h164q66 0 131 13t117.5 48t85 94.5 t32.5 149.5q0 80 -26.5 132t-72.5 83.5t-108.5 45t-132.5 13.5q-55 0 -107 -4t-83 -8v-567z" unicode="⃉"/><glyph d="M66 268v144h161v149h-161v144h161v714q86 18 183.5 25.5t195.5 7.5q106 0 206.5 -19.5t178.5 -68.5t125 -134t47 -216q0 -127 -49 -213t-129 -139.5t-181.5 -77t-205.5 -23.5h-174v-149h373v-144h-373v-268h-197v268h-161zM424 705h164q66 0 131 13t117.5 48t85 94.5 t32.5 149.5q0 80 -26.5 132t-72.5 83.5t-108.5 45t-132.5 13.5q-55 0 -107 -4t-83 -8v-567z" unicode="⃊"/><glyph d="M66 268v144h161v149h-161v144h161v714q86 18 183.5 25.5t195.5 7.5q106 0 206.5 -19.5t178.5 -68.5t125 -134t47 -216q0 -127 -49 -213t-129 -139.5t-181.5 -77t-205.5 -23.5h-174v-149h373v-144h-373v-268h-197v268h-161zM424 705h164q66 0 131 13t117.5 48t85 94.5 t32.5 149.5q0 80 -26.5 132t-72.5 83.5t-108.5 45t-132.5 13.5q-55 0 -107 -4t-83 -8v-567z" unicode="⃋"/><glyph d="M66 268v144h161v149h-161v144h161v714q86 18 183.5 25.5t195.5 7.5q106 0 206.5 -19.5t178.5 -68.5t125 -134t47 -216q0 -127 -49 -213t-129 -139.5t-181.5 -77t-205.5 -23.5h-174v-149h373v-144h-373v-268h-197v268h-161zM424 705h164q66 0 131 13t117.5 48t85 94.5 t32.5 149.5q0 80 -26.5 132t-72.5 83.5t-108.5 45t-132.5 13.5q-55 0 -107 -4t-83 -8v-567z" unicode="⃌"/><glyph d="M66 268v144h161v149h-161v144h161v714q86 18 183.5 25.5t195.5 7.5q106 0 206.5 -19.5t178.5 -68.5t125 -134t47 -216q0 -127 -49 -213t-129 -139.5t-181.5 -77t-205.5 -23.5h-174v-149h373v-144h-373v-268h-197v268h-161zM424 705h164q66 0 131 13t117.5 48t85 94.5 t32.5 149.5q0 80 -26.5 132t-72.5 83.5t-108.5 45t-132.5 13.5q-55 0 -107 -4t-83 -8v-567z" unicode="⃍"/><glyph d="M66 268v144h161v149h-161v144h161v714q86 18 183.5 25.5t195.5 7.5q106 0 206.5 -19.5t178.5 -68.5t125 -134t47 -216q0 -127 -49 -213t-129 -139.5t-181.5 -77t-205.5 -23.5h-174v-149h373v-144h-373v-268h-197v268h-161zM424 705h164q66 0 131 13t117.5 48t85 94.5 t32.5 149.5q0 80 -26.5 132t-72.5 83.5t-108.5 45t-132.5 13.5q-55 0 -107 -4t-83 -8v-567z" unicode="⃎"/><glyph d="M66 268v144h161v149h-161v144h161v714q86 18 183.5 25.5t195.5 7.5q106 0 206.5 -19.5t178.5 -68.5t125 -134t47 -216q0 -127 -49 -213t-129 -139.5t-181.5 -77t-205.5 -23.5h-174v-149h373v-144h-373v-268h-197v268h-161zM424 705h164q66 0 131 13t117.5 48t85 94.5 t32.5 149.5q0 80 -26.5 132t-72.5 83.5t-108.5 45t-132.5 13.5q-55 0 -107 -4t-83 -8v-567z" unicode="⃏"/><glyph d="M150 446l174 152v520q0 90 20.5 154.5t56 105.5t83.5 60.5t104 19.5q98 0 161.5 -60.5t63.5 -183.5q0 -152 -82 -321.5t-268 -349.5v-287q0 -90 34.5 -124t84.5 -34q51 0 112.5 21.5t102.5 44.5l34 -103q-45 -29 -117.5 -57.5t-144.5 -28.5q-129 0 -187 62.5t-58 195.5 v213l-103 -90zM463 707q115 133 167 256.5t52 240.5q0 70 -28.5 100.5t-65.5 30.5q-25 0 -47.5 -7t-40 -28.5t-27.5 -59.5t-10 -99v-434z" horiz-adv-x="1024" unicode="ℓ"/><glyph d="M182 0v1454h117l688 -913l117 -199h10l-24 190v902h194v-1454h-117l-682 917l-125 205h-8l25 -197v-905h-195zM1454 1110q0 90 26.5 155.5t74 108.5t112 63.5t139.5 20.5q76 0 140.5 -19.5t112.5 -60.5t75 -107.5t27 -160.5t-27 -160.5t-75 -107.5t-112.5 -60.5 t-140.5 -19.5t-140 19.5t-111.5 60.5t-74 107.5t-26.5 160.5zM1497 471v172h633v-172h-633zM1634 1110q0 -111 44 -163t128 -52q82 0 128 47t46 168q0 123 -45 169t-129 46q-82 0 -127 -46t-45 -169z" horiz-adv-x="2293" unicode="№"/><glyph d="M78 1270v164h792v-164h-299v-574h-194v574h-299zM956 696v738h191l231 -338l62 -121h2l65 125l215 334h193v-738h-182v332l24 211h-10l-86 -174l-191 -277h-88l-192 275l-82 176h-10l32 -209v-334h-174z" horiz-adv-x="1996" unicode="™"/><glyph d="M90 539q0 121 38 224t107.5 179t167 119t215.5 43q127 0 224.5 -45t165 -122t102.5 -179.5t39 -218.5h-827v-371q127 -121 296 -121q254 0 396 246l71 -43q-88 -135 -202.5 -206t-264.5 -71q-121 0 -219 44t-166.5 120t-105.5 179.5t-37 222.5zM322 612h596v297 q-129 123 -302 123q-176 0 -294 -123v-297z" horiz-adv-x="1228" unicode="℮"/><glyph d="M49 387q0 123 39 248t117 226.5t194.5 165t274.5 63.5q96 0 144 -15.5t89 -44.5h25q-12 104 -65.5 175t-128 115t-165 61.5t-176.5 13.5q0 4 2 10t5 20l10 41q6 27 18 74q158 0 287 -31.5t220 -107.5t140 -201t49 -309q0 -236 -47 -409t-130 -286.5t-197.5 -169 t-249.5 -55.5q-225 0 -340 109.5t-115 306.5zM250 383q0 -51 14.5 -98t46 -83t82.5 -57.5t125 -21.5q121 0 201 65.5t128 167t67.5 226.5t19.5 243q-47 49 -109.5 80t-162.5 31q-86 0 -162 -43t-131.5 -117t-87 -175t-31.5 -218z" horiz-adv-x="1200" unicode="∂"/><glyph d="M180 -410v1844h1153v-1844h-205v1663h-743v-1663h-205z" horiz-adv-x="1513" unicode="∏"/><glyph d="M31 -229l485 678l82 63l-84 68l-483 673v181h1024v-181h-836l96 -77l467 -652l-485 -676l-90 -77h848v-181h-1024v181z" horiz-adv-x="1134" unicode="∑"/><glyph d="M88 604v172h959v-172h-959z" horiz-adv-x="1134" unicode="−"/><glyph d="M-31 66l1073 1396l123 -88l-1073 -1401z" horiz-adv-x="1134" unicode="∕"/><glyph d="M-18 752v176h401l203 -463l49 -217h4l45 221l320 965h186l-508 -1454h-82l-348 772h-270z" horiz-adv-x="1134" unicode="√"/><glyph d="M117 709q0 92 29.5 166.5t84 127t127 80t158.5 27.5q158 0 270.5 -63.5t184.5 -161.5q98 123 216 174t247 51q78 0 144.5 -26.5t115.5 -76t76.5 -120t27.5 -156.5q0 -92 -30.5 -167t-85 -127t-128 -80.5t-161.5 -28.5q-78 0 -145.5 20.5t-124 54t-101.5 78.5t-80 94 q-80 -121 -195.5 -184t-246.5 -63q-78 0 -146.5 26.5t-122 75.5t-84 120t-30.5 159zM305 715q0 -92 64.5 -151.5t171.5 -59.5q94 0 182 55t147 137q-59 111 -147 174.5t-205 63.5q-43 0 -82 -16.5t-67.5 -46t-46 -69.5t-17.5 -87zM1042 758q27 -53 65 -99.5t83 -80t97 -54 t110 -20.5q43 0 82 15.5t67.5 44t46 69.5t17.5 92q0 41 -13.5 79t-41 66.5t-68.5 46t-96 17.5q-86 0 -179.5 -42t-169.5 -134z" horiz-adv-x="1912" unicode="∞"/><glyph d="M-104 -373l53 152q53 -20 101 -30.5t100 -10.5q86 0 116.5 49t30.5 168v1186q0 168 74.5 243.5t236.5 75.5q76 0 151 -16.5t130 -36.5l-45 -156q-53 20 -103.5 32.5t-105.5 12.5q-84 0 -113.5 -48t-29.5 -165v-1189q0 -170 -76 -245t-238 -75q-84 0 -156.5 15t-125.5 38z" horiz-adv-x="790" unicode="∫"/><glyph d="M70 924q98 70 176 96t143 26q63 0 116.5 -17t103.5 -37.5t97.5 -38t98.5 -17.5q41 0 86 15.5t98 55.5l76 -145q-84 -53 -149.5 -74.5t-120.5 -21.5q-59 0 -109.5 17.5t-98.5 39t-95.5 40t-102.5 18.5q-51 0 -110.5 -23t-135.5 -78zM70 572q98 70 176 96t143 26 q63 0 116.5 -17t103.5 -37.5t97.5 -38t98.5 -17.5q41 0 86 15.5t98 55.5l76 -145q-84 -53 -149.5 -74.5t-120.5 -21.5q-59 0 -109.5 17.5t-98.5 39t-95.5 40t-102.5 18.5q-51 0 -110.5 -23t-135.5 -78z" horiz-adv-x="1134" unicode="≈"/><glyph d="M88 428v172h348l88 180h-436v172h518l129 269h178l-131 -269h265v-172h-349l-86 -180h435v-172h-519l-143 -297h-174l143 297h-266z" horiz-adv-x="1134" unicode="≠"/><glyph d="M76 866v78l858 483l86 -147l-524 -295l-205 -76l203 -65l536 -293l-84 -143zM119 453l80 155l837 -440l-78 -154z" horiz-adv-x="1134" unicode="≤"/><glyph d="M82 1282l84 143l870 -458v-78l-858 -483l-86 147l524 295l205 76l-203 65zM121 164l833 454l82 -153l-831 -451z" horiz-adv-x="1134" unicode="≥"/><glyph d="M72 700l446 754h88l457 -743l-457 -731h-88zM272 723l238 -381l65 -176h5l63 180l221 344l-239 381l-64 176h-4l-65 -180z" horiz-adv-x="1134" unicode="◊"/><glyph d="M182 0v1434h205v-613h727v613h205v-1254h199v-442h-142l-33 262h-229v641h-727v-641h-205z" horiz-adv-x="1576" unicode="Ⱨ"/><glyph d="M180 0v1434h189v-492h22q61 74 147.5 119t213.5 45q98 0 169.5 -21.5t118.5 -76t70 -145.5t23 -228v-475h133v-414h-133l-33 254h-156v594q0 88 -11 152.5t-41 107.5t-80 63.5t-126 20.5q-53 0 -104.5 -18.5t-94.5 -51t-73.5 -79t-44.5 -103.5v-686h-189z" horiz-adv-x="1306" unicode="ⱨ"/><glyph d="M0 1075h1075v-1075h-1075v1075z" horiz-adv-x="1075" unicode=""/><glyph d="M-702 1540l260 242h270v-47l-364 -195h-166z" horiz-adv-x="4" unicode=""/><glyph d="M123 1726l98 60q39 -66 119 -100.5t184 -34.5q109 0 183.5 40t109.5 95l90 -47q-20 -57 -58 -102.5t-89 -77t-112.5 -48t-125.5 -16.5q-59 0 -118.5 13.5t-112.5 42t-97 71.5t-71 104z" horiz-adv-x="1030" unicode=""/><glyph d="M137 -434l21 108q109 -29 155.5 -11t46.5 52q0 35 -52 54.5t-150 29.5l110 185h125l-55 -93q100 -16 148.5 -53t48.5 -104q0 -86 -73 -138.5t-186 -52.5q-47 0 -78.5 8.5t-60.5 14.5z" horiz-adv-x="665" unicode=""/><glyph d="M123 1526v53l299 203h149l285 -205v-51h-188l-133 96l-41 72l-43 -70l-144 -98h-184z" horiz-adv-x="978" unicode=""/><glyph d="M121 -209q0 45 36 74t83 29q59 0 103 -39t44 -121q0 -55 -20.5 -98.5t-49 -74t-60.5 -49t-56 -26.5l-60 82q39 16 67 48t28 79q-47 -10 -81 18.5t-34 77.5z" horiz-adv-x="509" unicode=""/><glyph d="M90 1341q0 49 34 79t87 30q66 0 105.5 -39t39.5 -115q0 -72 -22.5 -123t-54 -85.5t-66.5 -54t-59 -27.5l-58 84q49 23 81 58.5t30 88.5q-53 -10 -85 20.5t-32 83.5z" horiz-adv-x="444" unicode=""/><glyph d="M123 1634q0 45 39 78t108 33q70 0 110 -33t40 -78q0 -49 -40 -80.5t-110 -31.5t-108.5 31.5t-38.5 80.5z" horiz-adv-x="542" unicode=""/><glyph d="M123 1575q0 76 55 126t187 50q119 0 181 -45t62 -131q0 -74 -59.5 -123t-183.5 -49q-123 0 -182.5 47t-59.5 125zM266 1575q0 -31 22.5 -53.5t76.5 -22.5q100 0 100 76q0 37 -24.5 58.5t-75.5 21.5t-75 -21.5t-24 -58.5z" horiz-adv-x="731" unicode=""/><glyph d="M123 1620q66 66 125 89.5t112 23.5q43 0 85 -11.5t81 -25t76 -24.5t74 -11q29 0 58.5 10t58.5 35l51 -104q-59 -49 -111.5 -67.5t-101.5 -18.5q-43 0 -84 10t-80 23.5t-76 23.5t-74 10q-35 0 -71.5 -13.5t-73.5 -49.5z" horiz-adv-x="966" unicode=""/><glyph d="M137 -238q0 82 64.5 142.5t173.5 95.5h106q-70 -35 -110.5 -81t-38.5 -107q2 -47 32.5 -80t90.5 -33q20 0 44.5 5t51.5 15l24 -94q-35 -25 -96 -38t-117 -13q-104 0 -164.5 50t-60.5 138z" horiz-adv-x="706" unicode=""/><glyph d="M182 10v1411q84 14 197 22.5t242 8.5q88 0 181 -15.5t169 -54.5t125 -106.5t49 -173.5q0 -53 -17.5 -105.5t-53.5 -98.5t-91 -81t-131 -51v-8q66 -8 127 -33t108.5 -68t76 -104t28.5 -145q0 -111 -51 -192t-135 -133t-189.5 -76.5t-212.5 -24.5q-37 0 -90 1t-111.5 4 t-117 8t-103.5 15zM383 168q14 -4 43 -6t62.5 -4t67.5 -3t62 -1q70 0 134.5 14t113.5 45t79 78t30 112q0 82 -36 130.5t-93.5 74t-129 32.5t-141.5 7h-192v-479zM383 807h113q39 0 90 3t86 7q51 14 97 35.5t81 51.5t55.5 70t20.5 91q0 70 -28 112t-73 64.5t-102 30.5t-117 8 q-72 0 -132 -3t-91 -7v-463zM430 1540l260 242h270v-47l-364 -195h-166z" horiz-adv-x="1312" unicode=""/><glyph d="M180 57v1377h189v-492h20q47 82 135 122t187 40q223 0 338.5 -136.5t115.5 -410.5q0 -281 -151.5 -428t-425.5 -147q-135 0 -245 22t-163 53zM369 180q100 -39 243 -39q162 0 257.5 99.5t95.5 318.5q0 82 -16.5 152.5t-51.5 122t-87 81t-126 29.5q-66 0 -116 -20.5 t-89 -56.5t-66.5 -82t-43.5 -95v-510zM594 1167l131 308h213v-48l-229 -260h-115z" horiz-adv-x="1288" unicode=""/><glyph d="M182 0v1434h867v-177h-662v-456h614v-176h-614v-625h-205zM432 1540l260 242h270v-47l-364 -195h-166z" horiz-adv-x="1157" unicode=""/><glyph d="M49 915v160h182v29q0 100 18.5 168.5t58.5 110.5t104.5 60.5t156.5 18.5q78 0 136.5 -9t121.5 -32l-41 -153q-53 23 -99 29t-89 6q-57 0 -92 -10.5t-54.5 -36t-25.5 -69.5t-6 -112h315v-160h-315v-915h-189v915h-182zM416 1540l260 242h270v-47l-364 -195h-166z" horiz-adv-x="745" unicode=""/><glyph d="M-14 1065v152h196v217h205v-217h487v-152h-487v-242q59 33 157.5 62.5t227.5 29.5q94 0 172 -21.5t135.5 -68.5t89 -123.5t31.5 -189.5v-512h-205v467q0 272 -270 272q-104 0 -193.5 -24.5t-144.5 -67.5v-647h-205v1065h-196z" horiz-adv-x="1355" unicode=""/><glyph d="M0 1163v135h193v136h188v-136h350v-135h-350v-221h22q61 74 147.5 119t213.5 45q98 0 170 -21.5t119 -76t69.5 -145.5t22.5 -228v-635h-189v594q0 88 -11 152.5t-41 107.5t-80 63.5t-126 20.5q-53 0 -104 -18.5t-94 -51t-74 -79t-45 -103.5v-686h-188v1163h-193z" horiz-adv-x="1325" unicode=""/><glyph d="M156 938v496h204v-453q0 -137 66 -212t207 -75q104 0 193 24.5t145 65.5v650h205v-1483q0 -188 -77 -284.5t-237 -96.5q-41 0 -84 6v174q63 -2 101.5 11.5t58.5 43t26.5 78.5t6.5 117v610q-59 -33 -158.5 -62.5t-228.5 -29.5q-96 0 -175 22.5t-135.5 74t-87 130 t-30.5 193.5z" horiz-adv-x="1357" unicode=""/><glyph d="M123 760v315h188v-264q0 -66 7.5 -117t31 -88t65.5 -56.5t109 -19.5q104 0 175 24t108 52v469h188v-1124q0 -190 -68.5 -281.5t-224.5 -91.5q-41 0 -86 6v154q63 -2 100.5 13.5t58 47t26.5 82.5t6 119v457q-39 -25 -119 -55.5t-213 -30.5q-86 0 -152.5 18.5t-110.5 63.5 t-66.5 119.5t-22.5 187.5z" horiz-adv-x="1175" unicode=""/><glyph d="M10 1434h236l391 -738l55 -182h13l43 188l290 732h209l-401 -947q-59 -137 -104.5 -232t-93.5 -154.5t-103.5 -86t-134.5 -26.5q-74 0 -118 11t-85 36l59 168q43 -25 81 -30t71 -5q59 0 101 52t75 157zM453 1540l260 242h270v-47l-364 -195h-166z" horiz-adv-x="1245" unicode=""/><glyph d="M16 1075h224l274 -680l64 -207h26l51 209l224 678h192l-352 -973l-79 -194q-40 -94 -88 -167t-106.5 -117t-134.5 -44q-82 0 -139 19l31 159q31 -10 61 -10q41 0 75 10.5t62.5 37t52 74.5t44.5 124zM467 1167l131 308h213v-48l-229 -260h-115z" horiz-adv-x="1087" unicode=""/><glyph d="M92 31l53 176q51 -25 134 -41t178 -16q88 0 174 25.5t154.5 83.5t114.5 152.5t56 229.5h-626v176h624q-20 238 -149 351.5t-334 115.5q-109 2 -192.5 -20.5t-133.5 -51.5l-49 164q68 39 173.5 61.5t222.5 22.5q143 0 267 -41t216 -130t145.5 -230t53.5 -342 q0 -203 -61.5 -344.5t-163 -230.5t-233.5 -129t-274 -40q-113 0 -202 17.5t-148 40.5zM361 1634q0 45 39 78t108 33q70 0 110 -33t40 -78q0 -49 -40 -80.5t-110 -31.5t-108.5 31.5t-38.5 80.5z" horiz-adv-x="1292" unicode=""/><glyph d="M98 41l52 156q55 -29 132.5 -47.5t155.5 -18.5q166 0 251 79t99 253h-495v160h493q-12 147 -97 235t-245 88q-96 0 -166.5 -25.5t-117.5 -54.5l-62 140q72 47 166 73.5t221 26.5q129 0 224.5 -39t158 -112.5t92 -179t29.5 -238.5q0 -274 -139 -420t-383 -146 q-111 0 -209.5 17.5t-159.5 52.5zM348 1331q0 47 37 85t96 38t98 -38t39 -85t-39 -83t-98 -36t-96 36t-37 83z" horiz-adv-x="1112" unicode=""/><glyph d="M90 33l51 180q53 -23 146.5 -41t228.5 -18q63 0 127 15t115 47t82.5 82t31.5 120q0 123 -95 180t-265 68q-27 2 -47.5 3t-48.5 1h-111v159h35h48q30 0 61.5 2.5t61.5 3.5t48 5q111 14 188.5 70.5t77.5 150.5q0 63 -23.5 105t-65.5 68t-97 37t-117 11q-119 0 -207 -18.5 t-135 -40.5l-55 163q20 12 63 24.5t99.5 23t125 17.5t140.5 7q90 0 178 -17.5t156.5 -58.5t111.5 -108.5t43 -169.5t-72.5 -194.5t-219.5 -133.5v-8q158 -23 249 -110t91 -234q0 -104 -41 -184t-111 -135.5t-159 -87t-187 -40.5l-31 -342h-129l-43 342q-102 6 -176 21 t-123 35z" horiz-adv-x="1206" unicode=""/><glyph d="M98 41l49 152q55 -29 133 -41.5t171 -12.5q283 0 282 176q0 80 -67.5 121t-235.5 41h-127v144h158q45 0 87 12t74.5 33.5t52 51.5t19.5 64q0 86 -63.5 119t-192.5 33q-90 0 -164.5 -19.5t-121.5 -40.5l-52 144q133 76 400 76q193 0 291 -68t98 -197q0 -35 -13.5 -71.5 t-40 -70.5t-64.5 -61.5t-87 -41.5v-23q139 -25 194.5 -91.5t55.5 -172.5q0 -117 -94.5 -204t-284.5 -109l-31 -349h-129l-43 345q-84 6 -143.5 21t-110.5 40z" horiz-adv-x="1056" unicode=""/><glyph d="M119 717q0 201 61.5 342t159.5 230t221 130t244 41q135 0 221 -14t145 -37l-45 -176q-100 47 -305 47q-92 0 -179 -29.5t-155.5 -96.5t-109.5 -174.5t-41 -262.5q0 -139 39 -243.5t107.5 -175.5t161.5 -106.5t204 -35.5q100 0 174 17t125 46l49 -158q-57 -41 -138 -60 t-175 -26l-49 -84q100 -16 148 -53t48 -104q0 -86 -75.5 -138.5t-211.5 -52.5q-27 0 -54 2t-56 9l18 73q72 -4 113 2t61.5 20.5t25.5 32t5 33.5q0 35 -52 54.5t-151 29.5l105 176q-131 6 -247 53.5t-203 139.5t-138 228.5t-51 320.5z" horiz-adv-x="1277" unicode=""/><glyph d="M123 537q0 272 132 420.5t380 148.5q109 0 188.5 -19.5t143.5 -48.5l-49 -153q-55 29 -120 45t-141 16q-334 0 -333 -409q0 -78 18 -150t59 -129t107.5 -91t163.5 -34q86 0 150.5 23.5t107.5 56.5l61 -139q-66 -47 -151.5 -72t-182.5 -29l-47 -82q100 -16 148.5 -53 t48.5 -104q0 -86 -76 -138.5t-211 -52.5q-27 0 -54.5 2t-55.5 9l18 73q72 -4 113 2t61.5 20.5t25.5 32t5 33.5q0 35 -52.5 54.5t-150.5 29.5l107 178q-113 12 -192 57.5t-128 118t-71.5 170t-22.5 214.5z" horiz-adv-x="1083" unicode=""/><glyph d="M16 0l590 1454h107l592 -1454h-213l-156 375h-567l-152 -375h-201zM430 547h447l-166 407l-56 220h-4l-55 -224zM309 1552v140h717v-140h-717z" horiz-adv-x="1320" unicode=""/></font>
</defs>
</svg>
